<svg xmlns="http://www.w3.org/2000/svg" xml:space="preserve" width="532px" height="400px" version="1.1" style="shape-rendering:geometricPrecision; text-rendering:geometricPrecision; image-rendering:optimizeQuality; fill-rule:evenodd; clip-rule:evenodd"
viewBox="0 0 5888 4424"
 xmlns:xlink="http://www.w3.org/1999/xlink">
 <defs>
  <style type="text/css">
   <![CDATA[
    .fil4 {fill:none}
    .fil2 {fill:#2B2A29}
    .fil0 {fill:#FEFEFE}
    .fil3 {fill:url(#id0)}
    .fil1 {fill:url(#id1)}
   ]]>
  </style>
  <linearGradient id="id0" gradientUnits="userSpaceOnUse" x1="380.498" y1="211.283" x2="372.468" y2="-5.06949">
   <stop offset="0" style="stop-color:#5B5B5B"/>
   <stop offset="0.270588" style="stop-color:gray"/>
   <stop offset="0.411765" style="stop-color:#B2B3B3"/>
   <stop offset="0.478431" style="stop-color:#DDDDDE"/>
   <stop offset="0.529412" style="stop-color:#EBECEC"/>
   <stop offset="0.65098" style="stop-color:#C5C6C6"/>
   <stop offset="0.780392" style="stop-color:#BABBBB"/>
   <stop offset="1" style="stop-color:#898989"/>
  </linearGradient>
  <linearGradient id="id1" gradientUnits="userSpaceOnUse" xlink:href="#id0" x1="5507.79" y1="211.284" x2="5515.81" y2="-5.07057">
  </linearGradient>
 </defs>
 <g id="Слой_x0020_1">
  <metadata id="CorelCorpID_0Corel-Layer"/>
  <g id="_744112880">
   <path class="fil0" d="M5620 72c32,-10 61,-22 85,-38 3,-4 63,11 178,44 3,5 0,10 -11,12 -112,45 -173,58 -181,39 -46,-18 -70,-27 -71,-27 6,13 9,20 9,20 5,21 1,36 -11,45 -23,17 -38,17 -45,2 -6,-20 1,-30 19,-29 18,-12 19,-23 3,-34 -22,-3 -36,-3 -43,0 -4,-2 -3,5 3,19 -10,10 -18,13 -23,7 -12,5 -22,6 -30,3 -10,2 -16,0 -19,-4 -18,9 -28,8 -29,-4 7,-30 6,-53 -4,-69 6,-11 14,-13 23,-6 7,4 10,6 10,6 4,-5 8,-7 14,-4 6,3 8,3 8,-1 4,-5 9,-6 15,-2 2,4 4,4 6,2 4,-9 11,-9 21,0 0,8 1,12 4,12 34,7 49,3 47,-14 -8,-13 -16,-18 -25,-15 -21,-8 -27,-17 -16,-28 12,-8 25,-9 41,-1 23,20 31,42 24,66z"/>
   <path class="fil0" d="M5612 86c32,-9 61,-22 85,-37 3,-4 63,11 178,45 3,5 0,10 -11,12 -112,45 -173,57 -182,38 -46,-18 -70,-27 -71,-28 6,13 8,20 8,20 5,21 1,36 -12,44 -23,17 -38,17 -45,2 -5,-20 1,-30 19,-29 18,-12 19,-23 3,-34 -22,-3 -36,-4 -43,0 -4,-2 -3,5 2,19 -10,10 -18,13 -24,7 -12,5 -22,6 -30,3 -10,1 -16,0 -19,-4 -18,9 -28,8 -29,-4 7,-30 6,-53 -4,-69 6,-11 14,-13 23,-5 7,4 10,6 10,6 4,-5 8,-6 14,-3 6,3 8,3 8,-1 4,-5 9,-6 15,-2 2,4 4,4 6,2 4,-9 11,-9 21,1 0,8 1,12 4,12 34,7 49,3 47,-13 -8,-13 -16,-18 -25,-15 -21,-8 -26,-17 -15,-28 12,-8 25,-9 41,-1 23,20 31,42 24,67z"/>
   <path class="fil1" d="M5437 71c-148,-2 -241,-2 -277,0 -13,28 -16,49 -9,61 178,1 275,0 289,-4l11 -23 -14 -34z"/>
   <path class="fil2" d="M5537 30c-1,8 4,16 12,21 6,3 13,3 22,2 4,1 7,3 9,5 2,3 4,6 4,11 -1,2 -2,5 -4,7 -3,2 -6,2 -11,3 -8,0 -17,-1 -29,-4 0,-1 0,-2 0,-3 0,-4 0,-8 -3,-11 -3,-3 -5,-4 -8,-4 0,0 0,0 -1,0 -9,-2 -13,2 -15,7 0,0 0,1 0,2 -1,-3 -3,-10 -11,-9 -4,0 -8,2 -9,5 -1,2 -1,4 -2,5 -2,-1 -5,-5 -9,-5 -5,-1 -11,1 -13,6 -2,-3 -6,-8 -9,-11 -9,-6 -21,1 -22,12l-288 -1 0 10 290 1c2,8 4,17 3,27 -78,32 -291,21 -294,14l0 18 0 3 287 1c-2,4 1,12 7,16 8,5 22,-4 27,-11 1,3 2,7 5,8 5,1 12,0 15,-6 2,5 8,7 12,7 5,-1 12,-4 14,-9 3,4 11,6 19,4l0 0c3,-1 6,-2 9,-7 3,-5 1,-10 -1,-16 -1,-2 -1,-4 -1,-5l36 -2c1,0 2,0 2,1 6,4 10,9 12,13 0,3 -2,8 -4,12l0 0c0,1 -1,1 -1,2 -1,1 -2,1 -2,2 -1,1 -10,-2 -18,3 -16,9 -15,34 2,41 1,1 3,2 4,2 7,2 15,1 27,-5l0 0c1,-1 2,-1 3,-2 12,-8 20,-18 22,-29 2,-10 -1,-22 -8,-34 8,3 17,7 29,12 16,7 35,16 59,28l1 0 1 0c12,-3 32,-10 61,-19 28,-10 65,-22 109,-38 5,-2 9,-4 11,-6 1,-1 2,-3 2,-4 0,-2 -1,-3 -2,-5 -2,-2 -5,-3 -9,-5l0 0 0 0c-19,-4 -44,-9 -73,-17 -30,-8 -65,-17 -105,-28l-1 0 -1 1c-13,8 -27,15 -41,21 -13,6 -26,12 -40,17 0,-2 1,-5 1,-8 0,-5 0,-11 -2,-19l0 0c-3,-14 -10,-26 -20,-34 -9,-7 -21,-11 -34,-9l0 0c-12,1 -19,4 -23,9 -2,3 -2,6 -2,10zm1 53c-1,-1 -1,-5 -3,-4 -5,10 -2,30 1,37l0 0 0 3c0,3 1,6 2,9 1,5 3,9 1,12 -8,1 -15,1 -16,-2 -5,-14 -7,-44 -5,-68 0,0 0,-2 -1,-1 0,0 -3,1 -4,2 -1,0 -1,2 -1,2 -1,8 -1,19 -1,21 1,15 4,31 4,49 -3,1 -11,8 -18,1 -4,-5 -6,-2 -6,-2 0,1 0,1 0,2 0,0 -1,-1 -2,-1 -4,-1 -10,2 -12,-5 -2,-12 -3,-21 -3,-31 0,-3 -2,-2 -2,1 0,10 -1,21 -2,35 -16,5 -20,0 -19,-6 3,-19 2,-44 -6,-61 0,-1 -1,-1 -1,-2l0 -3c2,-6 17,-7 25,-2 0,0 0,0 0,0 1,2 4,15 4,36 0,0 1,-1 1,-1 0,0 1,1 1,0 0,-9 1,-19 2,-26 1,-13 11,-9 14,-9 0,0 0,0 0,0 6,17 6,41 1,70 0,0 -1,2 0,2 1,0 1,0 2,0 1,0 3,1 3,2 -1,-13 1,-55 1,-60 0,-4 0,-8 -1,-13 0,-2 7,-7 14,-2 0,0 1,0 1,0 0,1 0,2 0,4 0,-2 6,-2 6,-5 0,-2 2,-4 5,-5 1,0 2,0 3,1 1,0 2,0 4,1 1,1 2,2 3,3 0,1 1,2 1,2 0,1 0,2 0,3 0,2 0,4 0,6l0 2 2 0c13,4 24,6 33,5 9,-1 16,-4 19,-9l0 -1 0 0c1,-1 1,-3 2,-4 0,-6 0,-18 -13,-24 -27,1 -37,-15 -23,-26 0,0 1,-1 2,-1 2,0 4,-1 6,-1l0 0c11,-2 22,2 30,8 9,7 15,18 18,31 1,7 2,13 1,18 0,5 -1,8 -2,11l-2 5c-1,1 -2,2 -1,3 15,-3 56,-17 103,-41 36,10 67,18 93,25 23,6 43,10 60,14 7,3 6,6 3,9 -88,31 -138,42 -160,46 -11,-3 -48,-16 -101,-37 -1,1 -1,4 1,7l-1 0 4 6c1,1 2,2 2,3 8,12 10,23 9,33 -2,10 -8,18 -19,26 -1,1 -2,1 -3,2 -5,3 -10,5 -14,5 -3,0 -6,0 -9,-1 -14,-8 -13,-27 7,-33 5,0 11,-3 14,-7 6,-8 5,-22 -2,-30 -9,-10 -14,-9 -26,-7 -5,1 -15,1 -22,0 -10,-12 -10,-19 -8,-29z"/>
   <path class="fil0" d="M808 428c2,-120 -7,-187 -26,-201 -37,-91 -53,-148 -49,-171 26,10 42,9 48,-5 46,-12 82,-7 109,15 26,-19 63,-18 109,3 116,-51 386,-54 809,-10 17,4 34,-3 51,-21 67,-14 146,-7 237,21 19,-21 47,-21 86,-2 36,-10 82,-9 139,2 235,-42 484,-44 749,-6 41,-17 68,-16 82,1 74,-19 146,-19 214,-1 203,-17 305,-26 305,-26 476,4 745,13 807,27 57,-15 97,-16 121,-4 11,-7 23,-6 37,2 37,-12 83,-13 140,-3 25,9 46,6 63,-7 63,-17 145,-15 245,5 10,3 22,1 38,-6 4,5 10,6 18,3 21,-5 28,1 22,19 -5,111 -22,183 -51,216 1,32 3,103 5,213 -21,483 -38,869 -51,1159 -6,80 -17,193 -32,339 -31,296 -46,444 -46,444 14,-39 27,-39 39,-1 -7,71 -10,164 -10,279 -9,108 -21,178 -35,209 -10,30 -13,47 -8,50 12,20 15,62 8,126 5,19 8,29 8,29 1,77 -18,178 -56,301 3,46 0,69 -9,71 11,3 15,11 12,25 11,116 -3,190 -42,221 13,24 11,63 -7,116 -42,68 -84,110 -125,127 -109,-31 -179,-101 -210,-212 -10,-22 -18,-53 -25,-91 7,-33 1,-53 -16,-61 13,-88 20,-132 20,-132 -4,-72 -6,-108 -6,-108 12,-16 11,-42 -4,-79 -4,-15 -4,-28 1,-38 -7,-26 -9,-49 -4,-68 1,-11 -3,-18 -11,-19 -16,-50 -24,-90 -26,-120 -27,-14 -78,-77 -154,-188 -84,-144 -158,-385 -221,-723 -26,-161 -63,-338 -109,-532 -41,-246 -64,-439 -68,-577 9,-137 12,-204 9,-201 -219,-84 -384,-196 -498,-337 -147,175 -317,291 -511,347 -243,35 -448,-42 -614,-228 -128,-165 -189,-227 -184,-187 -70,133 -183,230 -339,292 -156,52 -312,59 -468,20 -4,80 1,137 14,171 -45,26 -67,48 -69,65 -36,6 -70,30 -102,73 8,68 21,113 37,134 -22,36 -46,62 -74,79 -9,14 -1,39 25,75 13,40 -10,80 -68,120 -13,7 -19,15 -18,23 -28,58 -47,85 -59,80 -1,15 1,34 4,55 19,33 25,55 17,68 -38,0 -61,4 -70,12 -7,31 -8,65 -4,103 2,17 -12,24 -40,21 -24,11 -35,23 -34,36 -37,4 -59,14 -67,29 7,-130 9,-249 4,-358 1,-265 0,-424 -3,-476 1,-400 -1,-608 -7,-624z"/>
   <path class="fil0" d="M277 86c-32,-9 -61,-22 -85,-37 -3,-4 -63,11 -178,45 -3,5 0,10 11,12 112,45 173,57 182,38 46,-18 70,-27 71,-28 -6,13 -8,20 -8,20 -5,21 -1,36 12,44 23,17 38,17 45,2 5,-20 -1,-30 -19,-29 -18,-12 -19,-23 -3,-34 22,-3 36,-4 43,0 4,-2 3,5 -2,19 10,10 18,13 24,7 12,5 22,6 30,3 10,1 16,0 19,-4 18,9 28,8 29,-4 -7,-30 -6,-53 4,-69 -6,-11 -14,-13 -23,-5 -7,4 -10,6 -10,6 -4,-5 -8,-6 -14,-3 -6,3 -8,3 -8,-1 -4,-5 -9,-6 -15,-2 -2,4 -4,4 -6,2 -4,-9 -11,-9 -21,1 0,8 -1,12 -4,12 -34,7 -49,3 -47,-13 8,-13 16,-18 25,-15 21,-8 26,-17 15,-28 -12,-8 -25,-9 -41,-1 -23,20 -31,42 -24,67z"/>
   <path class="fil3" d="M451 71c148,-2 241,-2 277,0 13,28 16,49 9,61 -178,1 -275,0 -289,-4l-11 -23 14 -34z"/>
   <path class="fil2" d="M351 30c1,8 -4,16 -12,21 -6,3 -13,3 -22,2 -4,1 -7,3 -9,5 -2,3 -4,6 -4,11 1,2 2,5 4,7 3,2 6,2 11,3 8,0 17,-1 29,-4 0,-1 0,-2 0,-3 0,-4 0,-8 3,-11 3,-3 5,-4 8,-4 0,0 0,0 1,0 9,-2 13,2 15,7 0,0 0,1 0,2 1,-3 3,-10 11,-9 4,0 8,2 9,5 1,2 1,4 2,5 2,-1 5,-5 9,-5 5,-1 11,1 13,6 2,-3 6,-8 9,-11 9,-6 21,1 22,12l288 -1 0 10 -290 1c-2,8 -4,17 -3,27 78,32 291,21 294,14l0 18 0 3 -287 1c2,4 -1,12 -7,16 -8,5 -22,-4 -27,-11 -1,3 -2,7 -5,8 -5,1 -12,0 -15,-6 -2,5 -8,7 -12,7 -5,-1 -12,-4 -14,-9 -3,4 -11,6 -19,4l0 0c-3,-1 -6,-2 -9,-7 -3,-5 -1,-10 1,-16 1,-2 1,-4 1,-5l-36 -2c-1,0 -2,0 -2,1 -6,4 -10,9 -12,13 0,3 2,8 4,12l0 0c0,1 1,1 1,2 1,1 2,1 2,2 1,1 10,-2 18,3 16,9 15,34 -2,41 -1,1 -3,2 -4,2 -7,2 -15,1 -27,-5l0 0c-1,-1 -2,-1 -3,-2 -12,-8 -20,-18 -22,-29 -2,-10 1,-22 8,-34 -8,3 -17,7 -29,12 -16,7 -35,16 -59,28l-1 0 -1 0c-12,-3 -32,-10 -61,-19 -28,-10 -65,-22 -109,-38 -5,-2 -9,-4 -11,-6 -1,-1 -2,-3 -2,-4 0,-2 1,-3 2,-5 2,-2 5,-3 9,-5l0 0 0 0c19,-4 44,-9 73,-17 30,-8 65,-17 105,-28l1 0 1 1c13,8 27,15 41,21 13,6 26,12 40,17 0,-2 -1,-5 -1,-8 0,-5 0,-11 2,-19l0 0c3,-14 10,-26 20,-34 9,-7 21,-11 34,-9l0 0c12,1 19,4 23,9 2,3 2,6 2,10zm-1 53c1,-1 1,-5 3,-4 5,10 2,30 -1,37l0 0 0 3c0,3 -1,6 -2,9 -1,5 -3,9 -1,12 8,1 15,1 16,-2 5,-14 7,-44 5,-68 0,0 0,-2 1,-1 0,0 3,1 4,2 1,0 1,2 1,2 1,8 1,19 1,21 -1,15 -4,31 -4,49 3,1 11,8 18,1 4,-5 6,-2 6,-2 0,1 0,1 0,2 0,0 1,-1 2,-1 4,-1 10,2 12,-5 2,-12 3,-21 3,-31 0,-3 2,-2 2,1 0,10 1,21 2,35 16,5 20,0 19,-6 -3,-19 -2,-44 6,-61 0,-1 1,-1 1,-2l0 -3c-2,-6 -17,-7 -25,-2 0,0 0,0 0,0 -1,2 -4,15 -4,36 0,0 -1,-1 -1,-1 0,0 -1,1 -1,0 0,-9 -1,-19 -2,-26 -1,-13 -11,-9 -14,-9 0,0 0,0 0,0 -6,17 -6,41 -1,70 0,0 1,2 0,2 -1,0 -1,0 -2,0 -1,0 -3,1 -3,2 1,-13 -1,-55 -1,-60 0,-4 0,-8 1,-13 0,-2 -7,-7 -14,-2 0,0 -1,0 -1,0 0,1 0,2 0,4 0,-2 -6,-2 -6,-5 0,-2 -2,-4 -5,-5 -1,0 -2,0 -3,1 -1,0 -2,0 -4,1 -1,1 -2,2 -3,3 0,1 -1,2 -1,2 0,1 0,2 0,3 0,2 0,4 0,6l0 2 -2 0c-13,4 -24,6 -33,5 -9,-1 -16,-4 -19,-9l0 -1 0 0c-1,-1 -1,-3 -2,-4 0,-6 0,-18 13,-24 27,1 37,-15 23,-26 0,0 -1,-1 -2,-1 -2,0 -4,-1 -6,-1l0 0c-11,-2 -22,2 -30,8 -9,7 -15,18 -18,31 -1,7 -2,13 -1,18 0,5 1,8 2,11l2 5c1,1 2,2 1,3 -15,-3 -56,-17 -103,-41 -36,10 -67,18 -93,25 -23,6 -43,10 -60,14 -7,3 -6,6 -3,9 88,31 138,42 160,46 11,-3 48,-16 101,-37 1,1 1,4 -1,7l1 0 -4 6c-1,1 -2,2 -2,3 -8,12 -10,23 -9,33 2,10 8,18 19,26 1,1 2,1 3,2 5,3 10,5 14,5 3,0 6,0 9,-1 14,-8 13,-27 -7,-33 -5,0 -11,-3 -14,-7 -6,-8 -5,-22 2,-30 9,-10 14,-9 26,-7 5,1 15,1 22,0 10,-12 10,-19 8,-29z"/>
   <path class="fil4" d="M747 117c-9,-3 -12,0 -8,8 99,218 222,391 370,518 145,156 344,195 595,115 168,-50 329,-195 425,-359m-4 -6c-1,-1 -1,-2 -2,-2m-2 -3c-1,-1 -2,-3 -3,-4m-5 -8c-139,226 -383,386 -597,395 -71,8 -115,8 -182,-16m-25 -9c-199,-71 -386,-281 -561,-630"/>
   <path class="fil2" d="M815 284c13,20 24,39 39,60l0 0 0 0c13,871 16,1416 20,1502 12,-43 32,-33 41,-31 19,4 28,-9 18,-13 -48,-20 -43,-397 -46,-470 -15,-350 -15,-769 -6,-945l0 -3c12,-15 48,23 26,-4 -6,-7 -14,-16 -14,-17 -70,-101 -117,-199 -148,-295 0,-1 9,7 14,7 2,0 4,-1 5,-2 51,-19 94,-23 117,-2 16,48 44,98 83,149 -44,-101 -66,-152 -66,-152 -2,0 5,1 7,-2 11,-8 44,-6 97,9 0,0 1,0 1,0l0 0 0 0c3,0 8,-2 16,-8 146,-33 408,-34 788,-2l0 0c-2,3 -4,6 -5,10 -80,246 -237,401 -405,376 -63,-16 -130,-64 -201,-144 75,123 171,178 291,164 128,-16 262,-185 348,-407 -4,0 15,1 13,-3 76,-23 159,-23 250,3 0,0 0,0 0,1 19,54 53,110 101,168 -53,-112 -80,-168 -80,-168 5,-6 25,-7 59,-1l0 0c39,113 96,221 170,323 -92,-159 -142,-267 -148,-323l0 0c23,-8 61,-8 113,0 17,52 52,103 97,158 -41,-86 -84,-158 -75,-159l0 0c0,0 1,1 2,1 2,1 4,1 6,1 3,-1 5,-3 5,-4 44,-10 217,-21 456,-16 85,2 148,2 260,17 -51,202 -164,363 -282,379 -107,25 -235,-135 -337,-377 19,-11 -21,-19 -22,3 70,178 180,346 268,384 115,27 207,-8 275,-104 51,-74 113,-203 132,-284 9,2 9,-4 6,-10 9,-3 21,-3 37,1l0 0c0,3 1,6 2,9 1,2 1,4 2,6 -1,0 -19,48 -22,58 -90,266 -228,386 -416,359 -71,-18 -147,-71 -227,-159 84,136 194,197 329,182 105,-13 196,-88 278,-220 16,-26 32,-54 47,-85 10,-20 9,-62 34,-78 4,3 7,0 18,10 -1,-1 -12,-19 -12,-20 -9,-17 -12,-36 -22,-53 -1,-1 17,-1 24,-2l0 0 0 0c2,0 4,-1 3,-1 23,-9 78,-10 163,-1 22,54 93,114 146,172 -60,-112 -125,-149 -90,-168l23 0c14,-2 28,-4 43,-5 174,264 345,434 527,487 72,20 140,23 204,8 196,-50 337,-151 421,-303 -181,234 -396,322 -646,265 -107,-29 -357,-228 -484,-460 204,-19 530,-18 978,5l0 0c-11,20 -21,52 -21,52 -61,202 -162,311 -303,327 -128,25 -300,-147 -421,-390 -33,-5 -39,-1 -18,11 55,118 138,235 216,310 134,129 321,117 442,-26 48,-59 84,-119 108,-182 3,-9 4,-61 14,-90 23,-8 73,-24 95,-20l0 0c-2,2 -3,4 -4,7 -8,21 -19,74 -24,84 -107,262 -277,368 -498,341 -85,-18 -176,-71 -271,-159 101,136 231,197 392,182 160,-16 296,-131 408,-343 12,-23 37,-75 37,-106 0,-4 26,6 25,2 19,-4 64,-5 135,-2 -8,19 -16,44 -18,53 -32,146 -141,297 -343,415 -304,178 -612,35 -853,-201 113,166 335,285 510,305 320,37 614,-232 710,-519 3,-14 4,-27 5,-37 13,-2 46,-17 59,-19 68,-7 126,-10 173,-8 -15,61 -78,191 -155,265 82,-72 152,-201 173,-264 16,1 31,3 44,6 -13,24 -39,69 -45,80 -108,196 -279,382 -525,535 -115,83 -256,110 -410,105 -204,-25 -398,-128 -580,-308 -107,-117 -229,-266 -301,-384 -27,-18 -28,-14 -5,14 226,366 504,615 766,684 257,32 428,11 548,-82 130,-51 522,-419 588,-647 1,-3 9,-1 11,-2 6,1 27,0 27,2 0,1 0,1 0,2 -2,23 -2,79 -4,89 -107,379 -556,681 -938,695 -7,1 -91,6 -96,8 -7,3 45,21 72,20 3,0 6,0 9,0 -106,323 109,1363 225,1755 45,168 46,149 46,251 0,0 2,1 7,2 6,-77 10,-63 -31,-266 -143,-418 -339,-1588 -178,-1748 64,-7 130,-19 201,-38 -29,36 38,919 56,1023 30,262 76,534 100,740 30,201 31,362 15,432 -3,0 -2,27 5,-4 11,-45 32,-156 31,-173 -2,-99 -13,-231 -34,-396 -118,-598 -108,-948 -139,-1453 -3,-54 11,-136 18,-183 25,-8 50,-17 75,-28 -73,569 72,1057 68,1450 54,422 -48,-727 -51,-862 0,-480 -8,-504 36,-612 43,-21 85,-45 126,-72 -121,413 -48,764 -46,1583 3,122 10,296 3,424 -2,47 -20,229 -43,339 0,0 37,-11 64,-376 -20,-814 -58,-1717 84,-2015l0 0c28,-21 56,-44 82,-67 -39,301 -63,48 -109,756 -6,380 22,684 -20,876 6,1 18,-11 37,-38 -17,-763 39,-1050 126,-1626 36,-36 69,-73 98,-111 -6,268 -152,881 -148,1592 0,74 -5,244 -23,441 -17,182 -61,356 -77,435 23,-28 46,-81 70,-160 -4,-34 20,-161 39,-272 8,-722 73,-1039 155,-2059 13,-18 24,-37 35,-55 -21,809 -49,1470 -116,2008 -4,53 -15,120 -35,200 8,-17 27,-60 57,-129 1,13 3,28 3,31 0,41 0,80 0,117 -2,174 -23,309 -46,385 -1,2 -1,4 -2,6 -1,2 -1,4 -2,6 0,0 0,0 0,0 -48,151 -142,314 -202,366 24,0 77,-63 149,-201 25,-48 39,-99 55,-150 1,-4 3,-9 4,-13 9,19 3,66 -3,87 -16,79 -128,280 -192,335 -4,4 -56,31 -44,36 7,3 42,-13 74,-45 60,-57 105,-147 176,-275 -24,128 -86,240 -170,336 -36,41 -91,81 -135,90 -11,9 -12,14 -3,14 56,1 124,-58 156,-97 56,-68 101,-170 154,-286 -2,58 -21,181 -74,259 -48,71 -177,206 -267,211 -21,1 -41,-3 -48,-57 -6,17 -7,33 -2,47 36,121 277,-105 327,-162 -8,83 -104,198 -161,240 -59,43 -119,54 -163,-16 -21,-33 -8,7 -9,5 78,162 295,-62 349,-184 0,-2 1,-3 1,-5 -2,19 -8,115 -8,118 -11,111 -148,243 -224,242 -24,0 -49,-18 -64,-11 -11,5 7,14 52,31 19,7 42,-9 67,-23 65,-41 112,-76 140,-103 4,32 0,59 -11,81 -67,85 -64,129 -165,131l0 0c-24,-3 -166,-138 -160,-189l0 0c22,15 55,23 104,19 65,-5 211,-114 218,-175 -39,50 -57,73 -145,132 -35,24 -119,55 -167,6 -19,-19 -34,-58 -40,-103 -1,-3 -2,-8 -3,-12 8,4 17,9 28,15 -9,-15 -14,-23 -14,-23 -60,-43 -12,-9 -9,-157l0 0c13,24 32,43 57,55 16,7 58,16 51,8 -2,-2 -8,-4 -19,-7 -22,-4 -43,-18 -64,-42 -9,-10 -21,-26 -24,-117 28,46 77,74 133,41 11,-7 72,-25 53,-26 -12,-1 -39,14 -58,16 -81,7 -126,-35 -136,-121 3,9 6,15 6,16 28,53 77,77 142,77 7,-5 -1,-3 -7,-5 -88,-24 -117,-41 -146,-141 -1,0 -2,-18 -4,-29 0,0 0,0 0,1 26,58 65,96 113,122 57,27 125,-15 205,-128 99,-164 146,-311 138,-441 -2,71 -20,154 -54,250 -67,170 -143,270 -227,298 -48,19 -90,5 -124,-42 -16,-18 -31,-40 -44,-65 -8,-15 -14,-32 -20,-50 12,13 35,31 51,40 21,11 36,14 47,10 -37,-6 -69,-26 -95,-60 -3,-3 -6,-5 -8,-7 -3,-11 -6,-21 -9,-30 20,22 45,43 75,65 39,17 79,17 119,2 108,-53 192,-156 246,-313 18,-53 39,-162 -5,-3 -110,229 -217,335 -321,316 -44,-11 -79,-42 -105,-93 263,141 474,-368 494,-553 14,-87 -8,4 -15,30 -54,191 -95,253 -166,358 -57,84 -119,138 -185,162 -9,1 -18,2 -26,2 -16,-21 -25,-67 -6,-134 6,-19 4,-20 -5,-4 -27,67 -31,113 -14,137 -26,-3 -50,-11 -73,-23 68,-276 67,-219 25,-551 -96,-488 -129,-807 -154,-1182 -9,-139 -65,-282 -12,-431 9,-24 1,-29 -17,10 -9,20 -23,43 -28,65 -35,151 53,791 82,961 30,262 87,512 111,718 28,185 4,330 -11,407 -110,-61 -188,-215 -224,-321 -151,-443 -381,-1445 -328,-1878 28,6 56,10 85,13 -16,332 70,828 101,974 28,143 213,1105 332,1172 -189,-297 -501,-1981 -380,-2143 26,0 51,0 77,-2 -33,1 -55,-15 -88,-18 -285,-33 -560,-226 -811,-587 -3,-5 -6,-9 -9,-14l0 1c-25,-36 -49,-74 -73,-113 0,1 -9,-8 -12,-5 -2,2 3,23 4,23 23,41 46,80 71,117 -48,93 -124,182 -233,258 -255,178 -451,78 -654,-158 117,205 275,299 473,282 192,-65 333,-188 423,-367 14,21 28,42 42,62 -126,195 -278,308 -455,339 -165,41 -355,-60 -569,-304 -97,-118 -146,-177 -146,-177 258,381 440,494 650,523 214,-18 392,-138 534,-361 13,18 26,35 40,52 -72,87 -137,182 -239,258 -96,83 -233,106 -362,101 -171,-25 -333,-128 -486,-308 -89,-117 -164,-235 -225,-352 -22,-18 -24,-14 -4,14 190,366 394,584 614,654 216,32 374,2 474,-91 100,-87 185,-169 254,-246 13,16 27,32 41,47 -160,191 -370,338 -575,347 -309,34 -616,-249 -877,-751 0,-1 0,-1 -1,-1 -4,-8 -8,-16 -12,-24 -2,-1 14,2 15,-2 3,-8 -33,-26 -27,1 1,4 2,7 3,9 2,5 4,9 6,14l0 0c0,2 -27,32 -28,34 -25,130 -105,264 -253,369 -225,160 -399,71 -578,-143 98,174 227,259 387,256 198,-4 396,-257 459,-474 1,-4 14,-23 18,-30 27,57 58,114 90,170 -19,143 -276,316 -309,340 -85,75 -185,110 -299,106 -151,-23 -295,-116 -430,-278 -79,-106 -145,-212 -199,-318 -20,-16 -21,-12 -4,13 168,331 349,528 543,590 191,29 330,2 419,-82 133,-118 250,-229 299,-336 8,14 16,27 25,40 -25,82 -256,314 -306,326 42,-3 299,-196 324,-297 7,11 14,21 21,32l0 0c-113,215 -341,363 -585,362 -43,0 -84,-1 -124,-6 -2,-1 -3,-1 -4,-1 -42,-6 -83,-16 -126,-35 -140,-61 -260,-173 -360,-314 -10,-14 -38,-10 -35,-7 36,49 78,99 122,144 5,471 16,767 32,865 0,3 5,51 13,43 3,-3 17,-14 22,-24 0,0 -4,-23 -4,-26 -33,-235 -48,-510 -46,-825 0,-6 0,-12 -1,-17 78,79 150,130 247,173 10,4 20,8 30,12 1,97 9,145 25,166l0 0c-23,1 -40,15 -48,33 -5,-45 -7,-85 -7,-172 0,-27 -10,-29 -10,2 -1,68 -10,133 -5,189 0,2 -1,5 -3,8 -16,-4 -40,1 -63,33 -35,50 -16,-30 -18,-95 0,-7 -7,-208 -17,-211 -10,-4 -9,29 -9,34 5,175 6,268 5,313 0,9 -1,20 -1,33 0,1 1,2 1,2 11,25 26,85 32,94 9,14 -20,49 -45,69 -5,1 -10,1 -13,-5 -43,-93 -48,-390 -34,-600 1,-17 -23,-27 -16,-19 9,10 2,27 1,31 -18,270 4,552 30,608 8,41 19,70 32,87 6,35 -19,72 -75,111 -18,0 -19,6 -4,19 0,0 1,0 1,0 -9,14 -33,55 -43,61 -2,2 -4,-1 -5,-13 -27,-190 -44,-482 -47,-949 0,-10 6,-91 -11,-72 -13,303 15,904 42,1070 4,26 30,88 20,101 -5,6 -14,8 -25,6 -10,0 -17,1 -23,2 -4,0 -9,1 -14,3 -30,-415 -35,-806 -34,-1201 0,-18 -15,-60 -25,-54 3,759 48,1306 48,1376 -6,11 -17,14 -42,13 -13,0 -25,15 -28,35l0 0c-9,-8 -30,1 -39,6 -12,-799 -15,-1344 -23,-1577zm-35 -60c0,37 23,102 23,138 3,958 5,1492 4,1544 10,-25 47,-44 73,-44 0,-2 1,-3 1,-4 26,-41 45,-31 61,-34 2,0 27,-4 21,-28 -6,-24 -8,-63 -3,-82 4,-15 16,-18 27,-16 3,1 6,1 9,2 19,4 31,3 38,-3 24,-22 -31,-94 -24,-120 1,-5 7,4 13,-7 20,-31 51,-69 46,-95 58,-19 89,-66 93,-141 -8,0 -18,-16 -30,-47 12,10 18,-3 22,-31 9,-13 24,-32 47,-53 20,-19 5,-20 2,-24 -13,-17 -22,-52 -30,-113 22,-36 50,-63 80,-74 4,-1 16,8 20,7 8,-2 8,-9 3,-15 16,-33 36,-54 60,-67 -5,-22 -10,-56 -13,-101 -2,-32 10,-58 10,-61 25,8 51,15 77,20 0,14 1,35 2,61 6,120 5,247 24,365 67,419 124,694 118,1355 77,-300 -12,-701 -120,-1776l0 0c38,7 76,11 113,13 80,-2 160,-19 236,-49 5,38 22,143 24,164 95,799 170,1938 225,3468l-1 0c-74,34 -182,39 -324,15 -21,-4 -40,-8 -57,-11 -24,-77 -69,-617 -113,-1052 -27,-270 -28,-113 -16,31 28,337 52,698 15,1018 -63,27 -119,33 -166,19 -6,-4 -12,-8 -19,-12 -39,-1018 -140,-2039 -189,-3049l-18 77c139,1739 158,2287 132,2954 -39,7 -74,14 -107,20 -20,-335 -79,-1290 -150,-2620 -27,-62 -16,-62 -35,30 75,566 152,1406 156,2594 -62,10 -115,16 -162,11 -97,-30 -142,-64 -138,-101 58,-771 80,-1595 64,-2470 -12,-2 -22,11 -29,32 -9,1575 -69,2389 -111,2465 23,57 125,96 237,94 5,3 7,3 3,0 77,6 167,-4 270,-30 37,-7 64,-5 79,5 47,26 107,24 181,-8 59,-14 136,-6 229,22 99,16 191,7 276,-27 18,4 36,7 53,9l0 0 0 0c128,21 211,15 250,-16 41,-19 130,-14 269,15 71,15 152,6 243,-29 19,2 31,11 36,25 13,28 113,24 301,-12 90,-19 115,-12 75,20 -29,36 67,29 288,-19 94,-23 158,-26 190,-9 6,5 12,11 19,18 83,34 175,25 276,-26 60,-9 110,-8 151,4 67,34 207,54 212,29 31,32 97,38 200,19 -7,-13 -13,-29 -19,-47 102,44 176,57 204,-20 -8,-17 -31,-152 -50,-337l0 0c54,8 86,-59 156,-150 12,-51 14,-84 5,-102 4,-4 7,-8 10,-11 57,-69 35,-159 23,-240l0 0c3,-19 3,-50 0,-67 45,-104 57,-246 58,-298l0 0c4,-16 1,-28 -9,-36 9,-82 5,-129 -12,-141l0 0 0 0c35,-77 53,-206 54,-383 0,-43 1,-115 -2,-169 0,-6 -1,-13 -2,-17 0,-12 -7,-21 -22,-27 6,-51 27,-239 64,-562 21,-152 43,-657 68,-1516 23,-55 34,-109 30,-160 -1,-13 0,-33 12,-63 1,-3 15,-9 15,-10 0,-3 -19,-17 -22,-17 -15,-1 -32,6 -38,9 -3,-11 -13,-13 -22,-12 -16,1 -15,0 -20,10 -87,-15 -276,-34 -275,2 -6,-4 -23,-6 -31,2l0 0c-36,-15 -145,-36 -146,0l0 0c-12,-7 -37,-14 -51,-7 -18,-8 -43,-6 -76,5l0 0c-8,-4 -26,-8 -27,-8 -622,-22 -1052,-37 -1083,5 0,0 0,1 -1,1 -2,-1 -5,-2 -7,-3 -23,-7 -34,-4 -40,0 -68,-11 -130,-11 -186,0l0 0c-2,-1 -5,-2 -8,-3 -5,-1 -9,-1 -11,0l0 0c-23,-12 -39,-12 -49,1 -166,-37 -459,-23 -665,-4 -37,3 -61,11 -93,14 -7,-2 -17,-3 -22,0l0 0c-67,-8 -110,-8 -128,1l0 0c-36,-16 -78,-30 -87,-2 -124,-25 -274,-47 -267,-1 -5,0 -11,1 -16,4l0 0c-459,-39 -766,-66 -813,8 -51,-17 -87,-19 -105,-6 -1,0 -2,0 -4,1 -47,-16 -106,-54 -136,-3 -3,-3 -7,-6 -13,-8 -12,-4 -33,-2 -37,6 -1,3 -1,13 3,23 27,69 28,80 70,149m232 131c-86,-107 -129,-160 -129,-160 228,344 420,502 575,473 223,-19 383,-139 516,-413 18,-36 24,-73 -11,-2 -120,239 -261,344 -448,377 -146,37 -314,-54 -503,-275zm127 -299c-24,-4 -29,-1 -13,9 62,153 177,301 255,334 102,23 183,-7 243,-89 57,-81 116,-314 46,-123 -46,125 -120,193 -208,205 -95,22 -232,-127 -322,-335zm275 197c-52,11 -105,-52 -161,-188 15,105 57,173 125,203 92,12 150,-38 174,-151 -35,84 -81,130 -139,137zm20 71c-57,-2 -112,-44 -165,-125 47,99 109,148 184,146 93,-12 144,-93 170,-196 -67,129 -130,188 -190,175zm379 -85c-85,187 -315,323 -491,263 -137,-49 -225,-175 -322,-386 141,272 252,335 335,363 185,51 344,-28 478,-239zm-367 -140c-27,10 -53,5 -78,-14 28,43 54,48 78,14zm12 98c-62,3 -95,-22 -98,-74 36,59 76,75 119,47 27,-24 42,-51 46,-81 4,63 -18,99 -67,108zm354 534c3,42 21,136 23,166 10,212 58,653 125,1329 31,676 95,1399 132,2160 23,3 49,6 79,9 77,1 129,-8 157,-27 10,-6 23,-10 38,-13l0 0c7,-451 -14,-956 -16,-1425 -3,-453 13,-872 1,-1182 -3,-84 11,-147 17,-7 8,216 1,428 8,617 51,1284 69,1943 91,1997l0 0c39,4 86,13 139,26 66,8 144,1 234,-22 52,-1658 81,-2704 31,-3490 -157,16 -325,-32 -492,-170 -17,-14 -33,-29 -49,-45 1,14 2,31 3,46 35,214 -61,424 -42,402 7,-8 62,-351 -2,-490 -47,-50 -93,-108 -137,-170l0 0c-91,135 -209,233 -339,291zm2098 112c-48,-13 -93,-30 -136,-53 1,4 1,8 2,12 -61,2929 -23,3481 -14,3569 4,3 8,7 12,12 69,25 153,15 252,-32 4,-1 8,-2 12,-3 116,-933 138,-897 152,-1569 1,-61 2,-120 2,-178 0,-22 1,-40 4,-47 -152,-516 -323,-1396 -287,-1710zm315 1803c11,89 -14,176 -18,261 -69,1357 -107,1327 -94,1431 39,0 73,10 104,29 35,17 108,22 146,16 -23,-84 -20,-215 8,-392 20,-54 13,-31 8,25 -16,198 4,302 32,356 83,29 112,-4 133,-28 -41,-209 -26,-377 -2,-574l0 0c-28,-33 -25,-84 -23,-124l0 0c-43,-27 -12,-37 5,-179l0 -1 0 -1c-2,-5 -3,-7 -2,-7 -11,-34 -10,-71 1,-101 -2,-4 -3,-9 -5,-13 -7,-27 -7,-62 -3,-88 -2,-5 -3,-11 -4,-15 -1,-7 0,-31 1,-44 0,-1 0,-1 0,-2 -13,7 -36,-82 -38,-109 -9,-13 -17,-25 -22,-38 -32,-27 -65,-63 -98,-112 -34,-30 -78,-137 -127,-289zm326 1157c-12,244 -4,421 22,531l2 -1c102,28 168,50 183,-1 -19,-132 -46,-269 -63,-343l0 0c-20,-13 -42,-34 -69,-63 -32,-34 -63,-77 -74,-124zm-1674 556c10,4 17,11 22,21 48,20 164,13 347,-21 65,-1788 102,-3210 94,-3701 0,-17 -1,-28 -2,-34 34,-34 67,-70 98,-108 68,72 141,137 221,193 31,27 64,51 100,71 19,461 -46,1744 -93,3570 -86,11 -208,31 -365,61 -34,2 -36,-8 -7,-31 0,-2 0,-3 0,-5l0 0c56,-760 64,-2098 31,-3736 -125,118 -270,202 -427,224 30,2018 37,3071 -19,3496zm369 0c14,-2 25,-2 32,0 -8,-3 -19,-3 -32,0zm172 -4300l1 0 0 0c0,0 -1,0 -1,0zm755 48c-34,26 -112,4 -140,-29 31,54 109,77 140,29zm-36 123c-72,3 -110,-24 -114,-82 42,66 88,83 138,52 31,-27 49,-57 54,-90 5,70 -21,109 -78,120zm-36 59c-67,12 -135,-57 -206,-208 19,116 73,191 161,225 118,13 193,-42 223,-168 -44,93 -104,144 -178,152zm8 84c-72,-2 -141,-49 -207,-138 59,110 136,163 231,161 117,-14 188,-86 213,-217 -84,143 -163,208 -238,194zm-1308 -268c-40,11 -78,6 -115,-16 41,48 80,53 115,16zm-11 88c-81,3 -123,-24 -128,-82 47,66 99,83 154,52 35,-27 55,-57 60,-90 6,70 -23,109 -87,120zm-55 89c-57,12 -117,-57 -178,-209 17,116 63,191 139,225 102,13 166,-42 193,-167 -38,93 -89,144 -154,151zm16 85c-63,-3 -123,-49 -180,-138 51,110 118,163 201,161 102,-13 163,-86 185,-217 -73,143 -142,208 -207,194zm425 -118c-70,152 -188,253 -352,303 -53,15 -110,12 -171,-8 -155,-54 -287,-197 -397,-431 158,237 285,371 379,401 209,57 390,-31 541,-265zm356 126c-116,-118 -174,-177 -174,-177 308,381 542,511 776,523 315,-22 565,-201 750,-536 26,-28 41,-55 44,-79 -167,262 -390,525 -717,573 -197,41 -424,-60 -679,-304zm1556 -152c3,-33 5,-49 5,-49 -106,157 -193,263 -259,317 82,-51 167,-140 254,-268z"/>
  </g>
 </g>
</svg>
