<?xml version="1.0" encoding="utf-8"?>
<!-- Generator: Adobe Illustrator 15.0.0, SVG Export Plug-In . SVG Version: 6.00 Build 0)  -->
<!DOCTYPE svg PUBLIC "-//W3C//DTD SVG 1.1//EN" "http://www.w3.org/Graphics/SVG/1.1/DTD/svg11.dtd">
<svg version="1.1" id="Слой_1" xmlns="http://www.w3.org/2000/svg" xmlns:xlink="http://www.w3.org/1999/xlink" x="0px" y="0px"
	 width="639px" height="520px" viewBox="0 0 639 520" enable-background="new 0 0 639 520" xml:space="preserve">
<g>
	<g>
		<path opacity="0.33" fill-rule="evenodd" clip-rule="evenodd" fill="#FFFFFF" d="M69.36523,378.04395
			c-4.17529,70.23145-5.8584,113.24512-5.05225,129.0332c18.5415,8.37695,39.89746,9.98047,64.07227,4.81152
			c3.59961,0.19629,6.54541,1.54883,8.84766,4.05859c10.20166,0.94141,18.08838-0.57129,23.66602-4.55664
			c10.28906,2.55469,18.33447,4.06738,24.13428,4.54492c14.46387-0.25,23.97266-2.20801,28.53076-5.86426
			c7.15137,6.19531,17.18945,6.65527,30.11377,1.37598c6.32373-3.8623,11.47314-4.3584,15.45117-1.49316
			c14.3374,6.32031,27.61572,5.99707,39.84131-0.96777c3.47607-0.54199,5.9585-0.22363,7.4458,0.95605
			c2.48926,2.4668,3.87402,3.95801,4.15967,4.4834c14.42529,0.83594,27.88818-0.86914,40.38721-5.11328
			c1.64258,0.14844,2.32813,0.85156,2.05469,2.10742c-2.65625,3.09473-2.95117,4.75684-0.88867,4.98828
			c22.23828-4.54492,37.35938-7.24902,45.37012-8.12012c2.65625,0.46289,5.45313,1.90332,8.37988,4.32324
			c11.65332,4.90918,22.70898,3.39648,33.16113-4.53711c5.50098-2.30859,9.17676-1.66016,11.01758,1.93457
			c21.74902,6.82324,37.99707,8.5459,48.73535,5.17676c11.37793-3.7793,19.18555-4.66309,23.42383-2.65723
			c10.74316,4.87109,17.32715,5.25195,19.76074,1.13477c-0.06934-3.23242,1.66211-4.18848,5.19434-2.86914
			c24.04785,5.04102,34.9209,3.0752,32.6084-5.90137c-6.40039-21.6123-9.03613-36.20801-7.90332-43.7832
			c-0.90723-26.93262-0.01172-45.4043,2.6875-55.41504c-1.43066-33.84375-2.25-62.59277-2.45996-86.25391
			c-1.61914-52.50586-2.02246-82.27002-1.20605-89.30029c0.37891-40.24072-0.67871-66.25977-3.17578-78.05127
			c-3.17383-37.52539-5.43262-61.87354-6.79785-73.04004c3.01465-28.66309,2.90137-44.24854-0.33105-46.75488
			c-2.74609,1.36768-4.66406,2.80518-5.75879,4.30518c-6.53027-1.87256-10.6709-3.08691-12.4248-3.65088
			c-5.92676,2.25146-9.45801,3.37012-10.58691,3.35254c-9.9082-2.62207-15.25586-3.95508-16.03809-3.99512
			c-9.18457,3.29395-14.93555,4.85889-17.26563,4.69336c-2.71582,0.28711-4.70117-0.8916-5.94824-3.53906
			c-2.9707-2.87012-5.6416-3.30957-8.0166-1.32373c-0.30469,1.05762-0.8418,1.75195-1.61816,2.08203
			c-4.67285,2.55566-8.76074,2.55957-12.25977,0.00391c-4.89258-1.95703-8.2207-1.56885-9.99316,1.1582
			c-4.91895,1.54248-9.6875,0.99316-14.30176-1.63379c-3.36621-1.43311-5.98145-1.50195-7.85938-0.20605
			c-3.48926,2.39355-6.12793,3.42236-7.92188,3.0874c-6.10547-4.41064-10.22656-5.17822-12.36035-2.2959
			c-4.18555,3.47412-10.10156,2.59863-17.75391-2.61523c-3.06836-0.89648-5.21289-0.05273-6.44043,2.52588
			c-6.73242-2.94629-13.13379-3.33691-19.19824-1.17822c-5.87695,4.93604-15.67578,4.94043-29.38965,0.00781
			c-2.4541,0.19385-5.35938,1.12598-8.71387,2.78857c-4.33301-0.8833-7.75586-1.89697-10.27051-3.04688
			c-2.52246-0.46826-5.83594,0.17383-9.94824,1.9126c-9.54492-1.40332-15.04297-1.9165-16.50244-1.53271
			c-1.85205-0.75098-3.12402-0.74316-3.81152,0.03174c-7.12939,2.05469-11.57861,2.01025-13.34814-0.13721
			c-3.33447-1.15332-5.90918-1.21045-7.7251-0.16113c-6.18799,3.89404-14.25586,3.99561-24.21045,0.30615
			c-7.83008-2.66357-14.35889-2.94971-19.59424-0.85889c-5.8584,1.5415-12.06299,1.54541-18.61621,0.01221
			c-7.42822,2.54248-12.51563,3.87793-15.26221,3.99902c-7.32422-1.80322-12.34521-3.16797-15.06104-4.0957
			c-9.36133,3.64014-17.21729,4.14404-23.57568,1.51709c-6.65039,0.91162-11.9292,0.72607-15.83594-0.55713
			c-1.97803-0.78662-4.49658-0.43604-7.56152,1.05762c-9.79248,3.97119-17.41992,3.81348-22.88135-0.47705
			c-1.66602-2.00488-4.86621-2.19482-9.59668-0.57275c-4.78418,1.75244-9.1748,1.42871-13.17676-0.96777
			c-1.18896,0.62109-2.31934,2.9458-3.39258,6.96484c-1.4624,23.23047-2.68262,40.16064-3.66992,50.78711
			c-3.94922,23.00391-4.03467,38.61426-0.25244,46.83887c1.86328,19.2627,0.64453,55.99316-3.65088,110.18604
			C74.57666,313.91699,71.43555,357.57422,69.36523,378.04395z"/>
		<path fill-rule="evenodd" clip-rule="evenodd" d="M522.2168,512.52832c5.01367,5.14551-70.31543,10.9248-77.55078-2.62207
			c-3.44727-1.03809-12.9834,4.31738-16.78418,6.1582c-14.04492,6.77637-15.88965-0.15234-26.13672-4.6582
			c-3.48242-1.5293-9.97949-0.93262-18.5127,1.20508c-23.63672,4.25977-38.11719,8.28906-33.83594,0.81836
			c4.44043-3.67578,3.06836-2.55762-7.01465-0.38086c-21.07813,4.18945-31.42578,8.6582-34.45703-0.14941
			c-0.51563-1.66602-1.86035-2.63574-4.04004-2.91406c-10.18213,3.99316-20.85059,8.67773-28.84961,6.91113
			c-15.55176-3.37109-24.02051-7.51172-28.57275-5.27637c-4.9873,4.08203-16.9751,6.26758-34.65186,2.68457
			c-9.50049,4.0166-20.33008,4.51367-31.43945,2.61523c-10.53271-3.25098-17.27393-3.53223-23.90234-1.96191
			c-8.34863,3.63281-15.67188,4.25879-20.896,1.20898c-1.68311-1.19727-4.75049-3.66992-8.9585-2.89453
			c-15.68555,4.05762-28.68164,4.74707-38.98291,2.0625c-0.49902-0.12988-1.56201,0.06836-1.52734-0.36914l0.13916-1.82324
			c0.10303-1.34766,4.67334,0.9209,6.38086,1.28711c9.3457,1.07227,20.64014-1.61035,36.19336-4.49512
			c2.45898-0.20215,6.021,2.27637,8.36426,3.875c5.31885,1.57422,11.52686,0.82617,18.62207-2.24512
			c1.86865-1.27734,8.27539-0.75098,19.20996,1.56055c15.84912,2.77539,27.9082-0.88281,36.26074-4.80566
			c3.87354,0.83594,9.19873,4.6582,15.89111,5.30371c8.58887,0.14355,15.26465-4.00098,18.44727-6.23047
			c4.92871-2.98242,14.54492,0.56934,30.42725,4.46289c7.39453,0.94336,16.21631-2.74121,26.2959-5.41016
			c3.354-0.55762,5.47607,3.14941,6.5498,5.47656c5.4082,2.30176,18.39551,0.47656,38.98242-3.41602
			c3.78418-0.64551,6.7998,0.62988,6.41211,2.91406c-3.26367,2.57422-1.1543,3.09863,2.66406,2.87695
			c19.07715-3.7207,30.36133-6.21094,40.14355-7.33789c3.64355-0.70215,5.83984,0.72461,8.79883,4.06055
			c7.70801,2.89453,19.91211,0.2666,31.08301-5.06738c8.44434-2.56836,9.57617-2.85547,15.41211,0.91504
			c3.75879,1.90723,17.41992,6.91113,28.81152,7.48438c14.58691,0.73242,31.25781-5.31836,38.46875-5.88965
			C522.18262,508.25391,521.8623,512.16113,522.2168,512.52832z"/>
		<path fill-rule="evenodd" clip-rule="evenodd" d="M116.604,251.35693c0.06055,0.82764-2.20313,2.02979-2.14355,2.85791
			C122.4668,365.6123,128.5166,464.39453,126.65576,512.25c1.25879-0.83984,6.77393-0.05078,8.42432,0.15527
			C132.36816,452.37891,123.75977,345.06055,116.604,251.35693z"/>
		<path fill-rule="evenodd" clip-rule="evenodd" d="M168.86572,512.66016c-3.65771-1.17969-8.0127-1.54883-13.06201-1.0957
			c4.05566-36.93848,1.40088-78.52734-1.76465-117.37695c-1.35449-16.61621-1.21777-34.62695,1.84131-3.56445
			C161.00391,442.66113,166.29932,507.69922,168.86572,512.66016z"/>
		<path fill-rule="evenodd" clip-rule="evenodd" d="M177.07422,40.8208c0.31299,2.59912,8.68652,68.26221,8.99609,70.92236
			c10.71289,92.18896,19.21484,223.85645,25.34033,400.54785c1.37402,0.04883,5.9126,0.24707,6.95654,1.17188
			c-4.16602-87.95801-11.42139-171.625-14.91699-249.78418c-7.53857-77.9082-12.98926-128.71826-14.09863-153.19189
			c-0.19629-4.36621-7.94043-71.1626-8.42822-72.34131l-1.33594-3.22119C177.79932,37.78955,176.79199,37.93994,177.07422,40.8208z"
			/>
		<path fill-rule="evenodd" clip-rule="evenodd" d="M137.3623,45.13965c-3.00098-5.5376-2.85303-1.94189-2.40527,6.5542
			c0.72217,13.79443,7.4043,80.41748,9.51025,94.00977c7.50049,48.31641,13.88721,80.00537,13.24316,156.12842
			C166.34717,267.25195,149.51758,169.05127,137.3623,45.13965z"/>
		<path fill-rule="evenodd" clip-rule="evenodd" d="M445.30664,508.88281c-3.48145-2.41992,0.19043-1.50391-8.63281-0.50098
			c12.97168-107.77734,15.49512-103.60352,17.07617-181.06738c0.14648-7.00195,0.21875-13.84961,0.26953-20.53516
			c0.05078-6.35254,0.67969-9.875,3.14258,2.45508c2.22656,11.14648-1.07129,22.2207-1.59473,32.85449
			C447.4668,506.23926,443.20117,494.33105,445.30664,508.88281z"/>
		<path fill-rule="evenodd" clip-rule="evenodd" d="M305.79395,36.75342c-0.88184-2.39355-1.70068-1.34033-1.53711,1.29053
			c2.64404,42.96582,2.32031,109.04785,2.02979,184.77588c-0.32666,85.80811,1.68701,193.84912-6.99561,286.73584
			c1.79346-0.02148,6.14014-0.08691,7.125,0.38672c6.1499-47.58887,4.16846-220.83105,0.86719-446.83203
			C307.19824,57.12549,305.88379,42.80713,305.79395,36.75342z"/>
		<path fill-rule="evenodd" clip-rule="evenodd" d="M260.41016,508.91797c-3.70752,0.84375-7.47852,0.86328-11.32129,0.05859
			c0.7251-52-1.55322-110.20898-1.86377-164.26758c-0.30078-52.21191,1.39795-100.54004,0.09229-136.24902
			c-0.35303-9.64551,1.26563-16.89355,1.86865-0.82666c0.93018,24.92871,0.09912,49.29736,0.9541,71.13818
			C255.9585,426.81836,257.96777,502.66895,260.41016,508.91797z"/>
		<path fill-rule="evenodd" clip-rule="evenodd" d="M353.01758,511.41992c-0.54883-2.04297-2.26367-2.66895-5.14941-1.88574
			c12.06641-196.42188,17.00977-341.77051,12.54297-405.44824c-0.67578-9.61328,2.69141-58.01855,2.30469-63.31299
			C366.62988,231.35498,359.30371,423.20898,353.01758,511.41992z"/>
		<path fill-rule="evenodd" clip-rule="evenodd" d="M405.87891,512.61133c-4.0332-4.27832-7.01563-5.63281-11.14844-3.24609
			c2.53125-103.07031,7.16406-196.54785,7.56445-276.63428c0.30566-61.01221-3.27344-115.98389-3.68164-151.32178
			c-0.15332-13.41504,1.20801-37.06934,0.89551-44.51904c0.74316-2.08203,0.98535-5.67383,2.0791,2.87354
			c-0.16992,63.24902,0.60938,23.31543,0.52734,25.64404c-1.15723,33.44434,0.69629,70.31104,0.58691,97.84375
			c-0.09375,23.50439,3.03711,46.66162,3.10254,65.93701c0.1582,46.91992-2.4375,81.38574-1.98145,118.37012
			c0.4209,34.37109-3.8125,75.90234-3.53418,98.28711C401.03516,505.7207,405.87891,512.61133,405.87891,512.61133z"/>
		<path fill-rule="evenodd" clip-rule="evenodd" d="M245.18848,87.57178c-0.28027-4.82227-5.52295-46.54053-6.25537-46.7666
			l-3.10303-0.93604c-0.38135-0.11328-0.42627,0.60498-0.65088,0.92822c9.4043,5.73047,8.83936,78.97119,5.28223,93.12158
			C239.66992,137.05859,249.10938,112.21826,245.18848,87.57178z"/>
		<path fill-rule="evenodd" clip-rule="evenodd" d="M83.29688,51.68604c-0.10742,20.10107-4.59863,42.43262-5.06885,64.24902
			c-0.3252,15.07813,3.4624,29.32373,2.99805,44.83447c-2.37842,79.32275-11.68555,173.52246-15.65674,238.4707
			c-4.18506,68.47461-3.03516,105.70898-5.00244,109.33984c8.72363,11.7666,39.88281,6.41895,52.52197,6.16797
			c1.12207,0.75977-16.41162-0.00781-19.7876-2.28809c-10.84229-3.4541-26.19189-4.11523-25.64258-8.33691
			c1.74072-23.60742,0.77637-62.22754,2.86475-104.65332c3.45313-70.16211,12.86865-157.58594,14.89355-231.50488
			c0.56396-20.59424-1.80762-36.12012-1.57715-54.17627c0.25537-19.88818,3.0791-41.95605,2.84277-57.05029
			c-0.14111-9.1123,1.61621-18.94434,2.52637-23.71387c0.09766-0.50928,3.92871-0.26709,4.00146-0.6377
			c0.17383-0.91162-2.69189-4.89209-5.07031-0.94482C86.77002,33.72607,84.10352,38.55713,83.29688,51.68604z"/>
		<path fill-rule="evenodd" clip-rule="evenodd" d="M539.25293,446.0791c1.11914-0.87109,1.51367,0.36328,1.18262,3.70117
			c-1.66699,34.71289,0.21777,57.05957,5.65234,67.04395c-13.60254,2.49609-21.56152,1.06348-23.87109-4.2959
			c0.23242-1.9541,1.03809-2.01758,2.42969-0.17871c9.30371,3.16211,12.53906-0.43555,14.89355-3.06152
			C534.98438,486.24414,536.61914,467.74414,539.25293,446.0791z"/>
		<path fill-rule="evenodd" clip-rule="evenodd" d="M520.15234,470.42676c2.26465-5.93066,1.49609-3.38867,0.87109,2.78125
			c-1.83105,21.77637,0.43945,33.21582,3.62305,39.1416c-1.68652,2.12793-3.48535,2.54785-5.40332,1.26172
			C516.67188,504.34961,516.97461,489.95703,520.15234,470.42676z"/>
		<path fill-rule="evenodd" clip-rule="evenodd" d="M569.43848,469.90332c2.01563-2.99121,3.46973-6.83398,4.58301-2.50293
			c2.16699,20.40918,10.36816,40.6123,11.26367,42.46875c-3.23242,8.56836-29.9082,6.62695-41.33887,1.8291
			c-5.41211-1.53418-4.01855-2.23926-0.76758-3.58887c11.43848,3.06543,31.43262,5.53027,33.11426-0.1084
			C574.20801,493.45996,571.41016,478.00781,569.43848,469.90332z"/>
		<path fill-rule="evenodd" clip-rule="evenodd" d="M92.92285,34.04102c-3.09375-1.23486-3.09375-2.11865-0.00244-2.65137
			c4.23486,2.36084,9.33643,2.34473,15.30176-0.05273c2.31641-1.00977,3.62793-0.80322,3.93457,0.62988
			c8.62451,4.4917,17.97705,4.53613,28.06445,0.12939c1.67773-1.47803,2.75098-1.59863,3.21924-0.37939
			c3.78125,2.39307,6.98193,2.36475,9.60254-0.08984c1.67578-1.43213,2.93115-1.35938,3.76367,0.21826
			c9.6499,3.74658,17.65283,3.58398,24.00928-0.49219c2.39941-1.33936,3.6626-1.11768,3.7915,0.65381
			c10.88281,3.4707,19.56152,3.32617,26.03906-0.42383c1.86035-0.35889,3.20215-0.32617,4.02979,0.08496
			c5.02783,1.63037,10.01221,1.65918,14.95264,0.09375c7.85742-2.13184,14.92969-1.74805,21.21777,1.14111
			c10.33984,1.90527,19.4292,1.17871,27.26855-2.1792c2.88721-1.06152,4.31152-0.62988,4.271,1.28711
			c3.98438,2.57959,9.39893,2.50244,16.24658-0.22217c1.71484-0.72656,2.79883-0.66943,3.25,0.17041
			c9.35547,2.42139,16.68848,2.38477,21.99219-0.10547c2.38867-2.69629,4.39453-2.25244,6.02051,1.34814
			c4.09277,2.62354,8.53613,2.20313,13.31836-1.25098c0.71875-1.51758,1.91309-1.6543,3.57715-0.41992
			c10.66895,5.29883,20.53711,5.05273,29.60059-0.73486c3.94824-0.96387,9.64648-0.08838,17.10059,2.62402
			c1.8877-4.27881,5.30371-4.51221,10.24707-0.71045c7.98633,3.82617,13.2168,3.15137,15.69629-2.02588
			c3.27637-0.21777,5.625,0.67334,7.04492,2.6875c6.4541,2.84961,10.73242,2.21631,12.8291-1.90039
			c2.36426-0.70605,4.59766-0.20557,6.69922,1.49707c7.99219,3.38135,13.50977,2.76025,16.56055-1.85645
			c3.35352-0.56445,6.67773,0.68164,9.9707,3.7373c6.45801,1.79199,10.89746,0.18164,13.32715-4.84766
			c2.72852-1.10938,5.64258,0.50537,8.75,4.84326c2.05859,1.69971,8.81445,0.35156,20.2666-4.05176
			c4.12109-0.94092,6.59082-0.24561,7.41113,2.08203c7.91016,3.21289,13.63281,2.79297,17.16797-1.25537
			c2.62793-0.91992,4.30078-0.58838,5.03223,0.97314c7.17969,3.55957,11.87305,3.20508,14.07813-1.06152
			c2.18262-0.86377,4.40234-2.12695,4.56055-0.48486c0.30664,2.38232,1.99707,13.99658,0.7666,28.29541
			c-3.51563,40.90234,8.70898,73.94775,8.6709,122.7085c-0.00586,15.4292,0.00586,33.69922,0.01563,49.80127
			c0.01367,20.11475,1.49902,47.43701,1.39941,67.20068c-0.08984,18.37207,1.54492,70.64258,1.53711,87.16602
			c-0.01367,66.6416-1.18262,80.56055-1.66797,86.08691c-0.36719-3.85352,1.66797,12.21973,0.96484,13.14453
			c-1.12207,1.46777-2.29297-11.76465-5.38184-15.5459c-0.87793-1.07422,1.33008-42.23145,1.42773-93.0166
			c0.08691-44.37402-1.99414-94.94336-1.82813-147.73877c0.24023-78.34766-13.58008-155.59668-11.15039-162.38867
			c0.39063-2.67139,2.48438-31.23291,1.97949-32.5332c-0.4834-1.25146-1.94336,0.75928-3.50684,2.729
			c-4.33301,1.97754-8.00293-0.35986-11.99316-2.74854c-2.13965-2.11865-4.55371,0.47217-7.36719,2.74072
			c-4.4541,2.31543-9.97949-0.51318-16.4375-3.44727c-2.35645-2.49365-3.90625-1.0249-6.98633,1.34033
			c-10.375,3.5918-16.58105,4.98389-18.95898,2.85742c-2.09863-3.77393-5.54492-7.37061-7.67676-6.41748
			c-0.80664,0.41211-1.27051,1.02148-1.3916,1.8374c-5.15039,3.80029-9.93262,4.63623-14.3418,2.50488
			c-4.01367-3.6001-6.51953-1.68213-8.72656,0.59033c-5.50586,3.10352-11.82129,0.65674-17.7373-2.16357
			c-4.04883-1.23047-7.16406-0.34814-9.33594,2.63916c-2.44531,1.34375-6.3877,1.63037-11.59863-1.90479
			c-2.19141-2.26855-3.78125-0.32275-5.25488,2.91846c-4.83496,2.82813-10.57031-0.44043-16.94922-4.1333
			c-3.18945-1.7959-5.3877-1.82031-6.59863-0.07715c0.5293,2.40967-3.16016,2.17969-11.07813-0.69434
			c-4.14844-1.61377-8.14551,1.79297-12.51172,4.78711c-7.9707,2.4458-16.41797-0.2627-24.81152-2.70313
			c-1.80859-1.76807-4.81836-1.15527-9.0166,1.83545c-2.50195,0.81982-5.875-0.40674-10.125-3.67676
			c-2.19238-0.71826-5.0332-0.104-8.53174,1.84912c-6.37744,0.9873-11.8374,0.67334-16.38135-0.94092
			c-2.35693-1.30371-5.63965-0.98438-9.8457,0.94873c-5.10742,1.33984-8.77734,0.93213-11.02148-1.21826
			c-0.89551-1.84131-6.69141,0.8877-13.7002,3.54248c-5.70459,1.35596-10.32129-0.96826-17.53027-2.31641
			c-5.07568-2.65625-9.71289-3.48682-13.90576-2.50195c-8.96777,2.0332-15.65527,2.49414-20.0708,1.37207
			c-1.56787-0.44775-3.31738-0.91992-5.0752-0.45166c-12.05859,3.2085-7.15869,7.5874-26.20166,0.69385
			c-1.54199-0.81152-3.08154-0.93652-4.62158-0.37109c-7.77246,3.13574-15.52344,3.36572-23.2417,0.68994
			c-6.49316,0.98096-10.67529,0.91553-12.54346-0.18896c-3.32861-0.33984-4.99609-0.50928-4.99609-0.50928
			c-9.24805,4.72168-19.5835,6.63867-25.21191,3.34961l-6.59668-4.43945C103.83398,35.30859,98.8125,35.80518,92.92285,34.04102z"/>
		<path fill-rule="evenodd" clip-rule="evenodd" d="M76.65186,510.00098c3.80469,4.79199,6.47412,4.69629,8.01318-0.29492
			c2.92334-29.42383,2.91113-55.81445-0.03662-79.15918C86.48145,481.06543,83.82178,507.55371,76.65186,510.00098z"/>
		<path fill-rule="evenodd" clip-rule="evenodd" d="M509.64355,37.54395c-3.00098-5.5332-2.85449-1.93652-2.40625,6.5542
			c0.72266,13.79492,7.40137,80.42627,9.51172,94.00977c7.49902,48.31689,13.88867,80.00635,13.24121,156.13721
			C538.62695,259.65918,521.79688,161.45996,509.64355,37.54395z"/>
		<path fill-rule="evenodd" clip-rule="evenodd" d="M104.43066,133.33789c0.27783-7.13525,5.49414-68.84229,6.229-69.17432
			l3.09912-1.39111c0.37939-0.16943,0.42627,0.8916,0.6499,1.36719c-9.39893,8.48389-8.78564,116.8208-5.21973,137.74121
			C109.98145,206.53076,100.52783,169.78955,104.43066,133.33789z"/>
		<path fill-rule="evenodd" clip-rule="evenodd" d="M458.94141,140.06934c-0.2832-8.93506-5.53809-86.28076-6.27246-86.69629
			l-3.09863-1.73584c-0.38379-0.21777-0.42383,1.11328-0.65137,1.71533c9.4043,10.62646,8.85449,146.41455,5.30371,172.64307
			C453.43066,231.81934,462.86719,185.7627,458.94141,140.06934z"/>
		<path fill-rule="evenodd" clip-rule="evenodd" d="M494.74316,508.86816c-0.48926,1.19922,6.04883,3.91113,5.49902,5.47559
			c-0.58887,1.69727-8.26855,0.88867-8.71289,1.46973c-2.33203,3.06152-3.67285-1.79199-4.79883-8.84277
			c-2.94434-56.92773-2.95215-107.98145-0.02344-153.16211C484.89551,451.56055,487.57129,504.13867,494.74316,508.86816z"/>
		<path fill-rule="evenodd" clip-rule="evenodd" d="M487.90039,267.62109c-6.64648-87.2417-0.95508,32.0332-3.63477,40.18457
			C483.47461,310.20605,491.82031,286.45703,487.90039,267.62109z"/>
		<path fill-rule="evenodd" clip-rule="evenodd" d="M518.71875,367.36523c6.58789-135.41602,0.97656,49.72559,3.66602,62.37305
			C523.17383,433.46484,514.81055,396.6084,518.71875,367.36523z"/>
	</g>
	
		<polygon fill-rule="evenodd" clip-rule="evenodd" fill="#A5C3D2" stroke="#000000" stroke-width="0.5669" stroke-miterlimit="22.9256" points="
		575.97852,29.7876 578.20605,279.68848 412.43652,211.5835 245.77197,279.68848 245.77197,231.49658 246.83887,29.62598 	"/>
	<path fill-rule="evenodd" clip-rule="evenodd" d="M245.84229,283.54395c-1.36182-0.57422-0.07031-4.68359-0.07031-4.68359
		l166.66455-67.27686l165.76953,64.1626c2.08691,0.68652,1.77246,7.27246,0,7.62793L412.9375,218.396L245.84229,283.54395z"/>
	<path fill-rule="evenodd" clip-rule="evenodd" d="M574.59863,280.28906l3.28223,0.96094l4.38281-249.44434
		c0.05176-3.01904-5.44238-3.67236-12.10156-3.79395c-8.12695-0.14893-18.47559,0.54932-19.54492,1.37988
		c-0.4873,0.37598,24.22266-0.06348,23.98145,0.52539C574.59863,196.82861,574.59863,280.28906,574.59863,280.28906z"/>
	<path fill-rule="evenodd" clip-rule="evenodd" d="M249.94482,256.42969l0.30957,2.96191l-4.08447-2.08984l-5.03955-226.60254
		c-0.05811-2.74414,6.25439-3.34131,13.91943-3.44971c9.35205-0.1333,21.24902,0.5,22.47949,1.25439
		c0.55908,0.34326-27.8623-0.05664-27.58447,0.47559C249.94482,180.61328,249.94482,256.42969,249.94482,256.42969z"/>
	<g>
		<path fill-rule="evenodd" clip-rule="evenodd" fill="#808285" d="M587.39258,7.87744
			c-15.96289-0.17041-25.89063-0.17432-29.79004-0.00781c-18.85449-0.46484-101.44629,0.70996-102.11621,0.70996L50.65479,7.48535
			l-1.01318,2.4502l0.16846,4.47998l506.83838,0.30615c19.19434,0.14941,29.56152-0.00391,31.10547-0.45996l1.17188-2.61963
			L587.39258,7.87744z"/>
		<path fill-rule="evenodd" clip-rule="evenodd" fill="#4FA392" d="M606.15918,9.51221
			c3.49512-1.0542,6.54395-2.4502,9.15234-4.18213c0.36133-0.39502,6.73535,1.26709,19.12891,4.99658
			c0.36035,0.61328-0.02539,1.06543-1.16113,1.34766c-12.10449,4.99658-18.625,6.40918-19.55371,4.25342
			c-4.96875-2.03271-7.52637-3.06641-7.6748-3.09473c0.60449,1.48877,0.90625,2.23633,0.90625,2.23633
			c0.54199,2.36035,0.125,4.02295-1.24219,4.9751c-2.4707,1.84863-4.08691,1.92139-4.85547,0.21045
			c-0.59277-2.21191,0.10449-3.30957,2.08594-3.27686c1.90625-1.31689,2.01465-2.58301,0.32324-3.80566
			c-2.31348-0.37598-3.87305-0.39209-4.67383-0.05664c-0.40723-0.20557-0.31836,0.51318,0.2627,2.15088
			c-1.07227,1.14258-1.91602,1.41211-2.53125,0.80762c-1.26563,0.57227-2.32617,0.66943-3.1748,0.28955
			c-1.07324,0.1626-1.73926,0.0083-2.00195-0.47559c-1.9502,1.00879-2.99414,0.85156-3.13965-0.47607
			c0.77051-3.3335,0.6416-5.92041-0.37891-7.76855c0.67383-1.22314,1.49316-1.4248,2.45703-0.60986
			c0.73828,0.42773,1.1084,0.64111,1.1084,0.64111c0.38379-0.59277,0.90527-0.72217,1.55859-0.3877
			c0.61523,0.35645,0.90039,0.31982,0.85254-0.09668c0.41992-0.54395,0.9541-0.62451,1.61035-0.23779
			c0.22754,0.41992,0.43945,0.48047,0.6377,0.16943c0.46094-1.03271,1.20703-1.00879,2.23242,0.06445
			c0.00879,0.87646,0.13574,1.32422,0.38965,1.34424c3.61719,0.83057,5.30371,0.33496,5.05762-1.49707
			c-0.83887-1.4248-1.73242-1.97754-2.67578-1.65479c-2.30078-0.87158-2.85254-1.9292-1.65918-3.18018
			c1.26367-0.91211,2.73242-0.96045,4.40723-0.13281C606.08105,4.29346,606.93262,6.7749,606.15918,9.51221z"/>
		<path fill-rule="evenodd" clip-rule="evenodd" fill="#4FA392" d="M31.86719,9.51221
			c-3.4917-1.0542-6.54053-2.4502-9.14746-4.18213c-0.36133-0.39502-6.74023,1.26709-19.1333,4.99658
			c-0.35742,0.61328,0.02734,1.06543,1.15967,1.34766c12.10742,4.99658,18.62451,6.40918,19.56006,4.25342
			c4.96533-2.03271,7.52148-3.06641,7.67139-3.09473c-0.60547,1.48877-0.90576,2.23633-0.90576,2.23633
			c-0.54248,2.36035-0.12744,4.02295,1.24316,4.9751c2.46973,1.84863,4.08789,1.92139,4.85645,0.21045
			c0.58984-2.21191-0.10449-3.30957-2.09033-3.27686c-1.9043-1.31689-2.01123-2.58301-0.32275-3.80566
			c2.31445-0.37598,3.87354-0.39209,4.67529-0.05664c0.4082-0.20557,0.32031,0.51318-0.26367,2.15088
			c1.07227,1.14258,1.9165,1.41211,2.5293,0.80762c1.26758,0.57227,2.32959,0.66943,3.18066,0.28955
			c1.07129,0.1626,1.73975,0.0083,1.99805-0.47559c1.94873,1.00879,2.99609,0.85156,3.14014-0.47607
			c-0.76904-3.3335-0.63965-5.92041,0.38281-7.76855c-0.67529-1.22314-1.49756-1.4248-2.45947-0.60986
			c-0.73926,0.42773-1.10938,0.64111-1.10938,0.64111c-0.38428-0.59277-0.90234-0.72217-1.56201-0.3877
			c-0.61182,0.35645-0.89648,0.31982-0.8501-0.09668c-0.41797-0.54395-0.9541-0.62451-1.6084-0.23779
			c-0.22607,0.41992-0.43945,0.48047-0.63672,0.16943c-0.46338-1.03271-1.20752-1.00879-2.22998,0.06445
			c-0.00781,0.87646-0.13916,1.32422-0.39209,1.34424c-3.61816,0.83057-5.30469,0.33496-5.05908-1.49707
			c0.83936-1.4248,1.72949-1.97754,2.67773-1.65479c2.29883-0.87158,2.84912-1.9292,1.65869-3.18018
			c-1.2666-0.91211-2.73584-0.96045-4.40625-0.13281C31.94531,4.29346,31.09375,6.7749,31.86719,9.51221z"/>
		<path fill-rule="evenodd" clip-rule="evenodd" d="M555.7832,8.55957L50.36719,8.64795
			c-0.26074,0.896-0.37988,1.88916-0.35742,3.01074c0.43799,0.18506,248.44141,1.55371,407.70898,1.20264
			c71.00391-0.15674,124.40234,1.30029,130.30176-1.20264c0.02148-1.12158-0.09961-2.11475-0.35742-3.01074L556.4043,8.55957
			H555.7832L555.7832,8.55957z M555.05273,7.40479l32.31836,0.08057c0.08887-1.146,1.4375-1.9248,2.39453-1.30713
			c0.39258,0.25049,0.78711,0.83545,0.9873,1.17822c0.13867-0.57324,0.8252-0.7998,1.36914-0.70215
			c0.45703,0.08105,0.73926,0.44385,1.00391,0.60938c0.03027-0.15771,0.07813-0.37549,0.16504-0.56104
			c0.17871-0.36328,0.61914-0.52832,1.00586-0.57666c0.83105-0.11719,1.07715,0.67334,1.18555,1.03271
			c0.02246-0.12891,0.03809-0.22559,0.05371-0.2666c0.24609-0.55664,0.71777-0.99658,1.66797-0.73047
			c0.02344,0.00879,0.05176,0.0166,0.07617,0.03271c0.25879,0.04785,0.54492,0.14941,0.83789,0.44385
			c0.30762,0.31445,0.29492,0.75049,0.29199,1.19434c-0.00586,0.12158-0.00586,0.25098,0,0.36719
			c1.27441,0.37549,2.32129,0.53662,3.12695,0.48047c0.47266-0.03223,0.85938-0.1333,1.15918-0.30664
			c0.22559-0.25,0.36719-0.5,0.42773-0.75879c-0.0498-0.48779-0.20215-0.87939-0.46387-1.18604
			c-0.23438-0.2627-0.55371-0.46045-0.95996-0.59375c-0.93945,0.1333-1.71582,0.16064-2.31738-0.18994
			c-0.85059-0.50049-1.31641-1.43213-1.25977-2.30469c-0.05664-0.41504,0.00977-0.77051,0.19727-1.07764
			c0.36816-0.58887,1.18945-0.91943,2.44531-1.0415l0,0c1.40234-0.19238,2.6416,0.20996,3.62402,1.0415
			c1.03125,0.86377,1.77246,2.19629,2.13574,3.78223l0.00391,0.01953c0.12598,0.81592,0.18164,1.51807,0.16504,2.10254
			c-0.00781,0.31201-0.03516,0.59375-0.08105,0.84033c1.4668-0.60205,2.88672-1.23926,4.26367-1.91309
			c1.54492-0.76318,3.02344-1.5625,4.42969-2.40088l0.10254-0.06543l0.11621,0.0332
			c4.33008,1.25098,8.10059,2.29932,11.31543,3.13916c3.19727,0.83887,5.82813,1.46875,7.89258,1.88867l0.00781,0.00391
			l0.02148,0.00879c0.45703,0.15674,0.77637,0.32715,0.96191,0.5083c0.15332,0.15674,0.22852,0.32715,0.22656,0.5127
			c-0.00781,0.17725-0.08887,0.34619-0.25195,0.5c-0.21289,0.20996-0.59961,0.41943-1.15723,0.62988
			c-4.7373,1.76367-8.6377,3.18359-11.68848,4.26563c-3.0332,1.07373-5.20996,1.7959-6.52344,2.1748l-0.11133,0.03271
			l-0.0957-0.05273c-2.50195-1.31152-4.60449-2.36475-6.30078-3.15918c-1.27051-0.59375-2.31543-1.0415-3.14355-1.34814
			c0.7627,1.3833,1.03906,2.65527,0.83008,3.80859c-0.22461,1.24365-1.00781,2.34229-2.34082,3.27832
			c-0.10742,0.07959-0.21582,0.15283-0.3291,0.22607l-0.0166,0.0083c-1.24316,0.70166-2.1748,0.8623-2.90527,0.59668
			c-0.1709-0.06445-0.32129-0.14502-0.46777-0.25098c-1.73242-0.70215-1.87305-3.48633-0.16309-4.54346
			c0.82422-0.50146,1.74707-0.20215,1.88965-0.31445c0.09668-0.07324,0.18262-0.14551,0.26172-0.21924
			c0.03809-0.07959,0.07324-0.16016,0.11035-0.2417l0,0c0.2373-0.52002,0.46387-1.02051,0.46777-1.38818
			c-0.14844-0.49268-0.58594-0.98486-1.27148-1.44531c-0.08398-0.03174-0.17285-0.05615-0.2627-0.0752l-3.82227,0.20947
			c0.04199,0.20166,0.09766,0.40771,0.1543,0.60449c0.18652,0.6665,0.35449,1.28369,0.05957,1.8291
			c-0.30957,0.57275-0.62598,0.76221-0.93066,0.82275l-0.02441,0.00781c-0.7959,0.2627-1.70898,0.0332-2.02148-0.42725
			c-0.16797,0.50049-0.90039,0.85889-1.48535,0.95996c-0.49023,0.08936-1.12695-0.16895-1.30273-0.73438
			c-0.28516,0.71484-1.10742,0.73438-1.62402,0.6665c-0.31934-0.04541-0.48535-0.5293-0.56543-0.86768
			c-0.57324,0.69824-2.05371,1.78369-2.93262,1.19824c-0.62695-0.41504-0.97266-1.30371-0.75098-1.75146l-30.60352-0.08496
			L50.79688,15.72266c0.21777,0.44775-0.12695,1.33643-0.75342,1.75146c-0.87939,0.58545-2.3584-0.5-2.93408-1.19824
			c-0.07813,0.33838-0.24756,0.82227-0.56689,0.86768c-0.5166,0.06787-1.33789,0.04834-1.62354-0.6665
			c-0.17578,0.56543-0.81201,0.82373-1.2998,0.73438c-0.58301-0.10107-1.3208-0.45947-1.48584-0.95996
			c-0.31494,0.46045-1.22852,0.68994-2.01904,0.42725l-0.0249-0.00781c-0.30664-0.06055-0.62549-0.25-0.93652-0.82275
			c-0.2959-0.54541-0.12305-1.1626,0.0625-1.8291c0.05518-0.19678,0.11084-0.40283,0.15625-0.60449l-3.82178-0.20947
			c-0.09082,0.01904-0.17822,0.04346-0.2627,0.0752c-0.69043,0.46045-1.12402,0.95264-1.27344,1.44531
			c0.00195,0.36768,0.22754,0.86816,0.46777,1.38818l0,0c0.03711,0.08154,0.07373,0.16211,0.11133,0.2417
			c0.07715,0.07373,0.16553,0.146,0.25879,0.21924c0.14502,0.1123,1.06494-0.18701,1.88867,0.31445
			c1.71484,1.05713,1.57129,3.84131-0.16162,4.54346c-0.14551,0.10596-0.29834,0.18652-0.46631,0.25098
			c-0.73242,0.26563-1.66504,0.10498-2.90723-0.59668l-0.01514-0.0083c-0.11035-0.07324-0.22217-0.14648-0.33057-0.22607
			c-1.33301-0.93604-2.11475-2.03467-2.33887-3.27832c-0.20752-1.15332,0.06641-2.42529,0.82715-3.80859
			c-0.82324,0.30664-1.86963,0.75439-3.14209,1.34814c-1.69629,0.79443-3.79541,1.84766-6.2998,3.15918l-0.09814,0.05273
			l-0.10938-0.03271c-1.31787-0.37891-3.49121-1.10107-6.52637-2.1748c-3.05078-1.08203-6.94678-2.50195-11.68262-4.26563
			c-0.55908-0.21045-0.94678-0.41992-1.16309-0.62988c-0.15723-0.15381-0.24023-0.32275-0.24805-0.5
			c-0.00537-0.18555,0.06934-0.35596,0.22852-0.5127c0.18359-0.18115,0.50195-0.35156,0.95654-0.5083l0.02539-0.00879
			l0.0083-0.00391c2.06299-0.41992,4.69434-1.0498,7.89209-1.88867c3.21436-0.83984,6.98633-1.88818,11.31494-3.13916
			l0.11523-0.0332l0.10254,0.06543c1.40869,0.83838,2.88574,1.6377,4.43066,2.40088
			c1.37451,0.67383,2.79736,1.31104,4.26221,1.91309c-0.04443-0.24658-0.07471-0.52832-0.08252-0.84033
			c-0.01465-0.58447,0.04004-1.28662,0.16699-2.10254l0.00439-0.01953c0.36084-1.58594,1.10645-2.91846,2.1333-3.78223
			c0.98486-0.83154,2.22412-1.23389,3.62793-1.0415l0,0c1.25293,0.12207,2.07617,0.45264,2.44385,1.0415
			c0.18945,0.30713,0.25439,0.6626,0.19727,1.07764c0.05518,0.87256-0.41162,1.8042-1.2583,2.30469
			c-0.59912,0.35059-1.38135,0.32324-2.31738,0.18994c-0.40771,0.1333-0.72803,0.33105-0.96045,0.59375
			c-0.2627,0.30664-0.41553,0.69824-0.46436,1.18604c0.05859,0.25879,0.20166,0.50879,0.42773,0.75879
			c0.29883,0.17334,0.68457,0.27441,1.1582,0.30664c0.80713,0.05615,1.85352-0.10498,3.12842-0.48047
			c0.00537-0.11621,0.00342-0.24561,0-0.36719c-0.0083-0.44385-0.01611-0.87988,0.29004-1.19434
			c0.29346-0.29443,0.58154-0.396,0.83984-0.44385c0.02393-0.01611,0.0498-0.02393,0.07471-0.03271
			c0.94824-0.26611,1.42041,0.17383,1.66895,0.73047c0.01807,0.04102,0.03369,0.1377,0.05029,0.2666
			c0.1123-0.35938,0.35742-1.1499,1.18408-1.03271c0.39014,0.04834,0.83008,0.21338,1.00732,0.57666
			c0.09082,0.18555,0.13672,0.40332,0.16504,0.56104c0.271-0.16553,0.55078-0.52832,1.00732-0.60938
			c0.54297-0.09766,1.23047,0.12891,1.36816,0.70215c0.20361-0.34277,0.59668-0.92773,0.98877-1.17822
			c0.9541-0.61768,2.30664,0.16113,2.39063,1.30713L555.05273,7.40479L555.05273,7.40479z M598.17969,9.26123
			c-0.0918-0.10156-0.15723-0.54102-0.27441-0.50439c-0.54785,1.11377-0.2666,3.31348,0.08789,4.0918l0,0l0.04004,0.31982
			c0.04102,0.34668,0.13379,0.68604,0.22656,1.01611c0.14258,0.50879,0.27246,0.98096,0.13672,1.31152
			c-0.87109,0.08594-1.64941,0.07324-1.75391-0.25732c-0.50879-1.57813-0.75391-4.95654-0.54492-7.5752
			c0.00488-0.04492-0.02051-0.19385-0.1416-0.12158c-0.04883,0.03223-0.29883,0.11377-0.43262,0.22607
			c-0.05469,0.04395-0.06738,0.20166-0.06738,0.18604c-0.06055,0.95117-0.11816,2.15869-0.10254,2.37256
			c0.11816,1.69922,0.46094,3.46289,0.43164,5.51367c-0.33203,0.16504-1.16016,0.93555-1.8916,0.06396
			c-0.42383-0.50879-0.69727-0.25879-0.69727-0.2666c-0.0127,0.07275-0.0293,0.13721-0.04004,0.19434
			c-0.04199-0.03174-0.09863-0.06494-0.1748-0.09717c-0.39063-0.14502-1.09863,0.19287-1.25-0.61328
			c-0.25586-1.35205-0.34766-2.36572-0.36133-3.44238c0.01367-0.31152-0.22852-0.21387-0.23633,0.14844
			c-0.02832,1.16211-0.07324,2.34863-0.25391,3.95996c-1.67773,0.53271-2.19727,0.0127-2.08301-0.66602
			c0.36719-2.14014,0.19727-4.96484-0.69824-6.84521c-0.0332-0.06445-0.05273-0.125-0.07031-0.18506V7.74414
			c0.21973-0.68652,1.80566-0.73047,2.7002-0.22656c0,0.0166,0,0.04102,0,0.05664c0.13867,0.17773,0.38965,1.70752,0.39258,4.02002
			c0-0.04932,0.08496-0.08887,0.1543-0.16162c0.05078-0.05664,0.09277,0.07666,0.09277,0.04053
			c0.00195-1.0293,0.08301-2.15527,0.16992-2.9668c0.14941-1.48096,1.20898-0.99268,1.55273-1.021
			c-0.00586,0.0083-0.00586,0.01221-0.00586,0.01611c0.60547,1.94531,0.64355,4.56006,0.12305,7.84619
			c0,0.02002-0.08984,0.22559,0.04785,0.20947c0.08008-0.00391,0.11426-0.01563,0.22168-0.04785
			c0.12988-0.0415,0.33594,0.16113,0.33594,0.17725c-0.05957-1.46143,0.09082-6.17432,0.0752-6.6875
			c-0.01563-0.47217-0.04297-0.95215-0.0957-1.44043c-0.02832-0.2583,0.7998-0.80762,1.54883-0.25049
			c0.03711,0.02441,0.08105,0.04053,0.12207,0.04834c-0.00781,0.125-0.01855,0.2666-0.03223,0.41992
			c0.02637-0.2627,0.6582-0.26709,0.69434-0.52539c0.04004-0.2666,0.24609-0.48389,0.50879-0.56006
			c0.10352,0.03564,0.2168,0.05225,0.33887,0.06396c0.12109,0.01611,0.25391,0.03613,0.38672,0.08496
			c0.11719,0.08936,0.22168,0.21777,0.31934,0.3833c0.05078,0.09277,0.09961,0.18555,0.15332,0.2666
			c0.00391,0.10107,0.00391,0.21338,0,0.33105c-0.00488,0.22168-0.00781,0.44775,0.02734,0.66602l0.0293,0.17725l0.17383,0.05615
			c1.42285,0.43555,2.59766,0.62256,3.50977,0.55713c0.99023-0.06396,1.6875-0.41162,2.0918-1.02441l0.04395-0.07373
			l0.00391-0.04395c0.09766-0.1333,0.1582-0.28223,0.16602-0.43213c0.0293-0.67773-0.00781-2.0249-1.37207-2.73926
			c-2.88965,0.15674-4.03223-1.73193-2.51855-2.95947c0.04688-0.04395,0.12793-0.07617,0.22949-0.10449
			c0.18945-0.03125,0.3916-0.06055,0.61328-0.08057h0.0127c1.23438-0.17773,2.32031,0.17725,3.18359,0.90771
			c0.92871,0.78369,1.60156,1.99414,1.93652,3.45117c0.11719,0.77441,0.1709,1.42871,0.1543,1.97314
			c-0.01367,0.52441-0.08398,0.94092-0.21973,1.23535l-0.24512,0.54443c-0.14355,0.13379-0.23047,0.24219-0.11914,0.29102
			c1.60938-0.38379,6.0791-1.89697,11.11328-4.61719c3.82617,1.10156,7.17578,2.02637,10.05273,2.78125
			c2.47461,0.64893,4.61035,1.17383,6.40527,1.56934c0.70215,0.37109,0.61719,0.70215,0.34277,1.0415
			c-9.45898,3.42969-14.81055,4.74561-17.1748,5.14111c-1.17188-0.3833-5.11914-1.7832-10.89453-4.15967
			c-0.15332,0.0752-0.08398,0.45117,0.06738,0.75732l-0.12305-0.03516l0.45703,0.69336c0.0791,0.125,0.16016,0.25439,0.2373,0.37939
			c0.80957,1.37158,1.12012,2.59863,0.92383,3.68896c-0.19336,1.08105-0.89551,2.0498-2.09473,2.89795
			c-0.09277,0.06445-0.19434,0.12842-0.29688,0.19727c-0.57422,0.32324-1.05859,0.521-1.47754,0.60107
			c-0.32422,0.02441-0.63379,0-0.93457-0.07617c-1.5-0.94043-1.38281-3.05518,0.74512-3.68555
			c0.55469-0.00781,1.19824-0.32275,1.50684-0.74268c0.68652-0.92383,0.53125-2.49268-0.22461-3.33691
			c-0.98926-1.11377-1.50488-0.95703-2.77637-0.79541c-0.52441,0.06543-1.61523,0.06543-2.34082-0.05176
			C597.94531,11.09326,598.01758,10.34277,598.17969,9.26123L598.17969,9.26123z M39.85156,9.26123
			c0.15967,1.08154,0.23193,1.83203-0.87158,3.20898c-0.72852,0.11719-1.81689,0.11719-2.34131,0.05176
			c-1.271-0.16162-1.78516-0.31836-2.77637,0.79541c-0.75439,0.84424-0.91211,2.41309-0.22559,3.33691
			c0.30859,0.41992,0.95605,0.73486,1.50977,0.74268c2.12354,0.63037,2.24512,2.74512,0.74561,3.68555
			c-0.30029,0.07617-0.61279,0.10059-0.93604,0.07617c-0.41699-0.08008-0.9043-0.27783-1.47559-0.60107
			c-0.10449-0.06885-0.20557-0.13281-0.29834-0.19727c-1.2002-0.84814-1.89844-1.81689-2.09473-2.89795
			c-0.19531-1.09033,0.11133-2.31738,0.92383-3.68896c0.07764-0.125,0.15771-0.25439,0.24121-0.37939l0.44922-0.69336
			l-0.12061,0.03516c0.15088-0.30615,0.22217-0.68213,0.06836-0.75732c-5.77539,2.37646-9.72461,3.77637-10.8916,4.15967
			c-2.36621-0.39551-7.71973-1.71143-17.17578-5.14111c-0.27637-0.33936-0.3623-0.67041,0.33984-1.0415
			C6.71924,9.56006,8.854,9.03516,11.32813,8.38623c2.87842-0.75488,6.22754-1.67969,10.05176-2.78125
			c5.03418,2.72021,9.50391,4.2334,11.11865,4.61719c0.10693-0.04883,0.02197-0.15723-0.12549-0.29102l-0.24658-0.54443
			c-0.13086-0.29443-0.20508-0.71094-0.21777-1.23535c-0.01318-0.54443,0.03906-1.19873,0.15771-1.97314
			c0.33105-1.45703,1.00781-2.66748,1.93555-3.45117c0.86182-0.73047,1.94873-1.08545,3.18408-0.90771h0.01416
			c0.21973,0.02002,0.42236,0.04932,0.60889,0.08057c0.10107,0.02832,0.18359,0.06055,0.23486,0.10449
			c1.50879,1.22754,0.3667,3.11621-2.52051,2.95947c-1.36426,0.71436-1.40088,2.06152-1.37061,2.73926
			c0.00635,0.1499,0.06641,0.29883,0.16357,0.43213V8.1792l0.04785,0.07373c0.4043,0.61279,1.104,0.96045,2.09131,1.02441
			c0.91357,0.06543,2.08691-0.12158,3.51123-0.55713l0.16943-0.05615l0.03174-0.17725
			c0.03906-0.21826,0.03271-0.44434,0.02881-0.66602c-0.00195-0.11768-0.00391-0.22998,0-0.33105
			c0.04932-0.08105,0.10303-0.17383,0.15479-0.2666c0.09326-0.16553,0.2002-0.29395,0.31299-0.3833
			c0.13721-0.04883,0.27051-0.06885,0.39209-0.08496c0.12061-0.01172,0.23389-0.02832,0.34082-0.06396
			c0.26025,0.07617,0.46533,0.29346,0.50439,0.56006c0.03564,0.2583,0.66797,0.2627,0.69434,0.52539
			c-0.01074-0.15332-0.02002-0.29492-0.0332-0.41992c0.04346-0.00781,0.0874-0.02393,0.12158-0.04834
			c0.75049-0.55713,1.58008-0.00781,1.55176,0.25049c-0.05176,0.48828-0.08252,0.96826-0.09668,1.44043
			c-0.01416,0.51318,0.13672,5.22607,0.07617,6.6875c-0.00146-0.01611,0.2041-0.21875,0.33398-0.17725
			c0.1084,0.03223,0.14258,0.04395,0.22266,0.04785c0.13867,0.01611,0.05078-0.18945,0.04688-0.20947
			c-0.52051-3.28613-0.48047-5.90088,0.12305-7.84619c0-0.00391-0.00488-0.00781-0.00586-0.01611
			c0.34521,0.02832,1.40283-0.45996,1.55811,1.021c0.08057,0.81152,0.16309,1.9375,0.16699,2.9668
			c0,0.03613,0.04053-0.09717,0.09082-0.04053c0.07178,0.07275,0.15576,0.1123,0.15381,0.16162
			c0.00586-2.3125,0.25439-3.84229,0.39355-4.02002c0-0.01563,0-0.04004,0-0.05664c0.89746-0.50391,2.47949-0.45996,2.69775,0.22656
			l0.00195,0.34717c-0.01611,0.06006-0.03809,0.12061-0.06836,0.18506c-0.89844,1.88037-1.06982,4.70508-0.7002,6.84521
			c0.11719,0.67871-0.40625,1.19873-2.08105,0.66602c-0.18262-1.61133-0.22705-2.79785-0.25586-3.95996
			c-0.00781-0.3623-0.24658-0.45996-0.23828-0.14844c-0.0083,1.07666-0.10156,2.09033-0.35889,3.44238
			c-0.15332,0.80615-0.85986,0.46826-1.25293,0.61328c-0.07471,0.03223-0.13184,0.06543-0.16797,0.09717
			c-0.01611-0.05713-0.02979-0.12158-0.04248-0.19434c-0.00244,0.00781-0.27832-0.24219-0.7002,0.2666
			c-0.73047,0.87158-1.55273,0.10107-1.88867-0.06396c-0.03223-2.05078,0.30811-3.81445,0.43213-5.51367
			c0.01367-0.21387-0.04053-1.42139-0.10059-2.37256c0,0.01563-0.01709-0.14209-0.0708-0.18604
			c-0.13086-0.1123-0.38184-0.19385-0.43213-0.22607c-0.12109-0.07227-0.14795,0.07666-0.14404,0.12158
			c0.2124,2.61865-0.03516,5.99707-0.54248,7.5752c-0.10645,0.33057-0.8833,0.34326-1.75537,0.25732
			c-0.13721-0.33057-0.00439-0.80273,0.13721-1.31152c0.09082-0.33008,0.18799-0.66943,0.22852-1.01611l0.03809-0.31982H40.0332
			c0.35645-0.77832,0.64209-2.97803,0.09326-4.0918C40.00879,8.72021,39.94189,9.15967,39.85156,9.26123z"/>
	</g>
	<polygon fill-rule="evenodd" clip-rule="evenodd" fill="#FFFFFF" points="257.80078,28.94775 258.67432,375.99707 
		158.26953,468.15625 57.86768,375.99707 57.86768,323.32617 58.50684,28.77051 	"/>
	
		<polygon fill-rule="evenodd" clip-rule="evenodd" fill="#8ED8F8" stroke="#000000" stroke-width="0.5669" stroke-miterlimit="22.9256" points="
		257.79834,28.94775 257.79834,375.05957 157.39648,466.35059 56.99316,375.05957 56.99316,322.875 57.63281,28.77051 	"/>
	<path fill-rule="evenodd" clip-rule="evenodd" d="M55.88574,378.05176c-0.82129-0.62793-0.04053-3.78125-0.04053-3.78125
		c66.4873,60.45215,100.87305,91.46777,100.87305,91.46777c67.38574-60.45215,101.08008-94.84082,101.08008-94.84082
		c1.26025,0.7373,1.07178,8.10059,0,8.4834c-57.87891,53.76758-91.07959,85.8125-100.13184,92.16113
		C90.72656,410.54004,55.88574,378.05176,55.88574,378.05176z"/>
	<path fill-rule="evenodd" clip-rule="evenodd" d="M257.79834,375.05957l-0.18896,4.49414l2.46631-3.16797l3.0498-344.1167
		c0.03711-4.16797-3.7832-5.07324-8.40967-5.23828c-5.64697-0.20117-12.83887,0.7627-13.5791,1.90479
		c-0.34033,0.521,16.83105-0.08398,16.66162,0.72266C257.79834,259.9248,257.79834,375.05957,257.79834,375.05957z"/>
	<path fill-rule="evenodd" clip-rule="evenodd" d="M59.51172,374.33496l0.18555,4.5l-2.46582-3.16309L54.18701,31.55078
		c-0.03662-4.16797,3.77686-5.07324,8.4082-5.23828c5.64746-0.20557,12.83545,0.7583,13.57813,1.90479
		c0.33984,0.521-16.83105-0.08398-16.66162,0.72217C59.51172,259.20508,59.51172,374.33496,59.51172,374.33496z"/>
	<g>
		<g>
			
				<path fill-rule="evenodd" clip-rule="evenodd" fill="#7670B3" stroke="#000000" stroke-width="0.7087" stroke-miterlimit="22.9256" d="
				M63.70947,7.5498l24.35059,45.96777l2.56934-10.94482L70.60352,4.10352C67.271,3.23193,64.9541,4.41406,63.70947,7.5498z"/>
			<path fill-rule="evenodd" clip-rule="evenodd" d="M72.14404,7.16748c-0.93701-1.79688-1.79834-3.70215-1.79834-3.70215
				c2.71973,0,4.82666,2.79248,5.44238,4.14551c-0.24414,0.59277-0.82324,0.61328-1.26709,0.73438
				C73.70166,8.56738,72.87402,8.35791,72.14404,7.16748z"/>
			
				<path fill-rule="evenodd" clip-rule="evenodd" fill="#7670B3" stroke="#000000" stroke-width="0.7087" stroke-miterlimit="22.9256" d="
				M94.16553,7.5498l-24.3501,45.96777l-2.56641-10.94482L87.27197,4.10352C90.60547,3.23193,92.9248,4.41406,94.16553,7.5498z"/>
			<path fill-rule="evenodd" clip-rule="evenodd" d="M85.73096,7.16748c0.93994-1.79688,1.79932-3.70215,1.79932-3.70215
				c-2.72021,0-4.82666,2.79248-5.44189,4.14551c0.24414,0.59277,0.82324,0.61328,1.2666,0.73438
				C84.1748,8.56738,85.00195,8.35791,85.73096,7.16748z"/>
		</g>
		<g>
			
				<path fill-rule="evenodd" clip-rule="evenodd" fill="#7670B3" stroke="#000000" stroke-width="0.7087" stroke-miterlimit="22.9256" d="
				M116.68701,7.5498l24.3501,45.96777l2.56641-10.94482L123.58008,4.10352C120.24609,3.23193,117.92773,4.41406,116.68701,7.5498z"
				/>
			<path fill-rule="evenodd" clip-rule="evenodd" d="M125.11963,7.16748c-0.9375-1.79688-1.7998-3.70215-1.7998-3.70215
				c2.72266,0,4.8291,2.79248,5.44385,4.14551c-0.24316,0.59277-0.82324,0.61328-1.26904,0.73438
				C126.67773,8.56738,125.84863,8.35791,125.11963,7.16748z"/>
			
				<path fill-rule="evenodd" clip-rule="evenodd" fill="#7670B3" stroke="#000000" stroke-width="0.7087" stroke-miterlimit="22.9256" d="
				M147.14063,7.5498l-24.35205,45.96777l-2.56641-10.94482l20.02344-38.46924
				C143.58154,3.23193,145.89795,4.41406,147.14063,7.5498z"/>
			<path fill-rule="evenodd" clip-rule="evenodd" d="M138.70605,7.16748c0.93799-1.79688,1.80029-3.70215,1.80029-3.70215
				c-2.72021,0-4.82715,2.79248-5.44482,4.14551c0.24463,0.59277,0.82471,0.61328,1.27002,0.73438
				C137.14844,8.56738,137.97803,8.35791,138.70605,7.16748z"/>
		</g>
		<g>
			
				<path fill-rule="evenodd" clip-rule="evenodd" fill="#7670B3" stroke="#000000" stroke-width="0.7087" stroke-miterlimit="22.9256" d="
				M169.66113,7.5498l24.35156,45.96777l2.56641-10.94482L176.55371,4.10352C173.2207,3.23193,170.90381,4.41406,169.66113,7.5498z"
				/>
			<path fill-rule="evenodd" clip-rule="evenodd" d="M178.09521,7.16748c-0.93799-1.79688-1.7998-3.70215-1.7998-3.70215
				c2.72217,0,4.82666,2.79248,5.44189,4.14551c-0.24121,0.59277-0.82227,0.61328-1.26709,0.73438
				C179.65137,8.56738,178.82666,8.35791,178.09521,7.16748z"/>
			
				<path fill-rule="evenodd" clip-rule="evenodd" fill="#7670B3" stroke="#000000" stroke-width="0.7087" stroke-miterlimit="22.9256" d="
				M200.11719,7.5498l-24.35156,45.96777l-2.56689-10.94482l20.02344-38.46924
				C196.55518,3.23193,198.87451,4.41406,200.11719,7.5498z"/>
			<path fill-rule="evenodd" clip-rule="evenodd" d="M191.68262,7.16748c0.93555-1.79688,1.79883-3.70215,1.79883-3.70215
				c-2.72119,0-4.82617,2.79248-5.44336,4.14551c0.24414,0.59277,0.82324,0.61328,1.26709,0.73438
				C190.12402,8.56738,190.95166,8.35791,191.68262,7.16748z"/>
		</g>
		<g>
			
				<path fill-rule="evenodd" clip-rule="evenodd" fill="#7670B3" stroke="#000000" stroke-width="0.7087" stroke-miterlimit="22.9256" d="
				M222.63623,7.5498l24.35059,45.96777l2.56641-10.94482L229.52979,4.10352C226.19678,3.23193,223.87842,4.41406,222.63623,7.5498z
				"/>
			<path fill-rule="evenodd" clip-rule="evenodd" d="M231.07129,7.16748c-0.9375-1.79688-1.80225-3.70215-1.80225-3.70215
				c2.72314,0,4.82959,2.79248,5.44482,4.14551c-0.24414,0.59277-0.8252,0.61328-1.26709,0.73438
				C232.62695,8.56738,231.80029,8.35791,231.07129,7.16748z"/>
			
				<path fill-rule="evenodd" clip-rule="evenodd" fill="#7670B3" stroke="#000000" stroke-width="0.7087" stroke-miterlimit="22.9256" d="
				M253.09131,7.5498l-24.35254,45.96777l-2.56689-10.94482l20.02637-38.46924
				C249.53174,3.23193,251.84961,4.41406,253.09131,7.5498z"/>
			<path fill-rule="evenodd" clip-rule="evenodd" d="M244.65576,7.16748c0.93848-1.79688,1.80127-3.70215,1.80127-3.70215
				c-2.72119,0-4.82764,2.79248-5.44238,4.14551c0.24121,0.59277,0.82178,0.61328,1.26807,0.73438
				C243.10059,8.56738,243.92773,8.35791,244.65576,7.16748z"/>
		</g>
		<g>
			
				<path fill-rule="evenodd" clip-rule="evenodd" fill="#7670B3" stroke="#000000" stroke-width="0.7087" stroke-miterlimit="22.9256" d="
				M275.61084,7.5498l24.35107,45.96777l2.56738-10.94482L282.50537,4.10352C279.17188,3.23193,276.85303,4.41406,275.61084,7.5498z
				"/>
			<path fill-rule="evenodd" clip-rule="evenodd" d="M284.04541,7.16748c-0.93701-1.79688-1.79834-3.70215-1.79834-3.70215
				c2.72021,0,4.82471,2.79248,5.44189,4.14551c-0.24365,0.59277-0.82275,0.61328-1.26904,0.73438
				C285.60303,8.56738,284.77588,8.35791,284.04541,7.16748z"/>
			
				<path fill-rule="evenodd" clip-rule="evenodd" fill="#7670B3" stroke="#000000" stroke-width="0.7087" stroke-miterlimit="22.9256" d="
				M306.06885,7.5498L281.7168,53.51758l-2.56689-10.94482l20.02344-38.46924C302.50635,3.23193,304.82422,4.41406,306.06885,7.5498
				z"/>
			<path fill-rule="evenodd" clip-rule="evenodd" d="M297.63232,7.16748c0.93799-1.79688,1.79932-3.70215,1.79932-3.70215
				c-2.72217,0-4.82666,2.79248-5.44238,4.14551c0.24414,0.59277,0.82324,0.61328,1.26758,0.73438
				C296.07666,8.56738,296.90283,8.35791,297.63232,7.16748z"/>
		</g>
		<g>
			
				<path fill-rule="evenodd" clip-rule="evenodd" fill="#7670B3" stroke="#000000" stroke-width="0.7087" stroke-miterlimit="22.9256" d="
				M328.58887,7.5498l24.35156,45.96777l2.56738-10.94482L335.48145,4.10352C332.14941,3.23193,329.83105,4.41406,328.58887,7.5498z
				"/>
			<path fill-rule="evenodd" clip-rule="evenodd" d="M337.02344,7.16748c-0.94043-1.79688-1.7998-3.70215-1.7998-3.70215
				c2.71973,0,4.82617,2.79248,5.44043,4.14551c-0.24219,0.59277-0.82422,0.61328-1.26758,0.73438
				C338.58105,8.56738,337.75,8.35791,337.02344,7.16748z"/>
			
				<path fill-rule="evenodd" clip-rule="evenodd" fill="#7670B3" stroke="#000000" stroke-width="0.7087" stroke-miterlimit="22.9256" d="
				M359.04297,7.5498l-24.35254,45.96777l-2.56641-10.94482l20.02637-38.46924C355.4834,3.23193,357.7998,4.41406,359.04297,7.5498z
				"/>
			<path fill-rule="evenodd" clip-rule="evenodd" d="M350.60645,7.16748c0.93848-1.79688,1.80176-3.70215,1.80176-3.70215
				c-2.7207,0-4.82715,2.79248-5.44531,4.14551c0.24707,0.59277,0.82715,0.61328,1.27148,0.73438
				C349.05078,8.56738,349.87695,8.35791,350.60645,7.16748z"/>
		</g>
		<g>
			
				<path fill-rule="evenodd" clip-rule="evenodd" fill="#7670B3" stroke="#000000" stroke-width="0.7087" stroke-miterlimit="22.9256" d="
				M381.5625,7.5498l24.35156,45.96777l2.56738-10.94482L388.45605,4.10352C385.12109,3.23193,382.80664,4.41406,381.5625,7.5498z"
				/>
			<path fill-rule="evenodd" clip-rule="evenodd" d="M389.99707,7.16748c-0.94141-1.79688-1.80078-3.70215-1.80078-3.70215
				c2.72168,0,4.82813,2.79248,5.44141,4.14551c-0.24121,0.59277-0.82324,0.61328-1.2666,0.73438
				C391.55469,8.56738,390.72852,8.35791,389.99707,7.16748z"/>
			
				<path fill-rule="evenodd" clip-rule="evenodd" fill="#7670B3" stroke="#000000" stroke-width="0.7087" stroke-miterlimit="22.9256" d="
				M412.0166,7.5498l-24.35254,45.96777l-2.56738-10.94482l20.02637-38.46924C408.45703,3.23193,410.77441,4.41406,412.0166,7.5498z
				"/>
			<path fill-rule="evenodd" clip-rule="evenodd" d="M403.58203,7.16748c0.93652-1.79688,1.80078-3.70215,1.80078-3.70215
				c-2.72168,0-4.82813,2.79248-5.44238,4.14551c0.24316,0.59277,0.82324,0.61328,1.26855,0.73438
				C402.02344,8.56738,402.85059,8.35791,403.58203,7.16748z"/>
		</g>
		<g>
			
				<path fill-rule="evenodd" clip-rule="evenodd" fill="#7670B3" stroke="#000000" stroke-width="0.7087" stroke-miterlimit="22.9256" d="
				M434.53613,7.5498l24.35156,45.96777l2.56641-10.94482L441.43359,4.10352C438.0957,3.23193,435.7793,4.41406,434.53613,7.5498z"
				/>
			<path fill-rule="evenodd" clip-rule="evenodd" d="M442.97168,7.16748c-0.93652-1.79688-1.80078-3.70215-1.80078-3.70215
				c2.7207,0,4.82617,2.79248,5.44336,4.14551c-0.24023,0.59277-0.82227,0.61328-1.2666,0.73438
				C444.52832,8.56738,443.70117,8.35791,442.97168,7.16748z"/>
			
				<path fill-rule="evenodd" clip-rule="evenodd" fill="#7670B3" stroke="#000000" stroke-width="0.7087" stroke-miterlimit="22.9256" d="
				M464.99023,7.5498l-24.34766,45.96777l-2.56738-10.94482l20.02148-38.46924
				C461.43066,3.23193,463.75098,4.41406,464.99023,7.5498z"/>
			<path fill-rule="evenodd" clip-rule="evenodd" d="M456.55664,7.16748c0.93945-1.79688,1.80273-3.70215,1.80273-3.70215
				c-2.72461,0-4.83008,2.79248-5.44336,4.14551c0.24121,0.59277,0.82227,0.61328,1.26563,0.73438
				C455.00098,8.56738,455.8291,8.35791,456.55664,7.16748z"/>
		</g>
		<g>
			
				<path fill-rule="evenodd" clip-rule="evenodd" fill="#7670B3" stroke="#000000" stroke-width="0.7087" stroke-miterlimit="22.9256" d="
				M540.48633,7.5498l24.35352,45.96777l2.56738-10.94482L547.38184,4.10352C544.04883,3.23193,541.73145,4.41406,540.48633,7.5498z
				"/>
			<path fill-rule="evenodd" clip-rule="evenodd" d="M548.92285,7.16748c-0.94043-1.79688-1.7998-3.70215-1.7998-3.70215
				c2.71973,0,4.82617,2.79248,5.44043,4.14551c-0.24121,0.59277-0.82324,0.61328-1.26758,0.73438
				C550.48047,8.56738,549.65527,8.35791,548.92285,7.16748z"/>
			
				<path fill-rule="evenodd" clip-rule="evenodd" fill="#7670B3" stroke="#000000" stroke-width="0.7087" stroke-miterlimit="22.9256" d="
				M570.94238,7.5498l-24.35254,45.96777l-2.56641-10.94482l20.02539-38.46924
				C567.38184,3.23193,569.69824,4.41406,570.94238,7.5498z"/>
			<path fill-rule="evenodd" clip-rule="evenodd" d="M562.50586,7.16748c0.94238-1.79688,1.80176-3.70215,1.80176-3.70215
				c-2.7207,0-4.82715,2.79248-5.44531,4.14551c0.24609,0.59277,0.82422,0.61328,1.26758,0.73438
				C560.94922,8.56738,561.78125,8.35791,562.50586,7.16748z"/>
		</g>
		<g>
			
				<path fill-rule="evenodd" clip-rule="evenodd" fill="#7670B3" stroke="#000000" stroke-width="0.7087" stroke-miterlimit="22.9256" d="
				M487.51465,7.5498l24.34863,45.96777l2.56543-10.94482L494.40625,4.10352C491.07324,3.23193,488.75391,4.41406,487.51465,7.5498z
				"/>
			<path fill-rule="evenodd" clip-rule="evenodd" d="M495.94531,7.16748c-0.93652-1.79688-1.79688-3.70215-1.79688-3.70215
				c2.7207,0,4.82422,2.79248,5.44043,4.14551c-0.24219,0.59277-0.82324,0.61328-1.26758,0.73438
				C497.50391,8.56738,496.67578,8.35791,495.94531,7.16748z"/>
			
				<path fill-rule="evenodd" clip-rule="evenodd" fill="#7670B3" stroke="#000000" stroke-width="0.7087" stroke-miterlimit="22.9256" d="
				M517.96777,7.5498l-24.35156,45.96777l-2.56641-10.94482L511.0752,4.10352C514.4082,3.23193,516.72461,4.41406,517.96777,7.5498z
				"/>
			<path fill-rule="evenodd" clip-rule="evenodd" d="M509.53223,7.16748c0.93652-1.79688,1.80273-3.70215,1.80273-3.70215
				c-2.72266,0-4.82813,2.79248-5.44629,4.14551c0.24609,0.59277,0.82422,0.61328,1.26855,0.73438
				C507.97656,8.56738,508.80273,8.35791,509.53223,7.16748z"/>
		</g>
	</g>
</g>
</svg>
