<?xml version="1.0" encoding="utf-8"?>
<!-- Generator: Adobe Illustrator 15.0.0, SVG Export Plug-In . SVG Version: 6.00 Build 0)  -->
<!DOCTYPE svg PUBLIC "-//W3C//DTD SVG 1.1//EN" "http://www.w3.org/Graphics/SVG/1.1/DTD/svg11.dtd">
<svg version="1.1" id="Слой_1" xmlns="http://www.w3.org/2000/svg" xmlns:xlink="http://www.w3.org/1999/xlink" x="0px" y="0px"
	 width="639px" height="520px" viewBox="0 0 639 520" enable-background="new 0 0 639 520" xml:space="preserve">
<g>
	<path fill-rule="evenodd" clip-rule="evenodd" fill="#808285" d="M588.16016,7.66846
		c-16.03516-0.16211-26.01563-0.16455-29.93262-0.0083c-18.94727-0.4502-101.94141,0.6875-102.61035,0.68555L48.81348,7.29102
		l-1.01807,2.3667l0.16846,4.32715l509.30176,0.2959c19.28809,0.14404,29.71094-0.00391,31.25977-0.44385l1.17578-2.53076
		L588.16016,7.66846z"/>
	<path fill-rule="evenodd" clip-rule="evenodd" fill="#FFFFFF" d="M607.95508,7.73535
		c3.50391-1.03809,6.56152-2.40088,9.17285-4.08594c0.36133-0.39111,6.77637,1.18604,19.25098,4.72266
		c0.36133,0.5918-0.02441,1.02783-1.16406,1.31006c-12.1377,4.88672-18.67871,6.28955-19.62793,4.20703
		c-5.00391-1.93848-7.5752-2.92188-7.72559-2.94824c0.61621,1.43799,0.9209,2.15771,0.9209,2.15771
		c0.55566,2.2749,0.14941,3.88086-1.22461,4.81152c-2.46973,1.80078-4.09668,1.87793-4.875,0.23145
		c-0.6084-2.13916,0.08496-3.19971,2.08008-3.17773c1.91016-1.28125,2.01172-2.50586,0.30469-3.68018
		c-2.32813-0.34668-3.89355-0.35889-4.69629-0.02832c-0.40918-0.19238-0.32031,0.49902,0.27539,2.08057
		c-1.07031,1.10498-1.91797,1.37061-2.53809,0.79053c-1.27344,0.55566-2.33594,0.65527-3.19141,0.29199
		c-1.0791,0.1665-1.75195,0.01855-2.01172-0.44385c-1.95508,0.9834-3.00488,0.83545-3.15918-0.44434
		c0.75391-3.22363,0.6123-5.72412-0.42188-7.50439c0.67285-1.18604,1.49609-1.38672,2.46582-0.6001
		c0.74609,0.40967,1.11914,0.61426,1.11914,0.61426c0.38086-0.57568,0.9043-0.70557,1.56543-0.38525
		c0.62012,0.33887,0.9043,0.30811,0.85547-0.09521c0.41797-0.53125,0.95313-0.6123,1.61426-0.24316
		c0.23145,0.41162,0.44238,0.46436,0.64063,0.16406c0.46191-0.99756,1.20898-0.9834,2.24316,0.05078
		c0.01172,0.8457,0.14551,1.27734,0.39648,1.29541c3.64258,0.78271,5.33301,0.29199,5.07813-1.47168
		c-0.85156-1.37305-1.74805-1.90039-2.69727-1.58594c-2.31543-0.8291-2.875-1.84912-1.68262-3.05762
		c1.26465-0.89209,2.74121-0.94482,4.42871-0.1582C607.84961,2.69434,608.7168,5.08936,607.95508,7.73535z"/>
	<path fill-rule="evenodd" clip-rule="evenodd" fill="#A7A9AC" d="M607.02246,9.25c3.50781-1.02197,6.57324-2.36816,9.19336-4.03906
		c0.36035-0.38721,6.76855,1.2207,19.22266,4.82568c0.36035,0.59229-0.02832,1.02637-1.16406,1.30176
		c-12.16602,4.82227-18.71582,6.19092-19.65234,4.104c-4.99219-1.9624-7.56348-2.96045-7.71387-2.98877
		c0.6084,1.44189,0.91309,2.16162,0.91309,2.16162c0.54297,2.2793,0.12988,3.88525-1.24902,4.80762
		c-2.48242,1.78662-4.1084,1.85352-4.87891,0.20508c-0.59668-2.14355,0.10547-3.19971,2.09668-3.16943
		c1.91406-1.26709,2.02344-2.49414,0.32422-3.67627c-2.32324-0.36084-3.89355-0.37891-4.69629-0.05273
		c-0.40918-0.19678-0.32031,0.49707,0.26758,2.08057c-1.08301,1.09912-1.92969,1.3584-2.54297,0.77637
		c-1.27734,0.55176-2.33984,0.64307-3.19531,0.27783c-1.0791,0.16016-1.74805,0.0083-2.00781-0.45605
		c-1.95801,0.9751-3.0127,0.82129-3.15918-0.46045c0.77539-3.21777,0.64551-5.72021-0.38086-7.50635
		c0.67773-1.18213,1.50098-1.37891,2.46973-0.58838c0.74219,0.41602,1.11523,0.62061,1.11523,0.62061
		c0.38574-0.57373,0.9082-0.69971,1.56934-0.375c0.6123,0.34082,0.90039,0.31201,0.85645-0.09326
		c0.41699-0.5293,0.95703-0.60645,1.61328-0.2334c0.22754,0.41162,0.44238,0.46875,0.64063,0.16846
		c0.46289-0.99756,1.21289-0.9751,2.24316,0.06299c0.00781,0.84326,0.1377,1.27539,0.39355,1.29541
		c3.63379,0.80518,5.32813,0.32275,5.08105-1.4458c-0.84375-1.37451-1.73926-1.90771-2.68848-1.59766
		c-2.31152-0.84131-2.86328-1.86523-1.66699-3.06982c1.26953-0.88428,2.75-0.92871,4.42871-0.13184
		C606.94141,4.20703,607.79688,6.60596,607.02246,9.25z"/>
	<path fill-rule="evenodd" clip-rule="evenodd" fill="#A7A9AC" d="M29.93555,9.25c-3.51025-1.02197-6.57422-2.36816-9.19385-4.03906
		c-0.36084-0.38721-6.77246,1.2207-19.22461,4.82568c-0.36084,0.59229,0.02637,1.02637,1.16602,1.30176
		c12.16406,4.82227,18.71582,6.19092,19.65234,4.104c4.99023-1.9624,7.56152-2.96045,7.70947-2.98877
		c-0.60645,1.44189-0.91064,2.16162-0.91064,2.16162c-0.54346,2.2793-0.12744,3.88525,1.25146,4.80762
		c2.47949,1.78662,4.10596,1.85352,4.87842,0.20508c0.59229-2.14355-0.10547-3.19971-2.09863-3.16943
		c-1.91406-1.26709-2.02393-2.49414-0.32422-3.67627c2.32373-0.36084,3.89111-0.37891,4.6958-0.05273
		c0.40967-0.19678,0.32275,0.49707-0.26563,2.08057c1.08105,1.09912,1.92627,1.3584,2.54492,0.77637
		c1.27148,0.55176,2.33789,0.64307,3.19385,0.27783c1.07861,0.16016,1.74951,0.0083,2.00732-0.45605
		c1.9585,0.9751,3.01123,0.82129,3.15723-0.46045c-0.7749-3.21777-0.64502-5.72021,0.38281-7.50635
		c-0.6792-1.18213-1.50439-1.37891-2.47168-0.58838c-0.74219,0.41602-1.11328,0.62061-1.11328,0.62061
		c-0.38721-0.57373-0.9082-0.69971-1.56934-0.375c-0.61621,0.34082-0.90234,0.31201-0.85352-0.09326
		c-0.41992-0.5293-0.95898-0.60645-1.61621-0.2334c-0.22705,0.41162-0.44385,0.46875-0.64258,0.16846
		c-0.46436-0.99756-1.21289-0.9751-2.24072,0.06299c-0.00635,0.84326-0.14014,1.27539-0.39355,1.29541
		c-3.63574,0.80518-5.33057,0.32275-5.0835-1.4458c0.84375-1.37451,1.73975-1.90771,2.69092-1.59766
		c2.30957-0.84131,2.86328-1.86523,1.66699-3.06982c-1.27344-0.88428-2.75-0.92871-4.42871-0.13184
		C30.01221,4.20703,29.15869,6.60596,29.93555,9.25z"/>
	<path fill-rule="evenodd" clip-rule="evenodd" d="M556.39844,8.32959L48.52539,8.41064
		c-0.26172,0.86768-0.3833,1.8291-0.36084,2.90771c0.44189,0.18018,249.6499,1.50439,409.69092,1.16357
		c71.35156-0.15186,125.00879,1.25537,130.9375-1.16357c0.02051-1.07861-0.10156-2.04004-0.36133-2.90771l-31.40527-0.08105
		H556.39844L556.39844,8.32959z M555.66406,7.20996l32.48047,0.08105c0.08496-1.10889,1.43945-1.85938,2.40039-1.26514
		c0.39355,0.24561,0.79102,0.80713,0.99316,1.1377c0.1377-0.55176,0.82715-0.76855,1.375-0.67725
		c0.45801,0.07715,0.74219,0.42773,1.00977,0.58984c0.02832-0.15625,0.07715-0.36279,0.1709-0.5415
		c0.17383-0.35254,0.61621-0.51074,1.00977-0.55957c0.83105-0.10938,1.07813,0.65088,1.19141,1
		c0.0166-0.12793,0.0332-0.21924,0.04883-0.25781c0.24805-0.53711,0.72656-0.96289,1.6748-0.70361
		c0.02832,0.00635,0.05273,0.01611,0.07715,0.03027c0.25977,0.04883,0.55176,0.14404,0.84375,0.43018
		c0.30859,0.30225,0.2998,0.72168,0.29199,1.14941c-0.00391,0.12207-0.00391,0.24365,0,0.35693
		c1.28125,0.36523,2.33203,0.51709,3.14355,0.46436c0.47363-0.03223,0.86328-0.12939,1.16309-0.29785
		c0.22754-0.23926,0.36914-0.48242,0.43066-0.73193c-0.04883-0.47266-0.20313-0.854-0.4668-1.14355
		c-0.23535-0.25586-0.55566-0.44824-0.96484-0.57813c-0.94141,0.12793-1.72363,0.16016-2.32813-0.18262
		c-0.85156-0.48242-1.32227-1.38281-1.26563-2.22412c-0.05664-0.40186,0.00879-0.74609,0.19922-1.03809
		c0.36914-0.57227,1.19629-0.89258,2.45703-1.00781l0,0c1.40723-0.18896,2.65234,0.20264,3.64648,1.00537
		c1.0293,0.83545,1.77637,2.11719,2.14063,3.6499l0.00391,0.02246c0.12598,0.78662,0.18262,1.46387,0.16699,2.02979
		c-0.00879,0.30225-0.03223,0.57178-0.08105,0.81299c1.47168-0.58203,2.89941-1.19629,4.28223-1.84912
		c1.55273-0.73389,3.03711-1.50684,4.45313-2.32178l0.10547-0.06104l0.11328,0.03271
		c4.35156,1.21045,8.13965,2.22021,11.37109,3.03516c3.21191,0.80908,5.85645,1.41748,7.92871,1.82324l0.01172,0.00391
		l0.02441,0.00635c0.4541,0.15186,0.77441,0.31396,0.96094,0.49072c0.1582,0.1499,0.23145,0.31396,0.22754,0.49268
		c-0.00781,0.17236-0.08887,0.33447-0.24707,0.48438c-0.21973,0.20508-0.6084,0.40771-1.16797,0.6084
		c-4.76172,1.70508-8.6748,3.07813-11.74512,4.12256c-3.04492,1.03613-5.23145,1.73535-6.55762,2.10059l-0.10547,0.03027
		l-0.10059-0.05078c-2.51465-1.26514-4.62402-2.2832-6.33105-3.04932c-1.27734-0.57422-2.32813-1.01025-3.15918-1.30225
		c0.7666,1.33447,1.04199,2.56104,0.83594,3.67627c-0.22754,1.20459-1.01465,2.26123-2.35254,3.16943
		c-0.10938,0.07324-0.21875,0.146-0.33301,0.21484l-0.01563,0.0083c-1.24512,0.67725-2.18164,0.83545-2.91992,0.57568
		c-0.1709-0.05859-0.32422-0.13965-0.4707-0.23926c-1.73926-0.67725-1.88184-3.37207-0.16211-4.3877
		c0.82715-0.48682,1.75586-0.19873,1.89844-0.3042c0.09668-0.0708,0.18555-0.14209,0.2627-0.21289
		c0.03711-0.08105,0.07324-0.15625,0.11035-0.2334l0,0c0.23926-0.50293,0.46582-0.9873,0.46973-1.34033
		c-0.14941-0.48047-0.58398-0.95068-1.27734-1.39893c-0.08496-0.02637-0.17383-0.05078-0.26367-0.0708l-3.83984,0.20264
		c0.04004,0.19434,0.09668,0.39111,0.15332,0.58594c0.18652,0.63867,0.36133,1.23682,0.06152,1.76416
		c-0.3125,0.55127-0.62891,0.73779-0.9375,0.79297l-0.02441,0.00977c-0.79883,0.25586-1.71484,0.03271-2.03125-0.41553
		c-0.16602,0.48682-0.9043,0.83154-1.49219,0.93066c-0.49121,0.08301-1.13184-0.16211-1.30566-0.70947
		c-0.28809,0.68945-1.11621,0.71143-1.63477,0.64258c-0.32031-0.04443-0.48633-0.51074-0.56738-0.83545
		c-0.57617,0.67334-2.06445,1.71973-2.94824,1.15381c-0.62891-0.40137-0.97754-1.25488-0.75488-1.69092L557.25,15.16504
		L48.95508,15.24609c0.21924,0.43604-0.12744,1.28955-0.75635,1.69092c-0.88379,0.56592-2.37012-0.48047-2.9458-1.15381
		c-0.08154,0.32471-0.24951,0.79102-0.56982,0.83545c-0.52148,0.06885-1.34668,0.04688-1.63232-0.64258
		c-0.17871,0.54736-0.81738,0.79248-1.30615,0.70947c-0.58789-0.09912-1.32813-0.44385-1.49414-0.93066
		c-0.31641,0.44824-1.23291,0.67139-2.02979,0.41553l-0.02441-0.00977c-0.30811-0.05518-0.62842-0.2417-0.93896-0.79297
		c-0.29785-0.52734-0.12549-1.12549,0.06299-1.76416c0.05273-0.19482,0.10938-0.3916,0.1543-0.58594l-3.84082-0.20264
		c-0.09131,0.02002-0.17822,0.04443-0.26367,0.0708c-0.69336,0.44824-1.12744,0.91846-1.2793,1.39893
		c0.00195,0.35303,0.23096,0.8374,0.47266,1.34033l0,0c0.03613,0.07715,0.0708,0.15234,0.10938,0.2334
		c0.07715,0.0708,0.16602,0.14209,0.25928,0.21289c0.146,0.10547,1.07275-0.18262,1.89795,0.3042
		c1.72363,1.01563,1.57959,3.71045-0.16016,4.3877c-0.146,0.09961-0.30176,0.18066-0.46826,0.23926
		c-0.73828,0.25977-1.6748,0.10156-2.92188-0.57568l-0.01611-0.0083c-0.11182-0.06885-0.22314-0.1416-0.33252-0.21484
		c-1.34033-0.9082-2.12305-1.96484-2.34814-3.16943c-0.21094-1.11523,0.06494-2.3418,0.83105-3.67627
		c-0.8291,0.29199-1.88135,0.72803-3.15918,1.30225c-1.70508,0.76611-3.81201,1.78418-6.33057,3.04932l-0.09717,0.05078
		l-0.10938-0.03027c-1.32422-0.36523-3.51025-1.06445-6.55957-2.10059c-3.06592-1.04443-6.98145-2.41748-11.74072-4.12256
		c-0.56152-0.20068-0.95068-0.40332-1.16797-0.6084c-0.1582-0.1499-0.24121-0.31201-0.24902-0.48438
		c-0.00635-0.17871,0.0708-0.34277,0.229-0.49268c0.18457-0.17676,0.50488-0.33887,0.96094-0.49072L1.2168,9.42432l0.01025-0.00391
		c2.07031-0.40576,4.71436-1.01416,7.92822-1.82324c3.23047-0.81494,7.02002-1.82471,11.36963-3.03516l0.11523-0.03271
		l0.10547,0.06104c1.41357,0.81494,2.89795,1.58789,4.45117,2.32178c1.38281,0.65283,2.81006,1.26709,4.28418,1.84912
		C29.43457,8.52002,29.4043,8.25049,29.396,7.94824c-0.01416-0.56592,0.04248-1.24316,0.17041-2.02979L29.56836,5.896
		c0.36279-1.53271,1.11328-2.81445,2.14307-3.6499c0.9917-0.80273,2.23682-1.19434,3.646-1.00537l0,0
		c1.25928,0.11523,2.08643,0.43555,2.45557,1.00781c0.19043,0.29199,0.25732,0.63623,0.19873,1.03809
		c0.05664,0.84131-0.41162,1.7417-1.26514,2.22412C36.146,5.85352,35.35938,5.82129,34.4209,5.69336
		c-0.41211,0.12988-0.73242,0.32227-0.96729,0.57813c-0.26367,0.28955-0.41797,0.6709-0.46631,1.14355
		c0.05859,0.24951,0.20264,0.49268,0.42969,0.73193c0.2998,0.16846,0.68945,0.26563,1.16406,0.29785
		c0.81299,0.05273,1.86328-0.09912,3.14258-0.46436c0.0083-0.11328,0.00439-0.23486,0.00195-0.35693
		c-0.00781-0.42773-0.01807-0.84717,0.29004-1.14941c0.29639-0.28613,0.58398-0.38135,0.84375-0.43018
		c0.02637-0.01416,0.05078-0.02393,0.07715-0.03027c0.95068-0.25928,1.42725,0.1665,1.6748,0.70361
		c0.01807,0.03857,0.03418,0.12988,0.05078,0.25781c0.11328-0.34912,0.35889-1.10938,1.19189-1
		c0.38965,0.04883,0.8335,0.20703,1.01025,0.55957c0.09082,0.17871,0.13965,0.38525,0.16797,0.5415
		c0.27002-0.16211,0.55371-0.5127,1.00977-0.58984c0.54541-0.09131,1.23682,0.12549,1.375,0.67725
		c0.20654-0.33057,0.60205-0.89209,0.99365-1.1377c0.96094-0.59424,2.31738,0.15625,2.40283,1.26514L555.66406,7.20996
		L555.66406,7.20996z M599,9.00244c-0.09277-0.09521-0.1582-0.51904-0.27539-0.48438
		c-0.55176,1.07666-0.26758,3.20361,0.08887,3.9541l0,0l0.04102,0.30811c0.04004,0.33252,0.13379,0.66504,0.22656,0.98145
		c0.14258,0.48877,0.27637,0.94873,0.13867,1.26709c-0.87207,0.0791-1.65527,0.06934-1.76465-0.25146
		c-0.51074-1.52246-0.75781-4.78516-0.54688-7.31592c0.00391-0.04053-0.02051-0.18652-0.14258-0.11768
		c-0.04883,0.02881-0.2998,0.11182-0.43359,0.21729c-0.05664,0.04443-0.06934,0.19434-0.06934,0.18213
		c-0.06055,0.91895-0.11719,2.08496-0.10156,2.28955c0.11816,1.64453,0.46289,3.34766,0.43457,5.32861
		c-0.33691,0.1582-1.16406,0.90234-1.90234,0.05908c-0.42188-0.48877-0.70117-0.24756-0.70117-0.25781
		c-0.0127,0.07324-0.02832,0.13623-0.04102,0.19092c-0.04004-0.03467-0.09668-0.06689-0.16992-0.09326
		c-0.39746-0.14404-1.10742,0.18213-1.26172-0.59424c-0.25488-1.30566-0.34863-2.28516-0.36035-3.32568
		c0.01172-0.29785-0.22754-0.2085-0.23926,0.14209c-0.02441,1.12549-0.06934,2.27539-0.25195,3.82617
		c-1.68652,0.51514-2.20996,0.01221-2.09277-0.64258c0.36914-2.06641,0.19922-4.79541-0.70508-6.61035
		c-0.03223-0.06299-0.05273-0.12158-0.06934-0.18066V7.54053c0.21875-0.66504,1.8125-0.70752,2.71289-0.2168
		c0,0.01611,0,0.03418,0,0.05273c0.13867,0.17236,0.38965,1.64844,0.39355,3.88086c0-0.04248,0.08496-0.08496,0.1543-0.1582
		c0.05273-0.05273,0.09375,0.07715,0.09375,0.04297c0.00391-0.99365,0.08887-2.08496,0.16992-2.86523
		c0.1543-1.42969,1.2168-0.95947,1.56152-0.98779c-0.00391,0.00635-0.00391,0.01416-0.00391,0.0166
		c0.6084,1.87939,0.64844,4.40576,0.125,7.5791c-0.00391,0.02051-0.08887,0.21729,0.04492,0.20313
		c0.08105-0.00635,0.11328-0.01611,0.22266-0.04883c0.12988-0.03662,0.33691,0.1582,0.33691,0.17236
		c-0.06055-1.41309,0.09375-5.96143,0.07715-6.46045c-0.01172-0.4541-0.04492-0.91846-0.09766-1.39307
		c-0.02832-0.24707,0.80371-0.77637,1.56152-0.24121c0.03223,0.02637,0.07715,0.04297,0.11816,0.05078
		c-0.00879,0.11768-0.02051,0.25342-0.0293,0.40137c0.02441-0.24902,0.65723-0.25732,0.69434-0.50293
		c0.04004-0.25928,0.24707-0.46826,0.51074-0.54541c0.10547,0.03467,0.21875,0.04883,0.34082,0.06494
		c0.12109,0.01416,0.25488,0.03271,0.39355,0.0835c0.11328,0.08496,0.22266,0.20654,0.31543,0.3667
		c0.05273,0.08936,0.10156,0.18066,0.1543,0.25781c0.00391,0.09912,0.00391,0.21045,0,0.32031
		c-0.00391,0.2168-0.00781,0.43604,0.02832,0.64063l0.0332,0.17627l0.17383,0.05078c1.42773,0.42383,2.60742,0.6001,3.52441,0.5415
		c0.99316-0.06104,1.69531-0.39746,2.10059-0.99365l0.04883-0.06689V7.91553c0.09766-0.12939,0.1582-0.27148,0.16602-0.41357
		c0.02832-0.65869-0.00781-1.95654-1.37891-2.6499c-2.90332,0.15381-4.05078-1.67285-2.53027-2.85742
		c0.04883-0.04053,0.12988-0.07275,0.23535-0.10107c0.18652-0.03027,0.38867-0.05664,0.6123-0.07715h0.01172
		c1.24121-0.16846,2.33594,0.17432,3.2041,0.87793c0.92871,0.75439,1.60547,1.92627,1.94238,3.33545
		c0.11816,0.74414,0.1709,1.37891,0.1543,1.9043c-0.00781,0.50684-0.08496,0.9043-0.21875,1.19238l-0.24805,0.52686
		c-0.14551,0.12793-0.23047,0.23535-0.12109,0.28223c1.61816-0.37305,6.11133-1.83301,11.17285-4.45898
		c3.83984,1.06055,7.20996,1.95459,10.09766,2.68262c2.48633,0.62842,4.63086,1.1333,6.43945,1.51855
		c0.70215,0.35498,0.61719,0.67725,0.34082,1.00586c-9.50586,3.31348-14.88281,4.58447-17.25977,4.96191
		c-1.17578-0.36719-5.1377-1.71777-10.94531-4.01709c-0.1543,0.07324-0.08496,0.43604,0.06934,0.73389l-0.12207-0.03613
		l0.4541,0.6709c0.08105,0.11963,0.16211,0.24561,0.23926,0.36914c0.81543,1.32227,1.12793,2.51025,0.92871,3.56055
		c-0.19434,1.04639-0.90039,1.979-2.10449,2.79639c-0.09375,0.06494-0.19531,0.12988-0.30078,0.19482
		c-0.5752,0.31006-1.0625,0.49854-1.4834,0.57959c-0.3252,0.02246-0.63672-0.00391-0.9375-0.07471
		c-1.50879-0.90674-1.38672-2.94824,0.74609-3.55664c0.55957-0.01221,1.20898-0.31445,1.51758-0.71777
		c0.68848-0.89453,0.53125-2.41113-0.22363-3.22412c-0.99707-1.07666-1.5127-0.92676-2.79004-0.77051
		c-0.52734,0.0625-1.62207,0.06494-2.35254-0.04883C598.76563,10.77686,598.83789,10.05078,599,9.00244L599,9.00244z
		 M37.95703,9.00244c0.16016,1.04834,0.23535,1.77441-0.87598,3.10254c-0.72998,0.11377-1.8252,0.11133-2.35205,0.04883
		c-1.27783-0.15625-1.79443-0.30615-2.79004,0.77051c-0.75635,0.81299-0.91455,2.32959-0.22754,3.22412
		c0.3125,0.40332,0.96143,0.70557,1.51904,0.71777c2.13525,0.6084,2.25684,2.6499,0.74805,3.55664
		c-0.30225,0.0708-0.61426,0.09717-0.93896,0.07471c-0.42139-0.08105-0.91016-0.26953-1.48389-0.57959
		c-0.10547-0.06494-0.20508-0.12988-0.29834-0.19482c-1.2085-0.81738-1.91016-1.75-2.10449-2.79639
		c-0.19873-1.05029,0.11133-2.23828,0.92627-3.56055c0.0791-0.12354,0.1582-0.24951,0.2417-0.36914l0.4541-0.6709l-0.12354,0.03613
		c0.15186-0.29785,0.22266-0.66064,0.06885-0.73389c-5.80322,2.29932-9.76953,3.6499-10.9458,4.01709
		c-2.37451-0.37744-7.75586-1.64844-17.25781-4.96191c-0.27783-0.32861-0.36475-0.65088,0.34082-1.00586
		C4.66406,9.29248,6.80908,8.7876,9.29541,8.15918c2.8916-0.72803,6.25732-1.62207,10.1001-2.68262
		c5.05908,2.62598,9.55029,4.08594,11.17236,4.45898c0.10742-0.04688,0.02441-0.1543-0.12549-0.28223l-0.24561-0.52686
		c-0.13379-0.28809-0.2085-0.68555-0.2207-1.19238c-0.01221-0.52539,0.03857-1.16016,0.1582-1.9043
		c0.33252-1.40918,1.01367-2.58105,1.94434-3.33545c0.86572-0.70361,1.95898-1.04639,3.19971-0.87793h0.01416
		c0.22119,0.02051,0.42383,0.04688,0.6123,0.07715c0.10352,0.02832,0.18457,0.06055,0.23535,0.10107
		c1.51855,1.18457,0.37109,3.01123-2.53076,2.85742c-1.37256,0.69336-1.40918,1.99121-1.37842,2.6499
		c0.00586,0.14209,0.06689,0.28418,0.16406,0.41357l0.00195,0.04688l0.04688,0.06689
		c0.40527,0.59619,1.10889,0.93262,2.10059,0.99365c0.91846,0.05859,2.09863-0.11768,3.52832-0.5415l0.17236-0.05078
		l0.03027-0.17627c0.03857-0.20459,0.03418-0.42383,0.02832-0.64063c-0.00195-0.10986-0.00391-0.22119,0-0.32031
		c0.05078-0.07715,0.10352-0.16846,0.1582-0.25781c0.09131-0.16016,0.19873-0.28174,0.31445-0.3667
		c0.1377-0.05078,0.26953-0.06934,0.39111-0.0835c0.12158-0.01611,0.23535-0.03027,0.34277-0.06494
		c0.26172,0.07715,0.47021,0.28613,0.50879,0.54541c0.03662,0.24561,0.67139,0.25391,0.6958,0.50293
		c-0.0083-0.14795-0.02051-0.28369-0.03076-0.40137c0.04297-0.00781,0.0874-0.02441,0.11963-0.05078
		c0.75635-0.53516,1.58789-0.00586,1.55957,0.24121c-0.05273,0.47461-0.08301,0.93896-0.09521,1.39307
		c-0.0166,0.49902,0.13574,5.04736,0.07666,6.46045c-0.00391-0.01416,0.20508-0.20898,0.33496-0.17236
		c0.10938,0.03271,0.1416,0.04248,0.22266,0.04883c0.13818,0.01416,0.05078-0.18262,0.04688-0.20313
		c-0.52295-3.17334-0.48242-5.69971,0.12354-7.5791c0-0.00244-0.00391-0.01025-0.00391-0.0166
		c0.34473,0.02832,1.40918-0.44189,1.56348,0.98779c0.08105,0.78027,0.16602,1.87158,0.16797,2.86523
		c0,0.03418,0.04053-0.0957,0.09131-0.04297c0.07129,0.07324,0.15625,0.11572,0.15625,0.1582
		c0.00635-2.23242,0.25537-3.7085,0.39551-3.88086c0-0.01855,0-0.03662-0.00195-0.05273
		c0.90234-0.49072,2.49414-0.44824,2.71289,0.2168V7.875c-0.01416,0.05908-0.03857,0.11768-0.06885,0.18066
		c-0.90234,1.81494-1.07275,4.54395-0.70361,6.61035c0.11768,0.65479-0.40576,1.15771-2.09082,0.64258
		c-0.18408-1.55078-0.229-2.70068-0.25732-3.82617c-0.00586-0.35059-0.24756-0.43994-0.23926-0.14209
		c-0.0083,1.04053-0.10156,2.02002-0.36084,3.32568c-0.15234,0.77637-0.86182,0.4502-1.25732,0.59424
		c-0.07715,0.02637-0.13184,0.05859-0.17041,0.09326c-0.01611-0.05469-0.02832-0.11768-0.04248-0.19092
		c0,0.01025-0.27783-0.23096-0.70361,0.25781c-0.73389,0.84326-1.56152,0.09912-1.89795-0.05908
		c-0.03223-1.98096,0.31006-3.68408,0.43408-5.32861c0.01416-0.20459-0.04053-1.37061-0.10156-2.28955
		c0,0.01221-0.01611-0.1377-0.06885-0.18213c-0.13184-0.10547-0.38525-0.18848-0.43604-0.21729
		c-0.11963-0.06885-0.146,0.07715-0.14404,0.11768c0.21289,2.53076-0.03418,5.79346-0.54541,7.31592
		c-0.10742,0.3208-0.88818,0.33057-1.76221,0.25146c-0.1377-0.31836-0.00586-0.77832,0.13818-1.26709
		c0.09131-0.31641,0.18652-0.64893,0.22705-0.98145l0.03857-0.30811l0,0c0.35693-0.75049,0.64258-2.87744,0.09326-3.9541
		C38.11523,8.4834,38.04834,8.90723,37.95703,9.00244z"/>
</g>
<g>
	<path fill-rule="evenodd" clip-rule="evenodd" fill="#FFFFFF" d="M421.52734,135.49951
		c-2.49805-65.79932-5.27637-103.58789-8.33008-113.37158c7.46191-1.95264,13.9873,0.03027,20.2041,3.60742
		c8.15527-3.82617,13.53711-5.82373,15.51563-3.6582c9.14941,1.95508,16.91504,1.44775,23.29883-1.51465
		c8.30566,5.14453,13.77637,4.86475,16.4082-0.83936c3.3623-0.31836,7.95215,1.02393,13.77246,4.02686
		c3.54785-0.07471,7.64453-1.76611,12.28711-5.06494c4.69238,0.44189,9.25098,1.98926,14.12988,3.35986
		c1.78418,0.50293,3.80762,0.42578,5.62012,1.05225c2.26367-1.27539,6.41992-2.01953,12.4707-2.23633
		c3.97852-0.68555,7.67676-0.00439,11.10742,2.03955c5.24023-3.0293,9.66016-3.02295,14-1.0625
		c2.7373,2.12939,5.47852,1.83105,7.48242,0.18262c5.78711,25.30566,7.5918,56.91992,5.40527,94.84229
		c1.58203,78.27344,1.12402,177.36963-1.37402,297.28467c7.04395,77.99414,0.71289,110.05176-18.98828,96.19434
		c-12.78223-9.76074-25.68652-12.06836-38.71289-6.91797c-24.15039-6.58203-39.95801-6.58203-47.41602,0
		c-21.91504-2.11719-34.63281-2.01563-38.16113,0.2998c-7.78223,3.88086-11.13281,0.55566-10.0459-9.97266
		c-1.36621-67.27051-0.19434-125.57617,3.52051-174.91797c0.45801-44.44336,0.05273-83.91504-1.2207-118.4165
		C426.41016,176.41846,422.74805,154.77881,421.52734,135.49951z"/>
	<path fill-rule="evenodd" clip-rule="evenodd" fill="#FFFFFF" d="M220.84424,135.49951
		c2.50244-65.79932,5.27637-103.58789,8.33203-113.37158c-7.46191-1.95264-18.04248,0.03027-24.25977,3.60742
		c-8.15332-3.82617-13.53467-5.82373-15.51563-3.6582c-9.14697,1.95508-16.91357,1.44775-23.29639-1.51465
		c-8.30566,5.14453-13.77637,4.86475-16.4082-0.83936c-3.3623-0.31836-7.95508,1.02393-13.77441,4.02686
		c-3.54639-0.07471-7.64063-1.76611-12.28809-5.06494c-4.68994,0.44189-9.25244,1.98926-14.12695,3.35986
		c-1.78662,0.50293-3.80811,0.42578-5.61865,1.05225c-2.26514-1.27539-2.36865-2.01953-8.41699-2.23633
		c-3.97656-0.68555-11.60254,0.2373-15.03174,2.27881c-5.23926-3.0293-10.23389-3.26221-14.5752-1.30176
		c-2.73926,2.12939-4.50928,2.44531-6.5127,0.79883c-5.78711,25.3042-8.62207,57.81836-6.43799,95.73877
		c-1.58203,78.27344-0.48486,171.25439,2.01123,291.17334c-7.04443,77.98926,3.20996,114.65039,22.90918,100.79297
		c12.78467-9.76074,25.69092-12.06836,38.71729-6.91797c24.1499-6.58203,39.95605-6.58203,47.41602,0
		c21.91309-2.11719,34.6333-2.01563,38.15723,0.2998c7.78467,3.88086,11.13428,0.55566,10.04932-9.97266
		c1.3667-67.27051,0.19287-125.57617-3.52002-174.91797c-0.46045-44.44336-0.05273-83.91504,1.21875-118.4165
		C215.96777,176.41846,219.62354,154.77881,220.84424,135.49951z"/>
	<path fill-rule="evenodd" clip-rule="evenodd" d="M429.11426,493.99512c-2.23828,1.09863-2.44922-1.22559-3.7793-0.57617
		c-13.5332,6.65918-17.1582,3.28516-27.0332-1.13965c-3.35449-1.50488-9.61523-0.9209-17.83984,1.17578
		c-22.7793,4.17773-36.73047,8.13086-32.60938,0.79492c4.28223-3.60938,2.95996-2.50977-6.75293-0.37305
		c-20.31543,4.1123-30.28564,8.48828-33.20752-0.1543c-0.49268-1.6377-1.79053-2.59082-3.89111-2.86328
		c-9.8125,3.91406-20.09863,8.5127-27.80225,6.77344c-14.98486-3.30957-23.14844-7.37695-27.53418-5.18359
		c-4.64355,3.87305-15.58496,6.00195-31.68311,2.96484v-5.49512c3.46143,1.38672,7.8374,3.97461,13.08691,4.49316
		c8.27734,0.14258,14.71338-3.92578,17.7793-6.11523c4.75049-2.92773,14.01758,0.56348,29.31836,4.3916
		c7.12549,0.92871,15.62744-2.68848,25.34033-5.3125c3.23242-0.54297,5.28027,3.09863,6.31006,5.38574
		c5.20947,2.2627,17.73242,0.4707,37.56738-3.34961c3.65039-0.62891,6.55371,0.62402,6.17676,2.86719
		c-3.14746,2.52637-1.10742,3.04102,2.56738,2.82617c18.38281-3.65332,29.25586-6.09082,38.68848-7.19434
		c3.50781-0.68945,5.625,0.70996,8.47168,3.9873c6.71582,2.57031,16.96777,0.70898,26.82617-3.53711V493.99512z"/>
	<path fill-rule="evenodd" clip-rule="evenodd" d="M305.96143,26.12256c-0.84717-2.35205-1.63818-1.31592-1.48633,1.26953
		c2.53662,42.19043,2.21436,107.0874,1.91455,181.45557c-0.33887,84.26953,1.57129,190.36816-6.81543,281.58594
		c1.72754-0.01953,5.91895-0.08496,6.86572,0.38184c5.93945-46.73535,4.07568-216.86426,0.95117-438.80908
		C307.30811,46.12793,306.04492,32.06396,305.96143,26.12256z"/>
	<path fill-rule="evenodd" clip-rule="evenodd" d="M262.10645,489.79688c-3.57324,0.82813-7.2085,0.84766-10.90918,0.05762
		c0.71387-51.07031-1.47021-108.23145-1.75586-161.31738c-0.27393-51.27637,1.37646-98.74316,0.12549-133.80615
		c-0.33838-9.46973,1.22656-16.59082,1.80078-0.81104c0.89014,24.48242,0.08301,48.41162,0.9043,69.86426
		C257.83594,409.17188,259.75391,483.66113,262.10645,489.79688z"/>
	<path fill-rule="evenodd" clip-rule="evenodd" d="M351.34375,492.2793c-0.52734-2.00781-2.18164-2.62402-4.95996-1.85352
		c11.67969-192.8916,16.47754-335.63281,12.19043-398.16943c-0.64844-9.43506,2.6084-56.9707,2.23535-62.16943
		C364.53613,217.24463,357.42676,405.65137,351.34375,492.2793z"/>
	<path fill-rule="evenodd" clip-rule="evenodd" d="M402.28418,493.45898c-3.88574-4.19727-6.75684-5.53125-10.73926-3.1875
		c2.46191-101.21875,6.94727-193.02148,7.35645-271.6665c0.31641-59.91895-3.12598-113.90234-3.50781-148.60498
		c-0.14551-13.17383,1.17676-36.40527,0.87207-43.72314c0.72168-2.04395,0.95313-5.57031,2.00781,2.82422
		C398.09082,91.21631,398.85352,52,398.77637,54.2832c-1.12793,32.84521,0.64844,69.05176,0.53906,96.08936
		c-0.09766,23.08154,2.91211,45.82227,2.96875,64.75293c0.1416,46.07959-2.36426,79.92236-1.93848,116.24658
		c0.39746,33.75391-3.69434,74.53516-3.43066,96.51953C397.61621,486.69043,402.28418,493.45898,402.28418,493.45898z"/>
	<path fill-rule="evenodd" clip-rule="evenodd" d="M247.54736,76.01221c-0.26953-4.73633-5.31055-45.70654-6.01611-45.92529
		l-2.98877-0.92285c-0.36914-0.11328-0.41162,0.59229-0.62891,0.91064c9.06006,5.63086,8.49805,77.56006,5.06543,91.45166
		C242.21826,124.61279,251.31885,100.21729,247.54736,76.01221z"/>
	<path fill-rule="evenodd" clip-rule="evenodd" d="M254.9585,3.70605c3.61328,0,6.54541,4.60938,6.54541,10.29297
		c0,5.68555-2.93213,10.29443-6.54541,10.29443c-3.39844,0-6.18652-4.06543-6.5127-9.27051h1.3501
		c0.29199,3.82617,2.19824,6.78467,4.50977,6.78467c2.51025,0,4.54834-3.49561,4.54834-7.80859
		c0-4.31104-2.03809-7.80469-4.54834-7.80469c-0.84375,0-1.63037,0.39307-2.30762,1.07666h-1.99121
		C251.20313,5.08936,252.97949,3.70605,254.9585,3.70605z"/>
	<path fill-rule="evenodd" clip-rule="evenodd" d="M301.41553,3.70605c3.61523,0,6.54541,4.60938,6.54541,10.29297
		c0,5.68555-2.93018,10.29443-6.54541,10.29443c-3.39648,0-6.18848-4.06543-6.51514-9.27051h1.35254
		c0.29199,3.82617,2.19824,6.78467,4.50781,6.78467c2.51416,0,4.5498-3.49561,4.5498-7.80859
		c0-4.31104-2.03564-7.80469-4.5498-7.80469c-0.8418,0-1.62842,0.39307-2.30762,1.07666h-1.99121
		C297.66211,5.08936,299.43652,3.70605,301.41553,3.70605z"/>
	<path fill-rule="evenodd" clip-rule="evenodd" d="M282.71387,3.70605c3.61328,0,6.54541,4.60938,6.54541,10.29297
		c0,5.68555-2.93213,10.29443-6.54541,10.29443c-3.39648,0-6.18848-4.06543-6.51514-9.27051h1.35254
		c0.29199,3.82617,2.2002,6.78467,4.50977,6.78467c2.51221,0,4.54834-3.49561,4.54834-7.80859
		c0-4.31104-2.03613-7.80469-4.54834-7.80469c-0.84375,0-1.63232,0.39307-2.30762,1.07666h-1.99316
		C278.9585,5.08936,280.73291,3.70605,282.71387,3.70605z"/>
	<path fill-rule="evenodd" clip-rule="evenodd" d="M325.63086,3.70605c3.61523,0,6.54492,4.60938,6.54492,10.29297
		c0,5.68555-2.92969,10.29443-6.54492,10.29443c-3.39648,0-6.18701-4.06543-6.51367-9.27051h1.35059
		c0.29004,3.82617,2.2002,6.78467,4.50977,6.78467c2.5127,0,4.54785-3.49561,4.54785-7.80859
		c0-4.31104-2.03516-7.80469-4.54785-7.80469c-0.84375,0-1.62988,0.39307-2.30957,1.07666h-1.99121
		C321.875,5.08936,323.64941,3.70605,325.63086,3.70605z"/>
	<path fill-rule="evenodd" clip-rule="evenodd" d="M344.10449,3.70605c3.61816,0,6.5498,4.60938,6.5498,10.29297
		c0,5.68555-2.93164,10.29443-6.5498,10.29443c-3.3916,0-6.18457-4.06543-6.51074-9.27051h1.35254
		c0.29199,3.82617,2.19824,6.78467,4.50977,6.78467c2.51074,0,4.5498-3.49561,4.5498-7.80859
		c0-4.31104-2.03906-7.80469-4.5498-7.80469c-0.84375,0-1.62988,0.39307-2.30762,1.07666h-1.99316
		C340.35547,5.08936,342.12988,3.70605,344.10449,3.70605z"/>
	<path fill-rule="evenodd" clip-rule="evenodd" d="M377.34766,3.70605c3.61328,0,6.54492,4.60938,6.54492,10.29297
		c0,5.68555-2.93164,10.29443-6.54492,10.29443c-3.39453,0-6.18945-4.06543-6.51367-9.27051h1.35059
		c0.29199,3.82617,2.19824,6.78467,4.50977,6.78467c2.51074,0,4.5459-3.49561,4.5459-7.80859
		c0-4.31104-2.03516-7.80469-4.5459-7.80469c-0.84375,0-1.62988,0.39307-2.30762,1.07666h-1.99512
		C373.5918,5.08936,375.36426,3.70605,377.34766,3.70605z"/>
	<path fill-rule="evenodd" clip-rule="evenodd" d="M393.7998,3.70605c3.61328,0,6.5459,4.60938,6.5459,10.29297
		c0,5.68555-2.93262,10.29443-6.5459,10.29443c-3.39453,0-6.18848-4.06543-6.5127-9.27051h1.35059
		c0.29199,3.82617,2.19824,6.78467,4.50977,6.78467c2.50977,0,4.5498-3.49561,4.5498-7.80859
		c0-4.31104-2.04004-7.80469-4.5498-7.80469c-0.84375,0-1.63086,0.39307-2.30762,1.07666h-1.99512
		C390.04883,5.08936,391.82129,3.70605,393.7998,3.70605z"/>
	<path fill-rule="evenodd" clip-rule="evenodd" d="M223.49658,22.2334c3.0415,0.28174,6.06494-0.06299,9.06982-1.03418
		c7.57373-2.09033,17.70215-3.04541,23.75684-0.20068c9.96436,1.87158,15.4126,2.48779,22.96777-0.80713
		c2.78418-1.03809,4.15479-0.61621,4.11621,1.26953c3.83643,2.53076,9.05566,2.45752,15.6543-0.2168
		c1.6543-0.71191,2.69873-0.65723,3.13281,0.16797c9.01514,2.37842,16.07959,2.34619,21.19531-0.09326
		c2.2998-2.65625,4.23438-2.21191,5.79492,1.32422c3.94824,2.57324,8.22656,2.16357,12.83984-1.23096
		c0.68945-1.48828,1.84082-1.62402,3.44727-0.40967c10.27637,5.20752,19.78613,4.97021,28.52539-0.71582
		c3.7998-0.94287,9.29492-0.08301,16.47363,2.57959c1.82031-4.19727,5.11328-4.42871,9.875-0.69141
		c6.88184,3.35986,11.63867,3.18945,14.2793-0.51514v5.42188c-4.66406,2.77832-10.19141-0.43604-16.33594-4.06152
		c-3.07324-1.76416-5.19043-1.79053-6.3584-0.07666c0.51074,2.36621-3.0459,2.13721-10.67383-0.68945
		c-3.99902-1.58398-7.85156,1.75781-12.06152,4.70215c-7.68066,2.39893-15.81543-0.26172-23.90625-2.6626
		c-1.74414-1.73779-4.6416-1.13721-8.69043,1.79883c-2.41113,0.80469-5.66406-0.39746-9.75586-3.61133
		c-2.1123-0.70801-4.85254-0.10352-8.22021,1.8125c-6.146,0.96924-11.40771,0.65918-15.78564-0.92871
		c-2.27295-1.27539-5.43408-0.96729-9.48975,0.92871c-4.91895,1.31396-8.45947,0.91455-10.61719-1.19824
		c-0.86377-1.80859-6.44775,0.87012-13.2041,3.48145c-5.49756,1.32422-7.604-1.57324-14.55322-2.89941
		c-4.88867-2.60791-11.69775-2.8125-15.74121-1.84326c-6.47607,1.49463-11.72412,2.12109-15.73486,1.87744V22.2334z"/>
	<path fill-rule="evenodd" clip-rule="evenodd" d="M224.23486,22.50732c1.4458,0.13574,1.55127-0.38525,0.32031-1.56152
		c-5.42236-0.9248-11.36523-0.35303-17.82959,1.71729c-8.39893-3.03125-13.979-3.66406-16.73877-1.89795
		c-7.97119,2.30957-15.59912,2.02002-22.88916-0.87598c-2.29102-1.42529-5.43018-0.73584-9.4165,2.06641
		c-1.38086-3.96631-9.98633-5.99805-13.81299-2.82471c-9.8667,4.14063-11.5498,3.72314-18.71338-0.93652
		c-2.31152-1.9043-8.38477,0.33057-16.5542,3.13086c-2.5874-2.75-6.18457-2.9668-8.14355-0.7627
		c-0.2373,0.26758-8.21191-0.64697-13.89795-0.42969c-2.48779,0.09521-4.33496,0.57373-5.4585,1.00977
		c-0.49072,0.18848-5.36523-1.46631-10.68408-1.32617c-3.29297,0.0874-8.09033,3.27686-8.10693,3.32324
		c0.11182-0.03857,5.66992-1.86719,10.41455-1.47998c3.01709,0.24707,4.63135,1.49414,7.77637,1.47998
		c3.66016-0.01611,7.87744-0.89404,9.35352-0.86768c5.55029,0.09521,10.85254,0.79883,11.12646,0.86768
		c1.35254,0.33887,1.92432,0.35889,3.42871,0.94092c8.82471-3.60938,19.7417-6.81299,23.69189-2.4209
		c3.83838,2.72119,5.77051,3.49756,9.99023,2.23633c5.0957-1.52246,12.88428-6.16602,18.52148-0.59375
		c3.98438,1.01953,7.62598,0.45801,10.9209-1.68311c8.53857,4.77295,16.63965,4.55811,23.51953,0.63232
		c6.41162-0.72998,11.22119,1.3042,14.43506,3.93994C210.64307,23.36914,216.89453,21.41846,224.23486,22.50732z"/>
	<path fill-rule="evenodd" clip-rule="evenodd" d="M62.96289,3.75488c3.61523,0,6.54541,4.60889,6.54541,10.29492
		c0,5.68359-2.93018,10.29248-6.54541,10.29248c-3.39453,0-6.18896-4.06543-6.51514-9.27295h1.35254
		c0.29199,3.83057,2.19775,6.78711,4.50928,6.78711c2.5127,0,4.54639-3.49609,4.54639-7.80664
		c0-4.31299-2.03369-7.80908-4.54639-7.80908c-0.84326,0-1.63184,0.39355-2.30713,1.0791h-1.99561
		C59.20947,5.13574,60.98145,3.75488,62.96289,3.75488z"/>
	<path fill-rule="evenodd" clip-rule="evenodd" d="M80.48438,3.75488c3.61523,0,6.54736,4.60889,6.54736,10.29492
		c0,5.68359-2.93213,10.29248-6.54736,10.29248c-3.39648,0-6.18652-4.06543-6.51123-9.27295h1.34863
		c0.29199,3.83057,2.19971,6.78711,4.51172,6.78711c2.51025,0,4.5459-3.49609,4.5459-7.80664
		c0-4.31299-2.03564-7.80908-4.5459-7.80908c-0.84375,0-1.63232,0.39355-2.30762,1.0791h-1.99316
		C76.73096,5.13574,78.50488,3.75488,80.48438,3.75488z"/>
	<path fill-rule="evenodd" clip-rule="evenodd" d="M102.93896,3.75488c3.61572,0,6.54541,4.60889,6.54541,10.29492
		c0,5.68359-2.92969,10.29248-6.54541,10.29248c-3.39844,0-6.18652-4.06543-6.51514-9.27295h1.35254
		c0.29004,3.83057,2.19824,6.78711,4.50781,6.78711c2.51416,0,4.55029-3.49609,4.55029-7.80664
		c0-4.31299-2.03613-7.80908-4.55029-7.80908c-0.8418,0-1.63232,0.39355-2.30762,1.0791h-1.99121
		C99.18359,5.13574,100.95996,3.75488,102.93896,3.75488z"/>
	<path fill-rule="evenodd" clip-rule="evenodd" d="M136.84229,3.75488c3.61572,0,6.54541,4.60889,6.54541,10.29492
		c0,5.68359-2.92969,10.29248-6.54541,10.29248c-3.39404,0-6.18652-4.06543-6.5127-9.27295h1.3501
		c0.29395,3.83057,2.20215,6.78711,4.51172,6.78711c2.51025,0,4.54639-3.49609,4.54639-7.80664
		c0-4.31299-2.03613-7.80908-4.54639-7.80908c-0.84326,0-1.63428,0.39355-2.30957,1.0791h-1.99316
		C133.08887,5.13574,134.86328,3.75488,136.84229,3.75488z"/>
	<path fill-rule="evenodd" clip-rule="evenodd" d="M176.02783,3.75488c3.61572,0,6.54541,4.60889,6.54541,10.29492
		c0,5.68359-2.92969,10.29248-6.54541,10.29248c-3.39648,0-6.18848-4.06543-6.51318-9.27295h1.35059
		c0.29199,3.83057,2.2002,6.78711,4.50781,6.78711c2.51416,0,4.55029-3.49609,4.55029-7.80664
		c0-4.31299-2.03613-7.80908-4.55029-7.80908c-0.83936,0-1.63037,0.39355-2.30566,1.0791h-1.99512
		C172.27246,5.13574,174.04883,3.75488,176.02783,3.75488z"/>
	<path fill-rule="evenodd" clip-rule="evenodd" d="M223.49658,3.75488c3.61523,0,6.54541,4.60889,6.54541,10.29492
		c0,5.68359-2.93018,10.29248-6.54541,10.29248c-3.39648,0-6.18652-4.06543-6.51514-9.27295h1.35254
		c0.29199,3.83057,2.2002,6.78711,4.51172,6.78711c2.51025,0,4.54639-3.49609,4.54639-7.80664
		c0-4.31299-2.03613-7.80908-4.54639-7.80908c-0.8457,0-1.63428,0.39355-2.30957,1.0791h-1.99512
		C219.74121,5.13574,221.51758,3.75488,223.49658,3.75488z"/>
	<path fill-rule="evenodd" clip-rule="evenodd" d="M198.24561,3.75488c3.61523,0,6.54736,4.60889,6.54736,10.29492
		c0,5.68359-2.93213,10.29248-6.54736,10.29248c-3.39648,0-6.18652-4.06543-6.51318-9.27295h1.35254
		c0.29004,3.83057,2.19824,6.78711,4.50781,6.78711c2.51221,0,4.5498-3.49609,4.5498-7.80664
		c0-4.31299-2.0376-7.80908-4.5498-7.80908c-0.84375,0-1.63232,0.39355-2.30762,1.0791h-1.99316
		C194.49219,5.13574,196.2666,3.75488,198.24561,3.75488z"/>
	<path fill-rule="evenodd" clip-rule="evenodd" stroke="#000000" stroke-width="0.5669" stroke-miterlimit="22.9256" d="
		M491.23535,19.22412c-1.91406-0.57373-6.375-0.30811-8.38672,1.05469c-1.39063,0.94482-0.25879,3.18555-1.85742,2.86084
		c-1.67871-0.33838-8.95801-1.94629-11.09961-1.52051c-1.25293,0.24951,0.67773,0.03418,1.26172,6.32227
		c1.12305,24.88428,3.72656,85.9873,6.63867,124.8623c1.60547,21.48584,6.52148,39.41064,7.58789,59.81543
		c3.9502,75.42871-2.26758,270.38086-0.85156,279.18164c0.42578,1.27734,3.38574-1.69922,6.28125-4.92383
		c10.91699-12.14551,5.3125-39.69824,5.34082-56.39063c0.12988-75.53223,2.04004-204.2793,0.32031-222.55127
		c-4.52539-22.65137-6.97852-108.73584-7.62793-159.05127C488.69727,37.43311,484.38184,28.09961,491.23535,19.22412z"/>
	<path fill-rule="evenodd" clip-rule="evenodd" d="M409.78613,26.34766c2.67285,8.82471,6.86621,132.35498,9.39648,140.41504
		c25.11914,80.03369-7.16113,235.08496,6.15234,338.96875c1.16016,9.04297,10.21191,8.62598,11.95508,3.12207
		c0.28027-0.87598-3.24805-4.67578-3.0166-5.99805c2.12891-12.22266-0.73047-14.36426-1.63867-74.23047
		c-0.72559-47.54102,9.00293-115.14941,8.76758-161.15039c-0.24707-48.45361-11.08691-93.50977-12.22656-97.06836
		c-7.35645-19.92627-6.01465-117.44287-11.96777-147.49365c-0.80273-4.03906-2.45313-0.73193-2.8916-0.52686
		c-0.37305,0.17432-3.67383-1.53906-4.56641-0.76074C408.60254,22.62891,409.85938,26.16699,409.78613,26.34766z"/>
	<path fill-rule="evenodd" clip-rule="evenodd" d="M534.1416,25.02979c-1.67871,0.26758-9.69629-4.47754-12.17773-2.4375
		c-2.48242,2.03564-2.66113,17.85791-2.49023,24.87598c0.85938,34.96582-4.67969,122.5835-4.10059,182.78809
		c0.63281,15.43311,0.98633,22.08789,0.7666,23.36133c3.72754-0.92871,10.52051,1.31006,15.07422-1.58984
		c0.54395-21.55029-1.83691-47.02441-1.53711-71.50732C529.62012,130.19482,530.80859,48.52051,534.1416,25.02979z"/>
	<path fill-rule="evenodd" clip-rule="evenodd" d="M493.56738,490.43359c0.80273-0.23047,14.38477,4.76953,17.99023,9.20605
		c4.31055,5.30469,0.54297,7.63672,0,9.21387c-0.9248,0.41016-1.63867,2.24316-7,1.2207
		c-3.60938-0.69336-12.2793-4.47656-13.375-4.05078c-6.0459,2.34375-14.25,5.02832-21.40039,5.52344
		c-7.56738,0.53125-13.59766-2.44531-16.41211-5.67773c-1.44824-5.85254-16.96777,7.14551-19.77832,5.86816
		c-1.78027,0.06836-0.40918-4.4082-2.36035-6.99121c-1.68262-2.23535-10.38965-6.20117,3.52051-5.18359
		c3.38184,0.39355,21.54199-6.56152,23.31836,0.63281C466.31543,504.98047,488.67285,493.67383,493.56738,490.43359z"/>
	<path fill-rule="evenodd" clip-rule="evenodd" d="M531.27051,248.99463c-4.15234-0.02881-10.58887,0.31201-15.13086,4.62305
		c-0.31641,19.36865,3.03809,52.59912,3.30566,75.42627c0.51465,43.7832-1.74414,93.78613-3.8125,132.66992
		c-2.54688,44.01758-9.45313,45.99609-11.32227,48.29199c9.79785,2.68457,18.40723,2.05566,27.42285-3.5166
		c7.1084-1.48828,12.71777-1.11523,19.07227,0.37695c9.18164,9.47363,27.69043,12.08984,36.45801,11.13281
		c0.69336-1.45996-4.39551-8.5293-5.74219-9.30371c-8.09082-0.05664-15.66992-3.50391-21.63184-4.57422
		c-2.75293-0.49512-6.37109,2.23047-7.82715,0.29199c-8.92969-1.87793-16.12793-6.71973-21.59082-14.53027
		c-3.62109-41.67773,2.89941-74.86328,3.99902-118.33789C534.17871,331.81836,529.23535,276.44531,531.27051,248.99463z"/>
	<path fill-rule="evenodd" clip-rule="evenodd" d="M564.71973,22.40186c-1.72363-0.48291-3.43848,1.23682-4.87891,2.70703
		c-2.94824,3.00293-5.4541-4.28271-9.44434-0.7666c1.11914,87.99023,4.0791,165.80811,1.74805,200.22852
		c-0.22754,3.29492,1.84082,10.31055,1.87305,15.65576c0.09375,16.46924,3.00098,49.94238,0.80664,80.55664
		c-2.19336,30.69531-9.49316,58.55273-9.90723,96.05664c0.41016,5.89258-0.58398,63.28516,0,65.38574
		c1.36328,4.92383,4.69629-53.96094,7.01172-69.85449c2.43359-33.94824,9.5791-58.17871,11.52637-85.01758
		c3.20313-44.16016,0.39258-83.46875-1.08691-96.79297l0,0C565.47461,178.54346,564.93066,100.78271,564.71973,22.40186z"/>
	<path fill-rule="evenodd" clip-rule="evenodd" d="M580.40234,15.05957c-1.13965,7.02979-3.9707,1.76807-5.75488,6.75391
		c1.03809,3.31543,2.79785,16.30713,3.56934,20.15186c3.45508,17.24951,1.75586,46.3877,2.59473,84.60986
		c0.20703,44.34229,0.30078,72.89844,0.28418,85.66504c-0.00391,4.15039-0.02051,6.63232-0.04883,7.44775
		c0.84375,0.40137,3.3252-1.56738,5.41797-2.00537c1.88184-0.39551,3.42285,0.80908,3.60547-0.11572
		c0.77051-35.82959-1.46387-51.83643-1.62207-80.54688c-0.22363-40.98193,1.61035-87.86279-4.60742-115.91797
		C583.29785,18.63428,581.05469,17.23291,580.40234,15.05957z"/>
	<path fill-rule="evenodd" clip-rule="evenodd" d="M455.21094,427.02734c-0.93262,3.19531,0.71387,25.80469-0.36035,26.06055
		c-2.44922,0.58398-7.39746-26.5957-6.30664-34.92969c4.35547-22.86426,6.77637-40.29883,8.48438-54.33008
		c5.7832-47.59863,1.33398-90.60254-2.99707-138.13232c-3.86914-42.40137-6.73242-94.27197-12.26367-108.16211
		c-1.24121-3.00098-12.73828-84.55322-9.90723-93.85645c0.28809-0.92871,13.80469-2.52051,13.78418-2.70703
		c0.70605-0.16211-1.09082,2.51855-0.55176,5.22119c3.44727,17.31885,4.66797,83.21924,8.12305,83.96143
		c5.25586,41.71436,7.36914,77.15869,8.12695,104.81885C463.93457,309.26563,476.84277,317.09277,455.21094,427.02734z"/>
	<path fill-rule="evenodd" clip-rule="evenodd" d="M587.3291,207.95947c-0.80762-0.61816-5.50781,10.13867-6.28223,11.72852
		c-0.25488,39.63574-1.82031,282.49072-8.60156,292.13428c1.2002,2.02344,12.53516,5.54785,14.81836,6.17676
		c2.30371-51.98242,0.05664-84.46289,0-102.35547c0.53125-90.2041,3.38672-167.72363,2.80664-198.07666
		C589.91602,209.32813,587.10547,215.49854,587.3291,207.95947z"/>
	<path fill-rule="evenodd" clip-rule="evenodd" d="M538.59863,498.40332c0.81543,2.2832,21.72949,13.27734,24.85645,12.17773
		c-4.38867-8.45898,2.94824-92.70703,3.55664-108.7334c-0.4873-4.77344-11.50586,76.34668-12.05273,81.75684
		C554.66602,504.43359,540.09961,497.36914,538.59863,498.40332z"/>
	<path fill-rule="evenodd" clip-rule="evenodd" d="M447.89941,499.16895c-1.00977,4.09277,9.43652,3.58105,11.0791,4.79395
		c2.84277-19.37695,3.18359-34.89258,3.24414-44.28125c0.0293-4.73633,1.47266-14.95605,0.09375-13.62207
		c-0.98535,0.95703-5.46289,17.34082-5.69336,20.99902C456.13965,474.6377,451.11133,499.37988,447.89941,499.16895z"/>
	<path fill-rule="evenodd" clip-rule="evenodd" d="M413.18945,22.50732c-1.44434,0.13574-1.55371-0.38525-0.31641-1.56152
		c5.41797-0.9248,11.36328-0.35303,17.82715,1.71729c8.39941-3.03125,13.97949-3.66406,16.7373-1.89795
		c7.96875,2.30957,15.60059,2.02002,22.88867-0.87598c2.29102-1.42529,5.42969-0.73584,9.4209,2.06641
		c1.38281-3.96631,9.98438-5.99805,13.80859-2.82471c4.51367,1.89404,7.04395,1.13184,9.44434,1.14795
		c2.83887,0.01807,5.38574,0.44385,9.27148-2.08447c2.31152-1.9043,8.38184,0.33057,16.55371,3.13086
		c2.58789-2.75,6.18457-2.9668,8.14355-0.7627c0.23535,0.26758,8.21191-0.64697,13.89746-0.42969
		c2.48633,0.09521,4.33594,0.57373,5.45898,1.00977c0.49023,0.18848,5.36133-1.46631,10.68164-1.32617
		c3.29785,0.0874,8.09082,3.27686,8.10742,3.32324c-0.11426-0.03857-5.66992-1.86719-10.41016-1.47998
		c-3.02148,0.24707-4.63574,1.49414-7.77832,1.47998c-3.66211-0.01611-7.87988-0.89404-9.35645-0.86768
		c-5.54785,0.09521-10.85254,0.79883-11.12402,0.86768c-1.35449,0.33887-1.92578,0.35889-3.43066,0.94092
		c-8.82422-3.60938-19.53516-4.79736-23.48535-0.40332c-3.83984,2.72119-5.72168,2.84863-9.93945,1.5874
		c-5.09766-1.52246-13.13965-7.53467-18.77637-1.9624c-3.98633,1.01953-7.62891,0.45801-10.92188-1.68311
		c-8.54004,4.77295-16.63867,4.55811-23.52148,0.63232c-6.41113-0.72998-11.2207,1.3042-14.43262,3.93994
		C426.77832,23.36914,420.5293,21.41846,413.18945,22.50732z"/>
	<path fill-rule="evenodd" clip-rule="evenodd" d="M574.46094,3.75488c-3.61328,0-6.54492,4.60889-6.54492,10.29492
		c0,5.68359,2.93164,10.29248,6.54492,10.29248c3.39844,0,6.18848-4.06543,6.5127-9.27295h-1.34961
		c-0.29199,3.83057-2.19824,6.78711-4.50977,6.78711c-2.51074,0-4.54688-3.49609-4.54688-7.80664
		c0-4.31299,2.03613-7.80908,4.54688-7.80908c0.84277,0,1.62988,0.39355,2.31152,1.0791h1.99121
		C578.2168,5.13574,576.44043,3.75488,574.46094,3.75488z"/>
	<path fill-rule="evenodd" clip-rule="evenodd" d="M556.9375,3.75488c-3.61328,0-6.54102,4.60889-6.54102,10.29492
		c0,5.68359,2.92773,10.29248,6.54102,10.29248c3.39844,0,6.18848-4.06543,6.51758-9.27295h-1.35059
		c-0.29199,3.83057-2.20215,6.78711-4.50977,6.78711c-2.51465,0-4.55078-3.49609-4.55078-7.80664
		c0-4.31299,2.03613-7.80908,4.55078-7.80908c0.83887,0,1.62988,0.39355,2.30762,1.0791h1.99121
		C560.69336,5.13574,558.9209,3.75488,556.9375,3.75488z"/>
	<path fill-rule="evenodd" clip-rule="evenodd" d="M534.48633,3.75488c-3.61328,0-6.54492,4.60889-6.54492,10.29492
		c0,5.68359,2.93164,10.29248,6.54492,10.29248c3.39453,0,6.18945-4.06543,6.51367-9.27295h-1.35059
		c-0.29199,3.83057-2.19824,6.78711-4.50977,6.78711c-2.51074,0-4.5459-3.49609-4.5459-7.80664
		c0-4.31299,2.03516-7.80908,4.5459-7.80908c0.84375,0,1.62988,0.39355,2.30762,1.0791h1.99512
		C538.24219,5.13574,536.46582,3.75488,534.48633,3.75488z"/>
	<path fill-rule="evenodd" clip-rule="evenodd" d="M503.0166,3.75488c-3.61719,0-6.5459,4.60889-6.5459,10.29492
		c0,5.68359,2.92871,10.29248,6.5459,10.29248c3.39453,0,6.18457-4.06543,6.5127-9.27295h-1.35449
		c-0.28809,3.83057-2.19727,6.78711-4.50488,6.78711c-2.51074,0-4.55078-3.49609-4.55078-7.80664
		c0-4.31299,2.04004-7.80908,4.55078-7.80908c0.83887,0,1.62988,0.39355,2.30762,1.0791h1.99121
		C506.76758,5.13574,504.99609,3.75488,503.0166,3.75488z"/>
	<path fill-rule="evenodd" clip-rule="evenodd" d="M461.39551,3.75488c-3.61328,0-6.54492,4.60889-6.54492,10.29492
		c0,5.68359,2.93164,10.29248,6.54492,10.29248c3.39844,0,6.18848-4.06543,6.51367-9.27295h-1.35059
		c-0.29199,3.83057-2.19824,6.78711-4.50977,6.78711c-2.51074,0-4.5459-3.49609-4.5459-7.80664
		c0-4.31299,2.03516-7.80908,4.5459-7.80908c0.84375,0,1.63477,0.39355,2.30762,1.0791h1.99512
		C465.15137,5.13574,463.375,3.75488,461.39551,3.75488z"/>
	<path fill-rule="evenodd" clip-rule="evenodd" d="M413.92676,3.4082c-3.61328,0-6.54492,4.60889-6.54492,10.29443
		c0,5.68408,2.93164,10.29297,6.54492,10.29297c3.39844,0,6.18848-4.06787,6.51367-9.271h-1.35059
		c-0.29199,3.82861-2.19824,6.78516-4.50977,6.78516c-2.51074,0-4.5459-3.49609-4.5459-7.80713
		c0-4.3125,2.03516-7.80859,4.5459-7.80859c0.84375,0,1.63477,0.39355,2.30762,1.08105h1.99512
		C417.68262,4.79102,415.91016,3.4082,413.92676,3.4082z"/>
	<path fill-rule="evenodd" clip-rule="evenodd" d="M439.18066,3.75488c-3.61816,0-6.5459,4.60889-6.5459,10.29492
		c0,5.68359,2.92773,10.29248,6.5459,10.29248c3.39355,0,6.18457-4.06543,6.5127-9.27295h-1.35449
		c-0.29199,3.83057-2.19824,6.78711-4.50586,6.78711c-2.51465,0-4.5498-3.49609-4.5498-7.80664
		c0-4.31299,2.03516-7.80908,4.5498-7.80908c0.83984,0,1.63086,0.39355,2.30762,1.0791h1.99121
		C442.93555,5.13574,441.15918,3.75488,439.18066,3.75488z"/>
	<path fill-rule="evenodd" clip-rule="evenodd" d="M479.67773,3.75488c-3.61328,0-6.5459,4.60889-6.5459,10.29492
		c0,5.68359,2.93262,10.29248,6.5459,10.29248c3.39844,0,6.18848-4.06543,6.5127-9.27295h-1.35059
		c-0.29199,3.83057-2.19727,6.78711-4.50879,6.78711c-2.51074,0-4.54688-3.49609-4.54688-7.80664
		c0-4.31299,2.03613-7.80908,4.54688-7.80908c0.84277,0,1.63379,0.39355,2.30664,1.0791h1.99609
		C483.43262,5.13574,481.66113,3.75488,479.67773,3.75488z"/>
	<path fill-rule="evenodd" clip-rule="evenodd" d="M158.94043,3.75488c3.61523,0,6.54736,4.60889,6.54736,10.29492
		c0,5.68359-2.93213,10.29248-6.54736,10.29248c-3.39453,0-6.18652-4.06543-6.51318-9.27295h1.35254
		c0.29004,3.83057,2.19824,6.78711,4.50977,6.78711c2.51025,0,4.54834-3.49609,4.54834-7.80664
		c0-4.31299-2.03809-7.80908-4.54834-7.80908c-0.84375,0-1.63428,0.39355-2.30957,1.0791h-1.99316
		C155.18701,5.13574,156.96143,3.75488,158.94043,3.75488z"/>
	<path fill-rule="evenodd" clip-rule="evenodd" d="M123.09229,3.75488c3.61377,0,6.54346,4.60889,6.54346,10.29492
		c0,5.68359-2.92969,10.29248-6.54346,10.29248c-3.396,0-6.18848-4.06543-6.51465-9.27295h1.3501
		c0.29199,3.83057,2.2002,6.78711,4.50977,6.78711c2.51416,0,4.55029-3.49609,4.55029-7.80664
		c0-4.31299-2.03613-7.80908-4.55029-7.80908c-0.84131,0-1.63037,0.39355-2.30762,1.0791h-1.99316
		C119.33936,5.13574,121.11328,3.75488,123.09229,3.75488z"/>
	<path fill-rule="evenodd" clip-rule="evenodd" stroke="#000000" stroke-width="0.5669" stroke-miterlimit="22.9256" d="
		M146.17773,19.54053c1.91455-0.57178,6.32861-0.62451,8.33594,0.73828c1.39307,0.94287,0.26172,3.18555,1.85938,2.86084
		c1.6792-0.34033,8.96094-1.94629,11.1001-1.52051c1.25293,0.24707-0.67725,0.03418-1.26318,6.32227
		c-1.12158,24.88428-3.729,85.9873-6.63916,124.8623c-1.60596,21.48584-6.521,39.41064-7.5874,59.81543
		c-3.9502,75.42871,2.26709,270.38086,0.85156,279.18164c-0.42383,1.27734-3.38623-1.69922-6.27979-4.92383
		c-10.91748-12.14551-5.31445-39.69824-5.34326-56.39063c-0.12744-75.53223-2.0376-204.2793-0.31592-222.55127
		c4.52344-22.65137,6.9751-108.73779,7.62402-159.05127C148.66797,37.43115,153.02979,28.41602,146.17773,19.54053z"/>
	<path fill-rule="evenodd" clip-rule="evenodd" d="M232.56641,21.19922c-2.67432,8.82275-6.54102,147.14307-9.06982,155.20117
		c-25.11914,80.03564,7.52295,225.44727-5.79102,329.33105c-1.16016,9.04297-10.21387,8.62598-11.95752,3.12207
		c-0.27783-0.87598,3.25049-4.67578,3.01953-5.99805c-2.12744-12.22266,0.72754-14.36816,1.64014-74.23047
		c0.72412-47.53711-10.625-115.14941-10.39014-161.15039c0.24561-48.45166,7.03027-93.50977,8.17188-97.06836
		c7.35449-19.92627,6.01416-117.44287,11.96533-147.49365c0.80322-4.03906,2.45166-0.73193,2.89355-0.52686
		c0.37109,0.17432,3.67236-1.53906,4.56445-0.76074c0.6792,0.59229,2.25293,0.27393,3.44727-0.04834
		C231.8916,21.35352,232.53613,21.12646,232.56641,21.19922z"/>
	<path fill-rule="evenodd" clip-rule="evenodd" d="M103.22314,25.02979c1.6748,0.26758,9.69238-4.47754,12.17627-2.4375
		c2.48193,2.03564,2.66455,17.85791,2.48975,24.87598c-0.85938,34.96582,4.68018,122.5835,4.09814,182.78809
		c-0.62842,15.43311-0.98145,22.08789-0.76416,23.36133c-3.72705-0.92871-10.52002,1.31006-15.07617-1.58984
		c-0.5415-21.55029,1.83691-47.02441,1.53711-71.50732C107.74463,130.19482,106.55469,48.52051,103.22314,25.02979z"/>
	<path fill-rule="evenodd" clip-rule="evenodd" d="M143.79736,490.43359c-0.80518-0.23047-14.38867,4.76953-17.9917,9.20605
		c-4.31104,5.30469-0.5415,7.63672,0,9.21387c0.92871,0.41016,1.63818,2.24316,6.99951,1.2207
		c3.60742-0.69336,12.27979-4.47656,13.375-4.05078c6.04639,2.34375,14.25049,5.02832,21.40039,5.52344
		c7.56543,0.53125,13.59961-2.44531,16.41211-5.67773c1.44775-5.85254,16.97021,7.14551,19.77832,5.86816
		c1.77832,0.06836,9.08008,2.39258,11.02881-0.19043c1.68311-2.23047,1.71924-13.00195-12.18848-11.98438
		c-3.38428,0.39355-21.54248-6.56152-23.31689,0.63281C171.04785,504.98047,148.69238,493.67383,143.79736,490.43359z"/>
	<path fill-rule="evenodd" clip-rule="evenodd" d="M106.09033,248.99463c4.15674-0.02881,10.59033,0.31201,15.13281,4.62305
		c0.31836,19.36865-3.0376,52.59912-3.30518,75.42627c-0.51318,43.7832,1.74561,93.78613,3.81592,132.66992
		c2.54297,44.01758,9.44727,45.99609,11.31689,48.29199c-9.79395,2.68457-18.40576,2.05566-27.4209-3.5166
		c-7.10742-1.48828-12.71777-1.11523-19.0708,0.37695c-9.18115,9.47363-27.69434,12.08984-36.45801,11.13281
		c-0.6958-1.45996,4.39209-8.5293,5.74219-9.30371c8.08887-0.05664,15.67041-3.50391,21.63184-4.57422
		c2.75146-0.49512,6.36719,2.23047,7.82471,0.29199c8.93213-1.87793,16.12842-6.71973,21.59326-14.53027
		c3.62158-41.67773-2.90186-74.86328-4.00049-118.33789C103.18652,331.81836,108.12988,276.44531,106.09033,248.99463z"/>
	<path fill-rule="evenodd" clip-rule="evenodd" d="M72.64307,22.40186c1.72363-0.48291,3.43896,1.23682,4.88086,2.70703
		c2.94824,3.00293,5.4502-4.28271,9.44482-0.7666c-1.12109,87.99023-4.08154,165.80811-1.74561,200.22852
		c0.22266,3.29492-1.84521,10.31055-1.87793,15.65576c-0.09326,16.46924-3.00293,49.94238-0.80713,80.55664
		c2.19824,30.69531,9.49609,58.55273,9.90967,96.05664c-0.41162,5.89258,0.58203,63.28516,0,65.38574
		c-1.36475,4.92383-4.69824-53.96094-7.00977-69.85449c-2.43555-33.94824-9.5791-58.17871-11.52783-85.01758
		c-3.20361-44.16016-0.39502-83.46875,1.08301-96.79297l0,0C71.89063,178.54346,72.43408,100.78271,72.64307,22.40186z"/>
	<path fill-rule="evenodd" clip-rule="evenodd" d="M56.96094,15.05957c1.13916,7.02979,3.97412,1.76807,5.7583,6.75391
		c-1.04199,3.31543-2.80029,16.30713-3.5708,20.15186c-3.45508,17.24951-1.75781,46.3877-2.59717,84.60986
		c-0.20703,44.34229-0.30029,72.89844-0.28418,85.66504c0.00635,4.15039,0.02246,6.63232,0.05078,7.44775
		c-0.84326,0.40137-3.3252-1.56738-5.41992-2.00537c-1.87988-0.39551-3.42285,0.80908-3.60547-0.11572
		c-0.76855-35.82959,1.46631-51.83643,1.62207-80.54688c0.22314-40.98193-1.61182-87.86279,4.60693-115.91797
		C54.06738,18.63428,56.30957,17.23291,56.96094,15.05957z"/>
	<path fill-rule="evenodd" clip-rule="evenodd" d="M186.20313,427.02734c0.93457,3.19531-0.70996,25.80469,0.36475,26.06055
		c2.45166,0.58398,7.39941-26.5957,6.30615-34.92969c-4.35547-22.86426-6.77637-40.29883-8.48389-54.33008
		c-5.7832-47.59863-5.38965-90.60254-1.05859-138.13232c3.86719-42.40137,6.73438-94.27197,12.26563-108.16211
		c1.2373-3.00098,12.73828-84.55322,9.90332-93.85645c-0.28174-0.92871-13.80225-2.52051-13.78223-2.70703
		c-0.70752-0.16211,1.08887,2.51855,0.55371,5.22119c-3.44727,17.31885-4.66992,83.21924-8.12695,83.96143
		c-5.25195,41.71436-7.36475,77.15869-8.125,104.81885C173.43018,309.26563,164.57764,317.09277,186.20313,427.02734z"/>
	<path fill-rule="evenodd" clip-rule="evenodd" d="M50.03613,207.95947c0.80713-0.61816,5.50732,10.13867,6.28174,11.72852
		c0.25537,39.63574,1.81885,282.49072,8.60156,292.13428c-1.2002,2.02344-12.53711,5.54785-14.81836,6.17676
		c-2.30566-51.98242-0.05713-84.46289,0-102.35547c-0.53564-90.2041-3.38623-167.72363-2.80859-198.07666
		C47.44873,209.32813,50.25928,215.49854,50.03613,207.95947z"/>
	<path fill-rule="evenodd" clip-rule="evenodd" d="M98.76416,498.40332c-0.81348,2.2832-21.729,13.27734-24.854,12.17773
		c4.38623-8.45898-2.94824-92.70703-3.5542-108.7334c0.48438-4.77344,11.50293,76.34668,12.04639,81.75684
		C82.70068,504.43359,97.26758,497.36914,98.76416,498.40332z"/>
	<path fill-rule="evenodd" clip-rule="evenodd" d="M189.46338,499.16895c1.01221,4.09277-9.43701,3.58105-11.08154,4.79395
		c-2.84082-19.37695-3.18311-34.89258-3.24023-44.28125c-0.02832-4.73633-1.47168-14.95605-0.09717-13.62207
		c0.9873,0.95703,5.46484,17.34082,5.69775,20.99902C181.22266,474.6377,186.25146,499.37988,189.46338,499.16895z"/>
	<path fill-rule="evenodd" clip-rule="evenodd" d="M224.17383,22.50732c1.44385,0.13574,1.55127-0.38525,0.31836-1.56152
		c-5.41992-0.9248-11.36328-0.35303-17.82764,1.71729c-8.39893-3.03125-13.979-3.66406-16.74072-1.89795
		c-7.9668,2.30957-15.59717,2.02002-22.88672-0.87598c-2.2915-1.42529-5.43018-0.73584-9.41895,2.06641
		c-1.38086-3.96631-9.98633-5.99805-13.81055-2.82471c-4.51563,1.89404-7.04639,1.13184-9.44287,1.14795
		c-2.84326,0.01807-5.38574,0.44385-9.27295-2.08447c-2.30957-1.9043-8.38232,0.33057-16.55029,3.13086
		c-2.59131-2.75-6.18848-2.9668-8.14746-0.7627c-0.23486,0.26758-8.21191-0.64697-13.89551-0.42969
		c-2.48828,0.09521-4.33545,0.57373-5.45898,1.00977c-0.49072,0.18848-5.36328-1.46631-10.68359-1.32617
		c-3.29541,0.0874-8.09082,3.27686-8.10889,3.32324c0.11328-0.03857,5.66943-1.86719,10.41406-1.47998
		c3.02148,0.24707,4.63135,1.49414,7.77832,1.47998c3.6582-0.01611,7.87598-0.89404,9.354-0.86768
		c5.5498,0.09521,10.8501,0.79883,11.12402,0.86768c1.35449,0.33887,1.92627,0.35889,3.43066,0.94092
		c8.82471-3.60938,19.53711-4.79736,23.4873-0.40332c3.83643,2.72119,5.72217,2.84863,9.93945,1.5874
		c5.09814-1.52246,13.13965-7.53467,18.7749-1.9624c3.98633,1.01953,7.62598,0.45801,10.92334-1.68311
		c8.53857,4.77295,16.63916,4.55811,23.52148,0.63232c6.40918-0.72998,11.21924,1.3042,14.43115,3.93994
		C210.58398,23.36914,216.83154,21.41846,224.17383,22.50732z"/>
</g>
</svg>
