<?xml version="1.0" encoding="UTF-8"?>
<!DOCTYPE svg PUBLIC "-//W3C//DTD SVG 1.1//EN" "http://www.w3.org/Graphics/SVG/1.1/DTD/svg11.dtd">
<!-- Creator: CorelDRAW X6 -->
<svg xmlns="http://www.w3.org/2000/svg" xml:space="preserve" width="200px" height="203px" version="1.1" style="shape-rendering:geometricPrecision; text-rendering:geometricPrecision; image-rendering:optimizeQuality; fill-rule:evenodd; clip-rule:evenodd"
viewBox="0 0 2917 2954"
 xmlns:xlink="http://www.w3.org/1999/xlink">
 <defs>
  <style type="text/css">
   <![CDATA[
    .fil2 {fill:#663725}
    .fil1 {fill:#AE664C}
    .fil0 {fill:url(#id0)}
   ]]>
  </style>
  <linearGradient id="id0" gradientUnits="userSpaceOnUse" x1="103.142" y1="1447.46" x2="2812.82" y2="1447.46">
   <stop offset="0" style="stop-color:#8CD2F3"/>
   <stop offset="0.470588" style="stop-color:#B9E2F3"/>
   <stop offset="0.870588" style="stop-color:#E9F5FB"/>
   <stop offset="0.988235" style="stop-color:#F1F1F1"/>
   <stop offset="1" style="stop-color:#F5FBFE"/>
  </linearGradient>
 </defs>
 <g id="Слой_x0020_1">
  <metadata id="CorelCorpID_0Corel-Layer"/>
  <g id="_742005504">
   <path class="fil0" d="M103 1222c47,783 45,1318 34,1583 1752,0 2649,-11 2649,-11 18,-1039 27,-1559 27,-1559 -230,-765 -669,-1145 -1317,-1141 -809,49 -1274,425 -1393,1128z"/>
   <path class="fil1" d="M2917 2825l-36 0 0 -1529 0 -46c11,-7 23,-15 36,-25 -23,-254 -174,-537 -452,-849 -288,-276 -663,-399 -1126,-369 -773,102 -1219,502 -1338,1201 4,5 7,10 10,15l-10 0 0 1712 103 0 0 -20 598 0 85 0 643 0 85 0 574 0 0 39 94 0 0 -39 625 0 0 20 74 0 0 -20 36 0 0 -90zm-2787 -1602l571 0 0 -880c-398,263 -589,554 -571,874 0,2 0,4 0,6zm656 0l643 0 0 -1114c-225,6 -439,67 -643,181l0 933zm728 0l574 0 0 -990c-198,-77 -390,-118 -574,-124l0 1114zm668 0l617 0c0,-2 0,-4 1,-6 -90,-380 -296,-696 -617,-946l0 952zm625 73l-625 0 0 1529 625 0 0 -1529zm-719 0l-574 0 0 1529 574 0 0 -1529zm-659 0l-643 0 0 1529 643 0 0 -1529zm-728 0l-587 0c-3,4 -7,7 -11,8l0 1521 598 0 0 -1529z"/>
   <g>
    <rect class="fil2" x="2196" y="1259" width="617" height="58"/>
    <rect class="fil2" x="751" y="284" width="55" height="2510"/>
    <rect class="fil2" x="104" y="2794" width="2707" height="51"/>
    <rect class="fil2" x="381" y="1296" width="27" height="1499"/>
    <rect class="fil2" x="1063" y="1296" width="27" height="1499"/>
    <rect class="fil2" x="1790" y="1296" width="27" height="1517"/>
    <rect class="fil2" x="2478" y="1296" width="27" height="1507"/>
    <rect class="fil2" transform="matrix(1.57665E-014 -1.41112 0.45299 2.84382E-014 2178.97 2084.26)" width="19" height="1396"/>
    <rect class="fil2" transform="matrix(1.37903E-014 -1.41112 0.396211 2.84382E-014 125.885 2084.26)" width="19" height="1396"/>
    <rect class="fil2" transform="matrix(1.57665E-014 -1.41112 0.45299 2.84382E-014 769.725 2454.83)" width="19" height="1396"/>
    <rect class="fil2" transform="matrix(1.48751E-014 -1.41112 0.427378 2.84382E-014 1483.84 2454.83)" width="19" height="1396"/>
    <rect class="fil2" transform="matrix(1.60238E-014 -1.41112 0.460383 2.84382E-014 769.725 1722.74)" width="19" height="1396"/>
    <rect class="fil2" transform="matrix(1.48751E-014 -1.41112 0.427378 2.84382E-014 1483.84 1722.74)" width="19" height="1396"/>
    <rect class="fil2" y="2914" width="2881" height="39"/>
    <path class="fil2" d="M102 1187c43,-357 242,-651 572,-876 11,-6 28,-4 27,0 -2,11 -27,44 -27,71 -284,168 -460,452 -531,836 -3,-3 -2,26 -5,30 -7,8 -25,-7 -29,-10 -8,-6 -6,-52 -6,-52z"/>
    <path class="fil2" d="M1198 19c-64,9 -124,23 -184,42 -60,18 -119,41 -180,69 -61,27 -124,59 -192,95 -87,50 -166,109 -237,175 -71,67 -133,141 -187,224 -54,83 -100,173 -138,272 -12,33 -95,325 -76,318 2,-1 3,-1 5,-2 2,-1 3,-1 5,-2 1,-1 3,-1 4,-2 1,0 2,6 2,16 0,10 -1,23 -1,36 -1,13 -1,26 -1,36 0,10 0,16 1,16 4,-1 6,-9 8,-19 2,-10 2,-23 3,-36 0,-13 0,-26 0,-35 0,-9 -1,-16 -1,-16 15,-96 34,-188 70,-276 72,-180 168,-345 305,-481 70,-70 165,-128 250,-187 266,-150 459,-227 749,-232 494,-6 854,133 1080,417 231,289 350,540 380,771 3,23 18,55 19,77 -4,38 20,-9 36,-72 -23,-254 -154,-476 -359,-736 -300,-419 -873,-541 -1361,-469z"/>
    <path class="fil2" d="M782 317c-6,-8 -31,-25 -30,-33 1,-16 201,-98 224,-107 143,-52 285,-78 426,-80 0,7 19,15 19,21 0,8 -19,13 -19,19 -205,-3 -412,65 -620,179z"/>
    <path class="fil2" d="M1491 129c-23,-9 -22,-12 -22,-35 0,-20 515,40 634,147 0,13 -12,24 -12,37 -126,-89 -326,-139 -600,-150z"/>
    <path class="fil2" d="M2773 1219c-97,-350 -295,-655 -586,-887 -4,-7 -45,-22 -46,-45l0 -43c0,-11 117,88 127,97 304,269 510,629 545,876l-40 2z"/>
    <path class="fil2" d="M798 1216c0,24 9,24 27,0 90,-335 295,-505 580,-509 18,-14 18,-21 0,-21 -306,5 -520,182 -607,530z"/>
    <path class="fil2" d="M2093 1216c0,24 -9,24 -27,0 -90,-335 -278,-505 -563,-509 -18,-14 -18,-21 0,-21 306,5 503,182 590,530z"/>
    <rect class="fil2" x="103" y="1216" width="55" height="1618"/>
    <rect class="fil2" x="1469" y="94" width="55" height="2720"/>
    <rect class="fil2" x="2142" y="287" width="55" height="2524"/>
    <rect class="fil2" x="674" y="312" width="27" height="2482"/>
    <rect class="fil2" x="1402" y="98" width="27" height="2696"/>
    <rect class="fil2" x="2078" y="242" width="27" height="2571"/>
    <rect class="fil2" x="2786" y="1216" width="27" height="1618"/>
    <polygon class="fil2" points="2863,1215 2916,1213 2917,1224 2917,2954 2863,2954 "/>
    <rect class="fil2" y="1207" width="27" height="1747"/>
    <rect class="fil2" x="2196" y="1216" width="616" height="19"/>
    <rect class="fil2" x="1487" y="1259" width="617" height="58"/>
    <rect class="fil2" x="1487" y="1216" width="616" height="19"/>
    <rect class="fil2" x="781" y="1259" width="637" height="58"/>
    <rect class="fil2" x="781" y="1216" width="637" height="19"/>
    <rect class="fil2" x="125" y="1259" width="569" height="58"/>
    <rect class="fil2" x="138" y="1216" width="557" height="19"/>
   </g>
  </g>
 </g>
</svg>
