<?xml version="1.0" encoding="utf-8"?>
<!-- Generator: Adobe Illustrator 15.0.0, SVG Export Plug-In . SVG Version: 6.00 Build 0)  -->
<!DOCTYPE svg PUBLIC "-//W3C//DTD SVG 1.1//EN" "http://www.w3.org/Graphics/SVG/1.1/DTD/svg11.dtd">
<svg version="1.1" id="Слой_1" xmlns="http://www.w3.org/2000/svg" xmlns:xlink="http://www.w3.org/1999/xlink" x="0px" y="0px"
	 width="800px" height="600px" viewBox="0 0 800 600" enable-background="new 0 0 800 600" xml:space="preserve">
<g>
	<path fill-rule="evenodd" clip-rule="evenodd" d="M2.34814,0h795.30322H800v2.34766v594.57031v2.34668h-2.34863H2.34814H0v-2.34668
		V2.34766V0H2.34814L2.34814,0z M795.30371,4.6958H4.69824v589.87256h790.60547V4.6958z"/>
	<path fill-rule="evenodd" clip-rule="evenodd" d="M52.03271,541.37988h695.93604V28.39551H52.03271V541.37988L52.03271,541.37988z
		 M750.31738,546.07422H49.68262h-2.34814v-2.34668V26.04785V23.7002h2.34814h700.63477h2.34668v2.34766v517.67969v2.34668
		H750.31738z"/>
	<path fill-rule="evenodd" clip-rule="evenodd" d="M51.02734,546.66406l-36.36426,46.95703l770.83105,0.74023l-36.51953-47.69727
		H51.02734L51.02734,546.66406z M2.4126,594.63379l45.04688-52.81152l0.87891-1.0293h1.34424h700.63477h1.34082l0.88477,1.0293
		l45.80469,53.56836l-0.25977,2.65234l-2.01465-0.34375L1.52588,598.07617L2.4126,594.63379z"/>
	<path fill-rule="evenodd" clip-rule="evenodd" d="M48.63672,28.13867L1.59375,7.93262l-0.6543-5.6543L2.34814,0h795.30322H800
		l-1.65234,7.93262L751.3623,28.17334l-0.49121,0.24854h-0.55371L49.68262,28.3877h-0.55078L48.63672,28.13867L48.63672,28.13867z
		 M12.26221,4.6958l37.97461,19.01221l699.53076,0.03467L787.75195,4.6958H12.26221z"/>
</g>
</svg>
