<?xml version="1.0" encoding="utf-8"?>
<!-- Generator: Adobe Illustrator 15.0.0, SVG Export Plug-In . SVG Version: 6.00 Build 0)  -->
<!DOCTYPE svg PUBLIC "-//W3C//DTD SVG 1.1//EN" "http://www.w3.org/Graphics/SVG/1.1/DTD/svg11.dtd">
<svg version="1.1" id="Слой_1" xmlns="http://www.w3.org/2000/svg" xmlns:xlink="http://www.w3.org/1999/xlink" x="0px" y="0px"
	 width="800px" height="600px" viewBox="0 0 800 600" enable-background="new 0 0 800 600" xml:space="preserve">
<polygon fill-rule="evenodd" clip-rule="evenodd" fill="#58595B" points="2.75586,599.42969 51.58203,542.60742 
	751.39648,542.02051 798.83496,600.62012 "/>
<polygon fill-rule="evenodd" clip-rule="evenodd" fill="#D1D3D4" points="798.83496,4.02002 751.39648,28.52881 
	751.39648,542.02051 798.26758,596.9707 "/>
<polygon fill-rule="evenodd" clip-rule="evenodd" fill="#D1D3D4" points="1.78857,600.62012 0.38037,2.33008 51.58203,28.50439 
	49.22949,542.02051 "/>
<polygon fill-rule="evenodd" clip-rule="evenodd" fill="#808285" points="801.18848,0.04443 -0.56396,0.04443 51.58203,26.54736 
	751.39648,26.18018 "/>
<rect x="51.58203" y="28.52881" fill-rule="evenodd" clip-rule="evenodd" fill="#D1D3D4" width="699.81445" height="514.07861"/>
<g>
	<path fill-rule="evenodd" clip-rule="evenodd" d="M1.78857,0.04443h797.04639h2.35352v2.35352v595.86963v2.35254h-2.35352H1.78857
		h-2.35254v-2.35254V2.39795V0.04443H1.78857L1.78857,0.04443z M796.48145,4.75293H4.14453v591.16211h792.33691V4.75293z"/>
	<path fill-rule="evenodd" clip-rule="evenodd" d="M51.58203,542.60742h697.46289V28.50439H51.58203V542.60742L51.58203,542.60742z
		 M751.39648,547.31738H49.22949h-2.35303v-2.35156V26.15088v-2.35254h2.35303h702.16699H753.75v2.35254v518.81494v2.35156
		H751.39648z"/>
	<path fill-rule="evenodd" clip-rule="evenodd" d="M50.57715,547.90527l-36.44434,47.06348l772.51367,0.7373l-36.5957-47.80078
		H50.57715L50.57715,547.90527z M1.854,595.98047l45.14648-52.92383l0.88135-1.03613h1.34766h702.16699h1.34668l0.88379,1.03613
		l45.90625,53.68066l-0.26172,2.65918l-2.01758-0.34668L0.96729,599.42969L1.854,595.98047z"/>
	<path fill-rule="evenodd" clip-rule="evenodd" d="M48.18115,28.24512L1.03467,7.99609l-0.6543-5.66602l1.41064-2.28564h797.04395
		h2.35352l-1.65527,7.95166l-47.08789,20.28369l-0.49414,0.25146l-0.55469-0.00244L49.22949,28.49414h-0.55273L48.18115,28.24512
		L48.18115,28.24512z M11.7251,4.75293l38.05664,19.05322l701.06006,0.03467l38.07227-19.08789H11.7251z"/>
</g>
</svg>
