<?xml version="1.0" encoding="utf-8"?>
<!-- Generator: Adobe Illustrator 15.0.0, SVG Export Plug-In . SVG Version: 6.00 Build 0)  -->
<!DOCTYPE svg PUBLIC "-//W3C//DTD SVG 1.1//EN" "http://www.w3.org/Graphics/SVG/1.1/DTD/svg11.dtd">
<svg version="1.1" id="Слой_1" xmlns="http://www.w3.org/2000/svg" xmlns:xlink="http://www.w3.org/1999/xlink" x="0px" y="0px"
	 width="300px" height="264px" viewBox="0 0 300 264" enable-background="new 0 0 300 264" xml:space="preserve">
<rect x="24.18262" y="18.40967" fill-rule="evenodd" clip-rule="evenodd" fill="#5D2910" width="249.28027" height="228.68994"/>
<rect x="28.9834" y="22.81738" fill-rule="evenodd" clip-rule="evenodd" fill="#A66249" width="239.67676" height="219.87891"/>
<rect x="35.28711" y="28.6001" fill-rule="evenodd" clip-rule="evenodd" fill="#5D2910" width="227.07031" height="208.31396"/>
<rect x="37.7041" y="31.5625" fill-rule="evenodd" clip-rule="evenodd" fill="#A66249" width="220.61621" height="202.3877"/>
<linearGradient id="SVGID_1_" gradientUnits="userSpaceOnUse" x1="34.83643" y1="135.25586" x2="264.83722" y2="135.25586">
	<stop  offset="0" style="stop-color:#79D1F1"/>
	<stop  offset="0.47" style="stop-color:#AADFEF"/>
	<stop  offset="0.87" style="stop-color:#E2F3F9"/>
	<stop  offset="0.99" style="stop-color:#FFFFFF"/>
	<stop  offset="1" style="stop-color:#F1FAFE"/>
</linearGradient>
<rect x="58.91016" y="43.70605" fill-rule="evenodd" clip-rule="evenodd" fill="url(#SVGID_1_)" width="178.06055" height="183.09863"/>
<rect x="50.55273" y="136.09961" fill-rule="evenodd" clip-rule="evenodd" fill="#A66249" width="192.23438" height="3.41406"/>
<rect x="58.91162" y="138.83398" fill-rule="evenodd" clip-rule="evenodd" fill="#5D2910" width="178.05908" height="4.09473"/>
<rect x="50.55273" y="180.74219" fill-rule="evenodd" clip-rule="evenodd" fill="#A66249" width="192.23438" height="3.41406"/>
<rect x="58.91162" y="183.47656" fill-rule="evenodd" clip-rule="evenodd" fill="#5D2910" width="178.05908" height="4.09473"/>
<polygon fill-rule="evenodd" clip-rule="evenodd" fill="#A66249" points="24.18262,247.09961 274.89063,247.09961 
	300.03516,257.52539 0,257.52539 "/>
<rect y="257.52539" fill-rule="evenodd" clip-rule="evenodd" fill="#5D2910" width="300.03516" height="6.47461"/>
<path fill-rule="evenodd" clip-rule="evenodd" fill="#5D2910" d="M58.91016,43.70605H236.9707v183.09863H58.91016V43.70605
	L58.91016,43.70605z M62.4502,47.34814v175.81885h170.98145V47.34814H62.4502z"/>
<rect x="50.55273" y="88.1084" fill-rule="evenodd" clip-rule="evenodd" fill="#A66249" width="192.23438" height="3.41406"/>
<rect x="98.27197" y="43.70605" fill-rule="evenodd" clip-rule="evenodd" fill="#5D2910" width="2.13623" height="183.09863"/>
<rect x="58.91162" y="90.83936" fill-rule="evenodd" clip-rule="evenodd" fill="#5D2910" width="178.05908" height="4.09326"/>
<rect x="133.54639" y="34.92383" fill-rule="evenodd" clip-rule="evenodd" fill="#A66249" width="26.6665" height="198.02637"/>
<rect x="94.00195" y="36.67383" fill-rule="evenodd" clip-rule="evenodd" fill="#A66249" width="4.26855" height="190.13086"/>
<rect x="197.51367" y="43.70605" fill-rule="evenodd" clip-rule="evenodd" fill="#5D2910" width="2.13086" height="183.09863"/>
<rect x="193.24023" y="36.67383" fill-rule="evenodd" clip-rule="evenodd" fill="#A66249" width="4.27344" height="190.13086"/>
<rect x="159.14648" y="43.70605" fill-rule="evenodd" clip-rule="evenodd" fill="#5D2910" width="2.13281" height="183.09863"/>
<linearGradient id="SVGID_2_" gradientUnits="userSpaceOnUse" x1="264.61914" y1="131.23877" x2="305.26694" y2="128.39639">
	<stop  offset="0" style="stop-color:#58595B"/>
	<stop  offset="1" style="stop-color:#D1D3D4"/>
</linearGradient>
<polygon fill-rule="evenodd" clip-rule="evenodd" fill="url(#SVGID_2_)" points="300.02344,0 273.46289,18.40967 
	273.48242,247.09961 300.03516,257.52539 "/>
<linearGradient id="SVGID_3_" gradientUnits="userSpaceOnUse" x1="149.59033" y1="24.36621" x2="150.14355" y2="-7.32778">
	<stop  offset="0" style="stop-color:#58595B"/>
	<stop  offset="1" style="stop-color:#BCBEC0"/>
</linearGradient>
<polygon fill-rule="evenodd" clip-rule="evenodd" fill="url(#SVGID_3_)" points="0.00781,0 24.20508,18.40967 273.46289,18.40967 
	300.02344,0 "/>
<rect x="133.54443" y="43.70605" fill-rule="evenodd" clip-rule="evenodd" fill="#5D2910" width="2.13428" height="183.09863"/>
<linearGradient id="SVGID_4_" gradientUnits="userSpaceOnUse" x1="31.36475" y1="130.95605" x2="-7.91986" y2="128.20901">
	<stop  offset="0" style="stop-color:#58595B"/>
	<stop  offset="1" style="stop-color:#D1D3D4"/>
</linearGradient>
<polygon fill-rule="evenodd" clip-rule="evenodd" fill="url(#SVGID_4_)" points="0.00781,0 24.20508,18.40967 24.18262,247.09961 
	0,257.52539 "/>
</svg>
